<?xml version="1.0" encoding="UTF-8"?>
<svg xmlns="http://www.w3.org/2000/svg" viewBox="0 0 50 32">
  <defs>
    <style>
      .cls-1 {
        fill: #0038a6;
      }

      .cls-2 {
        fill: #ec2839;
      }

      .cls-3 {
        fill: #fff;
      }

      .cls-4 {
        fill: #fefeff;
      }
    </style>
  </defs>
  <g id="BG">
    <rect class="cls-3" y="0" width="50" height="32" rx="4" ry="4"/>
  </g>
  <g id="LOGOS">
    <g>
      <path class="cls-1" d="m11.81,18.86v-.73c.09.02.07-.05.07-.09,0-.24.06-.47.13-.69.13-.39.3-.77.5-1.13.21-.38.44-.75.69-1.11.21-.3.43-.59.67-.87.28-.34.58-.66.9-.97.7-.67,1.47-1.27,2.28-1.81.57-.38,1.2-.68,1.82-.98.16-.07.31-.14.47-.21.13-.06.28-.08.41-.14.23-.1.47-.17.7-.25.26-.09.54-.17.82-.22.16-.03.31-.1.46-.12.36-.05.71-.13,1.07-.17.32-.04.64-.07.95-.1.33-.03.67-.03,1-.02.28,0,.55.02.83.05.14.02.29,0,.43.03.28.07.58.08.86.12.36.05.72.11,1.07.16.35.05.71.12,1.05.19.44.1.88.19,1.32.3.28.07.56.14.83.22.27.08.55.15.83.23.38.11.75.24,1.12.37.31.11.62.22.92.35.38.16.76.34,1.13.52.07.03.12.09.21.08.05.04.1.08.15.1.49.27.94.58,1.37.93.67.54,1.18,1.18,1.28,2.07.03.26.04.52-.01.77-.08.39-.24.75-.47,1.08-.48.68-1.12,1.18-1.83,1.6-.71.42-1.47.72-2.21,1.05-.24.06-.46.16-.7.24-.52.17-1.05.34-1.58.49-.59.16-1.19.31-1.79.45-.49.11-.98.22-1.48.3-.3.05-.61.13-.91.17-.44.06-.89.15-1.33.21-.36.05-.71.08-1.07.15-.11.02-.22,0-.32.02-.15.03-.3.06-.46.07-.27.02-.54.05-.8.08-.38.04-.76.06-1.14.11-.22.03-.43,0-.65.04-.19.04-.39.03-.58.04-.12,0-.25,0-.37.01-.27.02-.54.04-.8.05-.3.01-.6.03-.9.03-.36,0-.72,0-1.09,0-.09,0-.18,0-.27,0-.26-.02-.53-.04-.79-.06-.1-.01-.21-.01-.31-.03-.37-.05-.75-.1-1.12-.18-.44-.1-.88-.22-1.29-.39-.47-.2-.91-.44-1.26-.81-.15-.15-.28-.32-.4-.5-.2-.3-.35-.61-.33-.98,0-.08-.03-.1-.09-.12Zm7.33-3.21c0,.25,0,.42-.02.59-.01.15,0,.15.14.13.03,0,.06.01.09.02.15.03.18,0,.17-.15,0-.07,0-.15,0-.22-.03-.12.02-.14.12-.14.11,0,.22,0,.33-.04.32-.11.39-.36.36-.64-.02-.22-.21-.4-.39-.42-.24-.03-.48-.03-.72-.03-.09,0-.11.03-.1.11.02.29.04.58.02.79Zm7.74-2.07h0c0-.14,0-.27,0-.41,0-.19.01-.2-.19-.19-.06,0-.15-.04-.19.03-.03.06-.05.02-.07,0-.17-.11-.34-.11-.52-.03-.21.09-.32.26-.36.48-.04.27.04.5.27.66.13.09.27.12.43.09.11-.02.22-.15.34,0,0,0,.02,0,.03,0,.06,0,.11-.03.17-.02.07.01.09-.03.09-.09,0-.17,0-.34,0-.51Zm5.78,0h0c0-.13,0-.27,0-.4,0-.06.02-.13,0-.18-.04-.06-.12-.01-.18-.03,0,0-.02,0-.02,0-.08-.04-.13-.01-.16.06-.02.03-.02.03-.06,0-.31-.23-.83-.02-.89.36-.04.24,0,.47.17.65.14.14.31.2.52.17.1-.02.21-.16.32-.01,0,.01.05.01.08,0,.05-.02.1-.02.16-.02.06,0,.08-.03.08-.08,0-.18,0-.35,0-.53Zm-4.74,2.08c0-.13,0-.27,0-.4,0-.03.01-.06-.02-.08-.06-.03-.29,0-.35.05-.01.01-.03.04-.06.01-.18-.14-.5-.14-.66.01-.28.26-.33.7-.05,1,.11.12.25.19.42.18.09,0,.18-.04.26-.09.03-.02.07-.05.11,0,.03.04.27.06.31.04.03-.01.02-.04.02-.06.02-.22.02-.45.02-.67Zm-4.79,1.82c-.17-.18-.37-.17-.55-.1-.4.15-.52.66-.24,1.02.15.2.4.27.64.19.07-.03.15-.1.22,0,0,.01.05.01.07,0,.05-.03.11-.02.17-.02.07,0,.09-.02.09-.09,0-.3,0-.6,0-.9,0-.22,0-.22-.23-.22-.07,0-.14,0-.15.11Zm4.2.62s0,0,0,0c.08,0,.15,0,.23,0q.23,0,.21-.23c-.03-.37-.46-.64-.8-.5-.27.1-.41.32-.46.59-.03.18.06.32.17.45.32.38.81.26,1.04-.12.02-.03.04-.08-.02-.07-.13,0-.27-.03-.39.07-.12.1-.31.05-.39-.09-.04-.06-.03-.09.05-.09.12,0,.24,0,.37,0Zm-4.18-4.3c-.16.02-.3-.03-.42.06-.17.13-.28.09-.41-.06-.02-.02-.06-.04-.05-.07.01-.04.06-.03.09-.03.2,0,.4,0,.59,0,.25,0,.25,0,.21-.25-.07-.41-.55-.65-.94-.41-.29.18-.39.54-.23.85.12.22.37.38.59.35.26-.03.45-.17.56-.43Zm-2.01,2.1s0,0,0,0c.14,0,.28-.02.42-.02.11,0,.14-.02.13-.13-.05-.48-.38-.68-.81-.59-.3.06-.52.43-.45.74.07.32.35.54.63.53.24,0,.4-.15.55-.32.02-.03,0-.08-.03-.08-.11,0-.22-.04-.33.03-.18.11-.33.09-.43-.05-.02-.02-.04-.05-.02-.08.02-.03.05-.02.07-.02.09,0,.18,0,.27,0Zm8.02-2.95c-.38,0-.66.26-.66.62,0,.39.29.65.64.66.4.02.65-.27.65-.74,0-.31-.27-.54-.63-.54Zm-4.78,2.2c-.16-.03-.3.05-.43.16-.12.11-.2.26-.22.41-.05.34.32.71.67.71.35,0,.68-.32.66-.66-.02-.34-.21-.65-.68-.63Zm.16,3.01c0,.09,0,.15,0,.2,0,.26,0,.26.26.24.07,0,.11-.03.11-.11-.01-.25,0-.5-.02-.75-.02-.16-.06-.31-.22-.36-.15-.06-.32-.08-.46.03-.03.02-.07.04-.08.02-.05-.13-.16-.05-.23-.07-.09-.02-.11.02-.11.11,0,.36.03.71-.01,1.07,0,.04.02.05.05.06.07,0,.15,0,.22,0,.07,0,.12-.04.11-.13,0-.22-.02-.44,0-.66.01-.1.09-.13.18-.14.08,0,.16,0,.19.1.05.14.01.28.02.38Zm5.48-4.49c0,.09,0,.18,0,.27,0,.29-.05.24.26.25.08,0,.1-.03.1-.1,0-.21,0-.41,0-.62,0-.14.07-.2.2-.2.13,0,.19.06.19.2,0,.15,0,.3,0,.45,0,.28,0,.28.28.27.07,0,.08-.02.08-.09,0-.23,0-.46,0-.69,0-.12-.02-.25-.11-.36-.11-.13-.41-.18-.57-.06-.03.02-.08.07-.1.03-.04-.11-.12-.05-.18-.06-.14,0-.2.05-.17.18.04.17,0,.34.02.51Zm-4.74,2.1c0,.15,0,.26,0,.36,0,.32-.04.25.27.26.06,0,.08-.01.08-.08,0-.21.03-.42.01-.63,0-.13.05-.18.21-.21.08-.01.16.05.18.16.03.16.01.32.01.48,0,.29,0,.28.28.28.07,0,.08-.02.08-.09,0-.23,0-.46,0-.69,0-.44-.38-.58-.7-.41-.02.01-.04.05-.07.01-.09-.09-.2-.04-.3-.05-.04,0-.08.02-.07.07.05.19,0,.38.02.52Zm-4.42,2.21h0c0,.12,0,.24,0,.35,0,.27,0,.27.28.26.07,0,.09-.02.09-.09,0-.21,0-.43,0-.64,0-.11.08-.18.19-.19.12,0,.17.04.2.16.01.06.02.12.02.18,0,.16,0,.33,0,.49,0,.04,0,.1.05.1.08,0,.16,0,.24,0,.04,0,.06-.03.06-.08,0-.25,0-.5,0-.75,0-.23-.1-.36-.3-.41-.13-.03-.26-.04-.38.05-.02.02-.09.07-.09.02,0-.07-.04-.05-.07-.05-.05,0-.11,0-.16,0-.08-.01-.11.02-.11.1,0,.17,0,.34,0,.5Zm-1.71-.2s0,0,0,0c0,.2,0,.4,0,.59,0,.3-.02.24.25.25.1,0,.14-.05.14-.14,0-.1,0-.19,0-.29,0-.24-.02-.21.21-.21.26,0,.26,0,.26-.26,0-.09-.03-.11-.11-.11-.09,0-.18,0-.27,0-.05,0-.09,0-.1-.07-.03-.18,0-.22.17-.22.02,0,.04,0,.06,0,.27,0,.27,0,.28-.27,0-.08-.02-.1-.09-.1-.23,0-.47,0-.7,0-.08,0-.09.03-.09.1,0,.24,0,.47,0,.71Zm5.09-4.2s0,0,0,0c0,.13,0,.26,0,.39,0,.24,0,.24.25.23.09,0,.11-.03.11-.11,0-.22-.02-.43.01-.65.02-.12.1-.16.26-.14.07,0,.15.11.14.19-.02.21,0,.42-.01.63,0,.03,0,.07.03.08.1.02.2.02.29,0,.04-.01.04-.11.04-.17-.02-.22,0-.44-.02-.66-.02-.16-.07-.3-.23-.36-.16-.07-.32-.08-.47.04-.03.03-.07.05-.09-.02,0-.04-.04-.03-.06-.03-.06,0-.12,0-.18,0-.07,0-.07.02-.07.08,0,.17,0,.34,0,.51Zm-4.4,0s0,0,0,0c0,.13,0,.25,0,.38,0,.26,0,.25.26.25.08,0,.11-.02.1-.1,0-.2,0-.4,0-.59,0-.07.03-.12.06-.16.06-.06.13-.07.22-.04.08.02.09.06.11.13.04.17.01.33.02.5,0,.32-.05.26.28.27.06,0,.08-.02.08-.08,0-.24,0-.49-.02-.73,0-.09-.02-.18-.07-.26-.09-.18-.45-.26-.62-.11-.03.03-.07.07-.1,0-.01-.04-.04-.03-.07-.03-.06,0-.11,0-.17,0-.07,0-.09.01-.09.09,0,.17,0,.34,0,.5Zm5.91,3.78c-.33-.04-.56.23-.63.48-.07.25.06.53.31.71.32.23.81.01.93-.34,0-.03.01-.05-.02-.07-.06-.03-.32,0-.36.05-.18.18-.41.13-.5-.11-.04-.11.01-.27.1-.34.08-.06.26-.08.31-.01.11.13.24.12.38.12.09,0,.1-.03.06-.1-.13-.24-.3-.41-.6-.39Zm-2.93-1.3s-.12-.04-.15.02c-.03.06.03.13.07.18,0,.01.02.02.03.03.17.18.39.19.66.06.17-.09.21-.25.2-.37-.02-.14-.13-.26-.28-.29-.09-.02-.16-.06-.24-.1-.04-.02-.1-.05-.06-.11.03-.05.09-.07.15-.02.07.06.14.08.23.07.06,0,.14.03.17-.03.02-.06-.02-.13-.07-.18-.03-.04-.06-.07-.1-.09-.12-.08-.26-.08-.4-.06-.17.02-.33.17-.36.33-.03.17.1.28.25.35.09.04.18.07.26.11.06.03.12.07.07.14-.04.06-.12.08-.18.02-.07-.07-.15-.07-.25-.06Zm4.43-2.34h0c0,.08,0,.15,0,.23,0,.26,0,.26.26.25.08,0,.1-.03.1-.11,0-.24,0-.49,0-.73,0-.07,0-.11.09-.1.06,0,.08-.02.08-.08,0-.05,0-.09,0-.14,0-.05-.01-.07-.06-.06-.13.02-.13-.06-.13-.15,0-.3,0-.3-.29-.27,0,0,0,0-.01,0-.05,0-.07.03-.06.07.03.08.01.16.02.24,0,.08-.02.12-.1.11-.02,0-.07-.01-.07.01-.01.07-.02.15,0,.21,0,.05.08.07.12.06.07-.02.06.02.06.06,0,.13,0,.26,0,.39Zm-5.95.01s0,0,0,0c0,.07,0,.14,0,.22,0,.31-.04.25.26.25.07,0,.1-.02.1-.1,0-.25,0-.5,0-.75,0-.06,0-.1.08-.09.08,0,.1-.03.09-.1,0-.04,0-.08,0-.13,0-.03-.01-.05-.05-.05-.14.03-.14-.06-.14-.16,0-.26,0-.26-.27-.25-.06,0-.08.01-.08.08,0,.08,0,.16,0,.24,0,.06-.02.1-.09.1-.06,0-.12,0-.1.09.02.07-.06.19.1.19.07,0,.09.03.09.09,0,.13,0,.25,0,.38Zm-2.14-.36s0,0,0,0c0,.18,0,.37,0,.55,0,.28,0,.28.28.28.11,0,.13-.04.13-.14,0-.39,0-.79,0-1.18,0-.33,0-.33-.33-.32-.07,0-.08.02-.08.09,0,.24,0,.48,0,.72Zm13.79,0c0,.24,0,.48,0,.72,0,.04-.02.11.05.1.1-.02.22.06.3-.05.01-.02.02-.03,0-.06-.01-.02-.01-.05-.01-.08,0-.44,0-.88,0-1.32,0-.04.04-.1-.04-.11-.1-.01-.21-.03-.31.01,0,0,0,.04,0,.06,0,.24,0,.48,0,.72Zm-4.39,2.24s0,0,0,0c0-.2,0-.4,0-.59,0-.29,0-.29-.28-.26-.06,0-.07.02-.07.08,0,.42,0,.84,0,1.27,0,.3,0,.3.3.28,0,0,.02,0,.02,0,.04,0,.03-.02.03-.05,0-.24,0-.49,0-.73Zm-6.67.19c0,.1,0,.21,0,.31,0,.28,0,.28.28.28.07,0,.09-.02.09-.09,0-.19,0-.38,0-.57,0-.15.05-.2.2-.21.05,0,.09-.02.09-.08,0-.09,0-.17,0-.26,0-.05-.04-.06-.08-.05-.05.02-.1.04-.15.07-.03.01-.05.03-.08,0-.09-.07-.2-.03-.3-.03-.03,0-.07.01-.06.06.04.19,0,.38.01.57Zm1.52-2.24c0,.13,0,.26,0,.39,0,.24,0,.23.23.24.1,0,.13-.04.13-.13,0-.19-.01-.38,0-.57,0-.09.05-.17.14-.18.14,0,.15-.09.14-.19,0-.03,0-.05,0-.08,0-.11-.03-.13-.14-.09-.03.01-.06.02-.07.05-.03.04-.06.08-.09,0-.01-.03-.04-.03-.07-.03-.06,0-.13,0-.19,0-.06,0-.08.01-.08.08,0,.17,0,.34,0,.51Zm-2.8,4.41s0,0,0,0c0-.12,0-.24,0-.35,0-.26,0-.25-.26-.26-.08,0-.11.02-.1.1,0,.3,0,.59,0,.89,0,.27-.03.25.27.25.07,0,.1-.03.1-.11,0-.17,0-.35,0-.52Zm7.7-4.4c0-.12,0-.24,0-.35,0-.26,0-.26-.26-.26-.08,0-.11.02-.11.11,0,.28,0,.56,0,.84,0,.28,0,.28.28.27.06,0,.09-.02.08-.08,0-.17,0-.35,0-.53Zm-.17-.74c.05-.02.12.04.17-.03.04-.05.03-.21-.02-.24-.03-.02-.33,0-.34.02,0,0,0,0,0,.01-.06.15.01.25.17.25,0,0,0,0,.02,0Zm-7.7,4.12c-.21,0-.19-.04-.19.19,0,.06.02.09.08.08.06,0,.13,0,.19,0,.07,0,.1-.02.09-.09,0-.04,0-.08,0-.11,0-.05-.02-.08-.07-.07-.03,0-.07,0-.1,0Z"/>
      <path class="cls-2" d="m18.87,10.48s-.02-.08,0-.13c.42-1.15.91-2.27,1.56-3.31.2-.32.42-.63.66-.93.41-.5.86-.97,1.39-1.33.47-.32.99-.57,1.56-.67.1-.02.22-.01.29-.11h.89c.13-.01.26.04.38.04.07.06.17.06.26.07.3.02.58.12.85.22.91.32,1.78.75,2.62,1.22,1.23.69,2.36,1.51,3.38,2.48.6.57,1.14,1.19,1.6,1.88.33.48.63.98.87,1.52.06.14.12.29.18.44-.08,0-.14-.05-.21-.08-.37-.18-.75-.36-1.13-.52-.3-.13-.61-.24-.92-.35-.37-.13-.74-.26-1.12-.37-.27-.08-.55-.15-.83-.23-.27-.08-.55-.15-.83-.22-.44-.11-.88-.2-1.32-.3-.35-.08-.7-.14-1.05-.19-.36-.05-.72-.11-1.07-.16-.29-.04-.58-.04-.86-.12-.14-.03-.29-.01-.43-.03-.27-.03-.55-.04-.83-.05-.33,0-.67,0-1,.02-.32.03-.64.07-.95.1-.36.04-.71.12-1.07.17-.16.02-.31.09-.46.12-.28.05-.55.12-.82.22-.23.08-.48.15-.7.25-.13.06-.28.09-.41.14-.16.07-.31.14-.47.21Z"/>
      <path class="cls-1" d="m25.6,4.04c-.13,0-.25-.05-.38-.04h.41s-.03.02-.03.04Z"/>
      <path class="cls-1" d="m11.81,19s.03,0,.03.02c0,.02,0,.04-.03.02v-.05Z"/>
      <path class="cls-2" d="m33.64,19.48c-.04.11-.14.18-.22.26-.39.39-.76.79-1.16,1.17-.36.33-.71.67-1.07.99-1.54,1.35-3.19,2.57-4.93,3.66-.32.2-.65.36-.98.54-.2.11-.39.23-.59.33-.43.21-.86.42-1.3.6-.35.14-.69.29-1.04.41-.64.23-1.29.44-1.96.53-1.09.15-1.96-.25-2.61-1.15-.21-.28-.36-.59-.5-.91-.09-.22-.15-.46-.23-.69-.1-.29-.14-.59-.2-.89-.04-.2-.05-.4-.09-.6-.04-.23-.03-.47-.09-.7-.02-.08,0-.17,0-.25-.02-.3-.03-.61-.02-.91.26.02.53.04.79.06.09,0,.18,0,.27,0,.36,0,.73,0,1.09,0,.3,0,.6-.01.9-.03.27-.01.53-.03.8-.05.12,0,.25,0,.37-.01.19,0,.39,0,.58-.04.21-.04.43-.01.65-.04.38-.05.76-.07,1.14-.11.27-.03.53-.06.8-.08.15-.01.31-.04.46-.07.1-.02.21,0,.32-.02.35-.06.71-.1,1.07-.15.45-.06.89-.14,1.33-.21.31-.04.61-.12.91-.17.5-.09.99-.19,1.48-.3.6-.13,1.19-.28,1.79-.45.53-.15,1.05-.31,1.58-.49.23-.08.46-.18.7-.24Z"/>
      <path class="cls-4" d="m19.14,15.65c.02-.21,0-.5-.02-.79,0-.08.01-.11.1-.11.24,0,.48,0,.72.03.18.02.37.2.39.42.03.28-.04.53-.36.64-.11.04-.22.05-.33.04-.1,0-.15.02-.12.14.02.07,0,.14,0,.22,0,.15-.02.18-.17.15-.03,0-.05-.02-.09-.02-.15.02-.16.02-.14-.13.02-.17.02-.34.02-.59Zm.38-.33q0,.19.2.19s0,0,.01,0c.12,0,.2-.06.21-.16,0-.17,0-.18-.17-.22-.21-.05-.25-.01-.25.19Z"/>
      <path class="cls-4" d="m26.88,13.58c0,.17,0,.34,0,.51,0,.07-.02.1-.09.09-.06,0-.11.02-.17.02-.01,0-.03,0-.03,0-.11-.14-.23-.01-.34,0-.16.03-.3,0-.43-.09-.23-.16-.31-.4-.27-.66.03-.22.15-.39.36-.48.17-.08.35-.08.52.03.03.02.04.05.07,0,.04-.07.13-.03.19-.03.2,0,.19,0,.19.19,0,.14,0,.27,0,.41h0Zm-.38-.02c0-.19-.09-.29-.28-.29-.19,0-.29.1-.3.29,0,.17.13.33.27.32.17,0,.34-.11.3-.32Z"/>
      <path class="cls-4" d="m32.66,13.58c0,.18,0,.35,0,.53,0,.05-.01.09-.08.08-.05,0-.1,0-.16.02-.02,0-.07.01-.08,0-.11-.15-.22,0-.32.01-.21.03-.38-.03-.52-.17-.18-.18-.21-.41-.17-.65.06-.39.58-.6.89-.36.03.02.04.02.06,0,.04-.07.09-.1.16-.06,0,0,.02,0,.02,0,.06.01.14-.04.18.03.03.05,0,.12,0,.18,0,.13,0,.27,0,.4h0Zm-.66-.31c-.2,0-.31.11-.3.3,0,.16.16.33.31.32.17-.01.28-.11.29-.3,0-.21-.13-.33-.29-.31Z"/>
      <path class="cls-4" d="m27.91,15.66c0,.22,0,.45-.02.67,0,.02,0,.05-.02.06-.04.02-.28,0-.31-.04-.04-.05-.08-.02-.11,0-.08.05-.17.08-.26.09-.17,0-.31-.06-.42-.18-.29-.3-.23-.74.05-1,.16-.15.48-.15.66-.01.03.02.05,0,.06-.01.05-.05.29-.08.35-.05.03.02.02.05.02.08,0,.13,0,.27,0,.4Zm-.39.12c0-.22-.09-.31-.29-.31-.18,0-.29.12-.29.3,0,.18.13.32.29.31.15,0,.33-.12.29-.31Z"/>
      <path class="cls-4" d="m23.12,17.48c.01-.11.08-.11.15-.11.23,0,.23,0,.23.22,0,.3,0,.6,0,.9,0,.07-.02.1-.09.09-.05,0-.11-.01-.17.02-.02,0-.06,0-.07,0-.07-.11-.15-.03-.22,0-.24.08-.49.01-.64-.19-.27-.36-.15-.87.24-1.02.18-.07.38-.08.55.1Zm.01.5c.03-.2-.13-.31-.28-.31-.18,0-.31.13-.31.3,0,.16.15.32.29.32.18,0,.3-.12.3-.31Z"/>
      <path class="cls-4" d="m27.32,18.1c-.12,0-.24,0-.37,0-.08,0-.09.03-.05.09.08.13.27.18.39.09.12-.1.26-.07.39-.07.06,0,.04.05.02.07-.23.39-.72.51-1.04.12-.11-.13-.2-.27-.17-.45.05-.27.19-.48.46-.59.35-.13.77.14.8.5q.02.22-.21.23c-.08,0-.15,0-.23,0,0,0,0,0,0,0Zm-.18-.26h0c.06,0,.13,0,.19,0,.07,0,.09-.04.05-.09-.06-.09-.16-.11-.27-.11-.09,0-.16.04-.2.12-.03.04-.02.07.04.07.06,0,.13,0,.19,0Z"/>
      <path class="cls-4" d="m23.14,13.8c-.12.27-.31.41-.56.43-.22.02-.48-.13-.59-.35-.16-.3-.06-.66.23-.85.39-.25.87,0,.94.41.05.25.05.25-.21.25-.2,0-.4,0-.59,0-.03,0-.08,0-.09.03-.01.03.03.05.05.07.13.14.24.19.41.06.12-.09.27-.03.42-.06Zm-.6-.36c.06,0,.11,0,.17,0,.03,0,.06.02.08-.02.01-.04,0-.06-.03-.09-.11-.1-.33-.09-.42.01-.02.02-.05.05-.04.08.01.04.05.02.08.02.06,0,.11,0,.17,0Z"/>
      <path class="cls-4" d="m21.12,15.9c-.09,0-.18,0-.27,0-.03,0-.06,0-.07.02-.02.03,0,.06.02.08.09.14.24.16.43.05.11-.06.22-.03.33-.03.04,0,.05.05.03.08-.14.17-.31.32-.55.32-.29.01-.56-.21-.63-.53-.07-.31.15-.68.45-.74.43-.09.76.12.81.59.01.11-.02.14-.13.13-.14,0-.28.01-.42.02,0,0,0,0,0,0Zm-.07-.27h0c.06,0,.12,0,.18,0,.02,0,.05,0,.06-.02,0-.02-.01-.04-.02-.06-.1-.14-.35-.14-.45-.01-.02.02-.02.04-.02.06,0,.04.04.03.06.03.06,0,.13,0,.19,0Z"/>
      <path class="cls-4" d="m29.15,12.96c.36,0,.63.23.63.54,0,.47-.24.76-.65.74-.35-.02-.63-.27-.64-.66,0-.36.28-.61.66-.62Zm-.29.6c0,.16.13.33.26.34.17,0,.31-.14.31-.33,0-.16-.12-.28-.27-.28-.17,0-.3.11-.3.28Z"/>
      <path class="cls-4" d="m24.37,15.15c.47-.02.65.28.68.63.02.34-.31.66-.66.66-.35,0-.71-.37-.67-.71.02-.15.1-.29.22-.41.13-.12.27-.19.43-.16Zm.03.32c-.17,0-.29.12-.29.29,0,.19.12.33.29.33.15,0,.29-.14.29-.3,0-.18-.07-.31-.29-.32Z"/>
      <path class="cls-4" d="m24.53,18.16c-.01-.11.02-.25-.02-.38-.03-.1-.1-.11-.19-.1-.09,0-.17.04-.18.14-.03.22-.01.44,0,.66,0,.09-.04.12-.11.13-.07,0-.14,0-.22,0-.04,0-.06-.02-.05-.06.04-.36,0-.71.01-1.07,0-.09.02-.13.11-.11.08.02.18-.06.23.07,0,.02.05,0,.08-.02.15-.12.31-.09.46-.03.16.06.2.2.22.36.03.25,0,.5.02.75,0,.08-.03.11-.11.11-.26.01-.26.02-.26-.24,0-.06,0-.11,0-.2Z"/>
      <path class="cls-4" d="m30,13.67c-.02-.17.02-.34-.02-.51-.03-.13.03-.19.17-.18.06,0,.14-.06.18.06.01.03.07-.01.1-.03.16-.13.46-.07.57.06.09.1.11.23.11.36.01.23,0,.46,0,.69,0,.06-.02.08-.08.09-.28,0-.28,0-.28-.27,0-.15,0-.3,0-.45,0-.15-.06-.2-.19-.2-.13,0-.2.06-.2.2,0,.21,0,.41,0,.62,0,.08-.02.11-.1.1-.31,0-.25.04-.26-.25,0-.09,0-.18,0-.27Z"/>
      <path class="cls-4" d="m25.26,15.77c-.02-.14.03-.34-.02-.52-.01-.05.03-.07.07-.07.1.01.22-.04.3.05.03.03.05,0,.07-.01.32-.17.7-.03.7.41,0,.23,0,.46,0,.69,0,.06-.02.08-.08.09-.29,0-.28,0-.28-.28,0-.16.02-.32-.01-.48-.02-.11-.1-.17-.18-.16-.16.02-.22.08-.21.21.01.21-.01.42-.01.63,0,.06-.02.08-.08.08-.31,0-.26.06-.27-.26,0-.11,0-.21,0-.36Z"/>
      <path class="cls-4" d="m20.85,17.97c0-.17,0-.34,0-.5,0-.08.03-.11.11-.1.05,0,.11,0,.16,0,.03,0,.06-.02.07.05,0,.06.07,0,.09-.02.12-.09.26-.07.38-.05.2.04.3.18.3.41,0,.25,0,.5,0,.75,0,.05-.02.08-.06.08-.08,0-.16.01-.24,0-.05,0-.05-.06-.05-.1,0-.16,0-.33,0-.49,0-.06,0-.12-.02-.18-.03-.12-.08-.17-.2-.16-.11,0-.18.08-.19.19,0,.21,0,.43,0,.64,0,.07-.02.09-.09.09-.27,0-.27,0-.28-.26,0-.12,0-.24,0-.35h0Z"/>
      <path class="cls-4" d="m19.14,17.77c0-.24,0-.47,0-.71,0-.07,0-.1.09-.1.23,0,.47,0,.7,0,.07,0,.1.02.09.1-.01.27,0,.27-.28.27-.02,0-.04,0-.06,0-.18,0-.21.04-.17.22.01.06.05.07.1.07.09,0,.18,0,.27,0,.08,0,.11.02.11.11,0,.26,0,.26-.26.26-.23,0-.22-.03-.21.21,0,.1,0,.19,0,.29,0,.1-.04.15-.14.14-.27,0-.25.05-.25-.25,0-.2,0-.4,0-.59,0,0,0,0,0,0Z"/>
      <path class="cls-4" d="m24.23,13.57c0-.17,0-.34,0-.51,0-.06,0-.09.07-.08.06,0,.12,0,.18,0,.02,0,.06,0,.06.03.02.07.06.04.09.02.15-.12.31-.11.47-.04.16.07.21.2.23.36.02.22,0,.44.02.66,0,.06,0,.16-.04.17-.09.03-.2.03-.29,0-.03,0-.03-.05-.03-.08,0-.21,0-.42.01-.63,0-.08-.07-.18-.14-.19-.17-.02-.25.02-.26.14-.03.22-.02.43-.01.65,0,.08-.02.11-.11.11-.25,0-.25,0-.25-.23,0-.13,0-.26,0-.39,0,0,0,0,0,0Z"/>
      <path class="cls-4" d="m19.82,13.57c0-.17,0-.34,0-.5,0-.07.02-.09.09-.09.06,0,.11,0,.17,0,.03,0,.05,0,.07.03.02.08.06.04.1,0,.17-.16.53-.07.62.11.04.08.06.17.07.26.01.24,0,.49.02.73,0,.06-.02.08-.08.08-.34,0-.28.06-.28-.27,0-.17.02-.33-.02-.5-.02-.07-.03-.11-.11-.13-.09-.03-.16-.02-.22.04-.04.04-.07.09-.06.16,0,.2,0,.4,0,.59,0,.08-.03.1-.1.1-.25,0-.25,0-.26-.25,0-.13,0-.25,0-.38,0,0,0,0,0,0Z"/>
      <path class="cls-4" d="m25.74,17.35c.3-.02.48.14.6.39.04.07.03.1-.06.1-.14,0-.28.01-.38-.12-.05-.07-.24-.05-.31.01-.09.07-.14.23-.1.34.09.25.31.3.5.11.04-.04.3-.07.36-.05.03.02.03.04.02.07-.12.35-.62.57-.93.34-.24-.18-.37-.45-.31-.71.06-.25.3-.53.63-.48Z"/>
      <path class="cls-4" d="m22.8,16.05c.1,0,.18,0,.25.06.06.06.14.04.18-.02.05-.07-.02-.11-.07-.14-.09-.04-.18-.07-.26-.11-.15-.07-.28-.18-.25-.35.03-.16.19-.31.36-.33.14-.02.28-.02.4.06.04.03.07.06.1.09.04.05.09.13.07.18-.02.06-.11.02-.17.03-.09.01-.16-.01-.23-.07-.06-.05-.11-.03-.15.02-.04.06.02.09.06.11.08.04.15.08.24.1.15.03.26.16.28.29.01.12-.03.28-.2.37-.27.14-.48.12-.66-.06-.01-.01-.02-.02-.03-.03-.04-.06-.1-.12-.07-.18.03-.06.11,0,.15-.02Z"/>
      <path class="cls-4" d="m27.23,13.71c0-.13,0-.26,0-.39,0-.04,0-.08-.06-.06-.03,0-.11,0-.12-.06-.01-.07,0-.14,0-.21,0-.03.05-.02.07-.01.08,0,.11-.03.1-.11,0-.08.01-.16-.02-.24-.02-.04,0-.07.06-.07,0,0,0,0,.01,0,.3-.03.3-.03.29.27,0,.09,0,.17.13.15.04,0,.06.01.06.06,0,.05,0,.09,0,.14,0,.06-.02.09-.08.08-.08-.01-.09.03-.09.1,0,.24,0,.49,0,.73,0,.08-.02.1-.1.11-.26,0-.26,0-.26-.25,0-.08,0-.15,0-.23h0Z"/>
      <path class="cls-4" d="m21.28,13.72c0-.13,0-.25,0-.38,0-.07-.01-.1-.09-.09-.16,0-.08-.11-.1-.19-.02-.09.04-.09.1-.09.07,0,.09-.03.09-.1,0-.08,0-.16,0-.24,0-.06.02-.07.08-.08.27,0,.27,0,.27.25,0,.1,0,.19.14.16.03,0,.05.01.05.05,0,.04,0,.08,0,.13,0,.07-.01.11-.09.1-.07,0-.08.03-.08.09,0,.25,0,.5,0,.75,0,.08-.03.1-.1.1-.3,0-.26.06-.26-.25,0-.07,0-.14,0-.22,0,0,0,0,0,0Z"/>
      <path class="cls-4" d="m19.14,13.37c0-.24,0-.48,0-.72,0-.07.01-.08.08-.09.33-.01.33-.02.33.32,0,.39,0,.79,0,1.18,0,.1-.02.14-.13.14-.28,0-.28,0-.28-.28,0-.18,0-.37,0-.55,0,0,0,0,0,0Z"/>
      <path class="cls-4" d="m32.93,13.37c0-.24,0-.48,0-.72,0-.02,0-.06,0-.06.1-.04.21-.03.31-.01.07,0,.04.07.04.11,0,.44,0,.88,0,1.32,0,.03,0,.06.01.08.02.03,0,.04,0,.06-.08.12-.2.04-.3.05-.07.01-.05-.06-.05-.1,0-.24,0-.48,0-.72Z"/>
      <path class="cls-4" d="m28.54,15.61c0,.24,0,.49,0,.73,0,.03,0,.05-.03.05,0,0-.02,0-.02,0-.3.02-.3.02-.3-.28,0-.42,0-.84,0-1.27,0-.06.02-.08.07-.08.28-.03.28-.03.28.26,0,.2,0,.4,0,.59,0,0,0,0,0,0Z"/>
      <path class="cls-4" d="m21.87,15.81c-.01-.19.03-.38-.01-.57-.01-.05.03-.06.06-.06.1,0,.21-.04.3.03.03.02.06,0,.08,0,.05-.02.1-.05.15-.07.04-.02.08,0,.08.05,0,.09.01.18,0,.26,0,.05-.04.07-.09.08-.14.01-.19.06-.2.21,0,.19,0,.38,0,.57,0,.07-.01.09-.09.09-.28,0-.28,0-.28-.28,0-.1,0-.21,0-.31Z"/>
      <path class="cls-4" d="m23.38,13.57c0-.17,0-.34,0-.51,0-.06.02-.08.08-.08.06,0,.13,0,.19,0,.03,0,.06,0,.07.03.03.08.06.04.09,0,.02-.03.05-.04.07-.05.11-.05.14-.03.14.09,0,.03,0,.05,0,.08.01.11,0,.19-.14.19-.09,0-.14.08-.14.18-.01.19-.01.38,0,.57,0,.09-.02.13-.13.13-.23,0-.23,0-.23-.24,0-.13,0-.26,0-.39Z"/>
      <path class="cls-4" d="m20.58,17.98c0,.17,0,.35,0,.52,0,.07-.03.11-.1.11-.29,0-.27.03-.27-.25,0-.3,0-.59,0-.89,0-.08.02-.11.1-.1.26,0,.26,0,.26.26,0,.12,0,.24,0,.35,0,0,0,0,0,0Z"/>
      <path class="cls-4" d="m28.28,13.59c0,.18,0,.35,0,.53,0,.06-.02.08-.08.08-.28,0-.28,0-.28-.27,0-.28,0-.56,0-.84,0-.08.03-.11.11-.11.26,0,.26,0,.26.26,0,.12,0,.24,0,.35Z"/>
      <path class="cls-4" d="m28.11,12.84s-.02,0-.02,0c-.16,0-.23-.09-.17-.25,0,0,0,0,0-.01.02-.03.31-.04.34-.02.05.03.06.19.02.24-.05.07-.12.01-.17.03Z"/>
      <path class="cls-4" d="m20.41,16.96s.07,0,.1,0c.05,0,.08.02.07.07,0,.04,0,.08,0,.11,0,.07-.02.1-.09.09-.06,0-.13,0-.19,0-.06,0-.09-.02-.08-.08,0-.24-.02-.19.19-.19Z"/>
      <path class="cls-1" d="m19.53,15.32c0-.2.04-.24.25-.19.17.04.17.05.17.22,0,.1-.08.16-.21.16,0,0,0,0-.01,0q-.19,0-.2-.19Z"/>
      <path class="cls-1" d="m26.5,13.57c.03.21-.14.32-.3.32-.14,0-.27-.16-.27-.32,0-.19.11-.3.3-.29.19,0,.28.1.28.29Z"/>
      <path class="cls-1" d="m32,13.28c.16-.01.29.1.29.31,0,.19-.11.29-.29.3-.15.01-.31-.16-.31-.32,0-.19.11-.3.3-.3Z"/>
      <path class="cls-1" d="m27.53,15.78c.04.19-.13.31-.29.31-.16,0-.28-.14-.29-.31,0-.18.11-.3.29-.3.2,0,.28.09.29.31Z"/>
      <path class="cls-1" d="m23.13,17.98c0,.19-.11.31-.3.31-.15,0-.29-.16-.29-.32,0-.17.14-.31.31-.3.15,0,.31.11.28.31Z"/>
      <path class="cls-1" d="m27.14,17.84c-.06,0-.13,0-.19,0-.06,0-.06-.02-.04-.07.05-.08.11-.11.2-.12.11,0,.21.01.27.11.04.05.02.09-.05.09-.06,0-.13,0-.19,0h0Z"/>
      <path class="cls-1" d="m22.54,13.44c-.06,0-.11,0-.17,0-.03,0-.07.02-.08-.02,0-.03.02-.06.04-.08.1-.11.32-.12.42-.01.03.03.04.05.03.09-.01.04-.05.02-.08.02-.06,0-.11,0-.17,0Z"/>
      <path class="cls-1" d="m21.05,15.63c-.06,0-.13,0-.19,0-.03,0-.06,0-.06-.03,0-.02,0-.04.02-.06.1-.13.35-.12.45.01.01.02.03.04.02.06,0,.03-.04.02-.06.02-.06,0-.12,0-.18,0h0Z"/>
      <path class="cls-1" d="m28.86,13.56c0-.17.12-.28.3-.28.16,0,.27.13.27.28,0,.19-.14.34-.31.33-.13,0-.26-.17-.26-.34Z"/>
      <path class="cls-1" d="m24.4,15.47c.21,0,.28.14.29.32,0,.16-.13.3-.29.3-.17,0-.29-.14-.29-.33,0-.17.12-.29.29-.29Z"/>
    </g>
  </g>
</svg>