<?xml version="1.0" encoding="utf-8"?>
<!DOCTYPE svg PUBLIC "-//W3C//DTD SVG 1.1//EN" "http://www.w3.org/Graphics/SVG/1.1/DTD/svg11.dtd">
<svg version="1.1" id="Layer_1" xmlns="http://www.w3.org/2000/svg" xmlns:xlink="http://www.w3.org/1999/xlink" x="0px" y="0px" width="206px" height="61px"
	 viewBox="0 0 206 61" enable-background="new 0 0 206 61" xml:space="preserve">
<path fill="#4B2670" d="M70.9,30.3c0-2.5-2-4.9-4.4-4.9S62,27.7,62,29.6c-0.1,4.7-0.9,6.6-2.3,9.4c-1.8,3.7-4.6,6.9-8.1,9.1
	c-7.4,4.6-16.3,4.4-23.3-0.7c-0.7-0.5-1.3-0.9-1.9-1.5c1-0.3,2-0.7,3-1c8.9-3.8,15.6-11.6,18.3-21.6c2.2-8.7-0.2-16.8-6.3-20.9
	c-6.1-4-13.9-3-20.5,2.7C13.4,11.4,9.4,20.9,9.8,30.7c0.1,2,0.4,4,0.8,5.9c-1.4-0.5-2.7-1.1-3.9-1.9l0,0c-0.7-0.4-1.5-0.7-2.2-0.7
	C2,34.1,0,36.2,0,38.7c0,1.7,0.9,3.1,2.2,3.9l0,0C3.7,43.6,5.4,44.4,7,45c0.3,0.1,0.5,0.2,0.8,0.3c1.1,0.4,2.2,0.7,3.2,1
	c0.3,0,0.6,0.1,0.8,0.2c1.1,0.2,2.2,0.4,3.3,0.5c0,0,0,0,0,0l0,0c2.1,3,4.7,5.7,7.8,7.9c5.2,3.8,11.3,5.7,17.3,5.7
	c5.4,0,10.8-1.5,15.7-4.6c8.9-5.4,14.2-14.7,14.8-25.1L70.9,30.3c0,0.2,0,0.4,0,0.7C70.9,30.8,70.9,30.6,70.9,30.3 M26.4,12.2
	c2.3-2,4.6-3,6.7-3c1.2,0,2.2,0.3,3.2,0.9c2.8,1.8,3.7,5.9,2.5,10.7c-1.9,7.2-6.6,12.9-13,15.5c-1.8,0.8-3.6,1.2-5.4,1.5
	c-0.9-2.3-1.5-4.8-1.6-7.5C18.5,23.4,21.3,16.6,26.4,12.2"/>
<g>
	<path fill="#4B2670" d="M66.2,23.1c2.5,0,4.5-2.1,4.5-4.6s-2-4.6-4.5-4.6c-2.5,0-4.5,2.1-4.5,4.6S63.8,23.1,66.2,23.1"/>
</g>
<path fill="#272624" d="M109,21.3h5.3v2.7c1.5-2.8,3-3.6,5.6-3.6h0.5v5.7h-0.5c-3.2,0-5.1,1.8-5.1,5.8v13.9H109V21.3z M170.8,21.3
	v24.6h-5.3V43c-1.6,2.6-4,3.7-7.2,3.7c-5.8,0-9.1-3.7-9.1-11.6V21.3h5.9v12.6c0,5.6,1.4,7.4,4.4,7.4c3.5,0,5.5-2.3,5.5-7.7V21.3
	H170.8z M140.9,33.5c0-4.5-3-7.7-7.1-7.7c-4.1,0-7.1,3.2-7.1,7.7s3,7.7,7.1,7.7C137.9,41.2,140.9,38,140.9,33.5 M146.7,33.5
	c0,7.5-5.8,13.1-13,13.1c-7.2,0-13-5.6-13-13.1s5.8-13.1,13-13.1C141,20.4,146.7,26,146.7,33.5 M98.9,42.7c-1.9,2.8-4.8,4-7.9,4
	c-6.9,0-12.4-5.7-12.4-13.1S84.2,20.4,91,20.4c3.1,0,6,1.2,7.9,4.1v-3.2h5.6v22.6c0,9.5-5.1,14.8-13.1,14.8
	c-6.1,0-10.5-3.1-12.4-8.4h6.6c1.1,2,3,3,5.8,3c4.7,0,7.4-2.9,7.4-9.4L98.9,42.7L98.9,42.7z M84.4,33.5c0,4.4,3.2,7.7,7.2,7.7
	c4,0,7-3.3,7-7.7s-3-7.7-7-7.7C87.6,25.8,84.4,29.1,84.4,33.5 M181.2,43.4v15.2h-5.9V21.3h5.4v3c1.9-2.8,5-3.9,8-3.9
	c6.9,0,12.2,5.7,12.2,13.1s-5.3,13.1-12.2,13.1C185.9,46.6,183.1,45.7,181.2,43.4 M195,33.5c0-4.4-3-7.7-7-7.7s-7.3,3.3-7.3,7.7
	s3.2,7.7,7.3,7.7C192.1,41.2,195,37.9,195,33.5"/>
<path fill="#272624" d="M192.2,54.7c0,1.4-0.9,2.4-2.1,2.4c-1.3,0-2.2-1-2.2-2.4s1-2.3,2.2-2.3C191.3,52.4,192.2,53.4,192.2,54.7
	 M194,54.7c0-2.3-1.6-4-3.7-4c-1,0-2,0.4-2.5,1.4v-1h-1.5v10h1.7v-3.3c0.6,0.8,1.4,1,2.3,1C192.4,58.7,194,57,194,54.7"/>
<path fill="#272624" d="M204.1,56h1.9c-0.5,1.6-2,2.8-3.7,2.8c-2.2,0-4-1.7-4-4s1.9-4,4-4c1.7,0,3.2,1.1,3.7,2.8h-1.9
	c-0.4-0.7-1.1-1.1-1.9-1.1c-1.3,0-2.2,1-2.2,2.3c0,1.4,0.9,2.4,2.2,2.4C203.1,57.1,203.7,56.6,204.1,56"/>
<g>
	<rect x="195.2" y="48.4" fill="#272624" width="1.8" height="10.1"/>
</g>
</svg>
