<svg id="Layer_1" data-name="Layer 1" xmlns="http://www.w3.org/2000/svg" width="289.24mm" height="173.49mm" viewBox="0 0 819.9 491.79">
                            <g>
                                <path class="cls-1" d="M660.63,359.31c4.56-16.53,16.5-30.14,30.44-34.17C678.84,331,665.8,343.58,660.63,359.31Z" transform="translate(-9.66 -12.33)"></path>
                                <path class="cls-1" d="M666,358c-.31-.07-.56-.15-.79-.22,2-11.9,10.94-20.92,19.54-25C678.05,338.35,668,345.4,666,358Z" transform="translate(-9.66 -12.33)"></path>
                                <path class="cls-1" d="M713.09,367.4c1.62-5,7.61-9.17,8.7-16.69C723.26,357.06,717.36,364.14,713.09,367.4Z" transform="translate(-9.66 -12.33)"></path>
                                <path class="cls-1" d="M711.36,364.7c2.75-4.09,6.42-8.37,7.13-13.73C721.12,355,715.47,363,711.36,364.7Z" transform="translate(-9.66 -12.33)"></path>
                                <path class="cls-1" d="M670,353c.14-4.09,4.29-10.16,8.69-11.43A26,26,0,0,0,670,353Z" transform="translate(-9.66 -12.33)"></path>
                                <path class="cls-1" d="M714.54,354.83c1.26,1.59-1.5,5.1-2.85,6.12C710,359.53,713.51,356.3,714.54,354.83Z" transform="translate(-9.66 -12.33)"></path>
                                <path class="cls-1" d="M682.31,326.88c-.44-.06-.39-.33-.68-.47,3-2.26,6.17-4.26,10.4-4.37C689.58,325,684.87,324,682.31,326.88Z" transform="translate(-9.66 -12.33)"></path>
                                <path class="cls-1" d="M781.34,240.09a17,17,0,0,1-2.38-6.16c2.12.56,2.06,3.88,3.21,5.53C782.12,240.11,781.5,239.7,781.34,240.09Z" transform="translate(-9.66 -12.33)"></path>
                                <path class="cls-1" d="M717.36,374.85c47.48,10.84,75.12-57.26,64.91-94.82-7.67-30.42-13-63.11-50.66-77.8-1.62.23-1.86,2.74-3.53,2.85-7.17-2.78-11.66-6.85-10.64-13.84-6.25-.43-14.84,1.84-15.88,9.22-.11,1,1.28,2.44.92,3.54-1,2.51-9.78,2.94-12.87,1.77-5.15-2-8.53-7.37-10.81-10.6,1.64-23.17,25-27.6,44.09-27.79.52-1.43-.94-1.79-.77-3-30-12.68-61.92-11.63-82.51-.18.67,2.69,3.24,5.55,2.6,8.2-15.71-4.22-24.87,16.11-40.89,9-14-6.19-6.59-24.61,3.4-34.31,36-30.6,124.43-22.09,166.28,15.07,20,17.7,36.89,36.9,47.12,59.17,4.81,10.45,6.22,22.25,10.35,32.56,1.32,16.67,1.62,35-.11,51.15-.1,1.36-1.06,1.08-1.32,2.11s.51,1.58.68,2.43c-.27.85-.93,1-1.18,1.86.06,1.11.62,1.95-.28,3.5-2.81,30.82-22.55,65.76-42.76,80.74-19.07,14.17-51.2,27.3-78,24.45-3.7-.41-7.52-1.68-11.26-1.37a128.36,128.36,0,0,1-21-9c-.81-1.11-1.87-2.11-2.71-3.17-18.84-13.84-37.47-43.68-16.46-70.86,4.19-5.42,10.06-8.54,14.94-13.55,13.3-3.77,33.42-5.56,48.59,4C734.09,336.59,737.51,362.47,717.36,374.85Zm-65.28-1.05c1.46,14.79,11.44,25.24,23.7,34.51a85,85,0,0,0,71,4c40.58-16.76,66.25-44.81,77.87-98.87,4.32-19.84,3.44-37.61.54-54.08-4.68-27.14-14.56-52.27-33-72-10.66-11.3-22.27-25.82-36.94-34.17S718.36,136.13,697.71,133c-25.17-3.72-63-2.49-79.84,8.55-4.2,2.76-12.55,8.53-15.77,12.55-7,8.68-12.09,24.54,4.08,25.84,6.79.62,19.17-12.21,8.67-15.85-3.47-1.19-6.25.63-8.18,2.79,0,1.57,2.26,2.08,1.6,4a10.62,10.62,0,0,0-1.69.67c-5.79-7,8.13-14.56,14.13-18.25,8.13-4.94,14.71-7.91,22.6-9.35,17.46-8.09,40.21-6,62.32-4.91,15.12,1.78,30,6.1,42.79,13.68,25.43,15.06,46,39.27,55.86,61.82,7.17,16.42,19.9,35.72,15.72,54.66-5.45-1.7-4.86-9.28-5.62-13.35A127,127,0,0,0,798.5,210c-.22-.38,0-1,.25-1.61-15.14-26.75-41.42-60.6-87.86-65.75,7.41,1.66,16.08,3.24,21.4,6.88-45.53-14.11-89-10.22-115.62,12.62,6.89-1.92,11.94-7,18.51-10.15,27.28-13.26,77.07-12.38,110,6.22-41.83-18.74-93.22-18.37-120.55,4.69,24.92-15.26,59.37-23.58,96.15-9.37-15.39-2.78-32.32-7.93-46-4.69,9.94.7,21,.45,29.94,4.76-18.87-3.45-41.84-5.36-56.12,3,36.77-14.06,100.7,9.72,127.14,34,21.7,27.56,30.4,61.84,32.41,99.59-.55.57-1-.86-1.21.23-.3.83,1.59.56,1.25,1.38-.77-.32-1.37,0-1,.58,1.88,8.29.29,20.68-3,31.2-6,19.34-12.3,46.42-28,57.94-20.91,15.3-43.17,28.87-74.31,22.72-27.08-5.41-43.6-30.44-27.41-53.39,2.21-3.12,6.23-3.22,8.1-7.73.47-.31,1.52.31,2,0,9.24-11.61,35.63-1.55,27.16,14.19-5.13,9.48-19.45,7.71-18.59-3.9,2-2.36,4.18-4.65,8-3.9a4.13,4.13,0,0,1,0,5.25C699.51,356,697,354,696,353.68c-1,2.63.38,4,1.39,5.61,22.26,2.94,12.47-24.59-6-19.26-4.47,1.33-10.14,8.35-11.39,13.51-2.26,9.19,7.08,23.84,18.46,23.65a26.18,26.18,0,0,0,21.25-11.31c-2.12-.77-2.79,4.35-5.8,3.38,3.67-4.4,9.6-11,10.92-18.28,1.12,1.33-.19,4,.6,5.42,7.49-22.57-14.68-36.5-39.19-35.34-9,6.1-19.88,11.1-24.58,23.4,5.51-5.78,11-13.65,17.6-16.21-8.9,8.28-18.8,16.24-22.53,32.2-1,.19-1-1.72-1.63-.41C652.48,364.58,654.88,370.49,652.08,373.8ZM723,403.07c22.79-.75,42.63-17.11,58.28-30,11.34-16.43,20.94-40.84,22.44-62.25,4.31-11.21.05-22,.26-31.92a4.28,4.28,0,0,0,.9-1.94c-5.32-24.17-8.51-52.58-26.3-70.11-6.9-6.86-14.54-13.94-22.6-17.38,10.6,9.75,23.25,19.54,29.2,31-11.44-10.18-20.64-23.72-35.43-30.77,13,12.73,31.32,24,37.52,39.57a156.2,156.2,0,0,0-41.57-37.91c13.85,13.53,33.87,25.06,38.6,42.59-3.9-10.17-15.19-18.69-24.58-27.5-4.9-4.67-13.75-16-20.77-13,13.94,10.47,29.76,21.12,36.86,34.42-3.56-3.07-7-8-10.42-11.89-9.66-5.56-18.59-18.25-29.42-19.75,24.34,15.34,44.55,32.87,46.71,59.64-4.17-11.81-6.48-25.71-17.4-33.32,9.22,16.61,16.84,34.73,20,53.85-1,.57-1.47-.68-1.75.93.52,1.05.76.28,1.87.5,11.62,33.17-12,88.57-44.19,101,23.17-5.15,36.52-29,45.76-56-9.29,43.9-40,66.24-81.3,60.44,42.68,11.43,70.57-13.06,82.81-54.3-7.3,38.76-33.93,58-66.49,59.5,29.42,3.37,54.13-12.86,63.73-43.13.19,5.28-5.18,12.43-5.08,17.31,3.75-1.79,3.93-7.44,7.11-10.17a47.49,47.49,0,0,1-18.05,25.7c-16.65,25-74.51,28.49-95.82-.42C677.11,395.27,702.16,403.8,723,403.07Zm2.44-6.51c-14.87-1.85-34.76-8.24-43.56-17.5C687.27,390.65,710.71,397.9,725.4,396.56Zm54.67-33.18c-17,22.39-41.75,31.17-73.88,26.94,12.24,5.69,28.26,5.37,37.64.78,1.18,0,.57,1,1.76,1C759.05,386.26,772.24,377.8,780.07,363.38ZM735,395a5.25,5.25,0,0,0-3.52,1C732.94,396.23,734.23,396.07,735,395Zm3.61-.43a1.82,1.82,0,0,0-2.84.66C736.9,395.34,738,395.44,738.59,394.61Zm-37.06-8.88c.64,0,1.68.81,2,.3C702.88,385.63,702.11,385.21,701.53,385.73Zm14,2.67c-1,0-.92-.66-1.82-.76-.18.52-.84.11-.86.88A3.66,3.66,0,0,0,715.56,388.4Zm2.94,0c-.79-.15-1.79-.77-2-.05C717.21,388.56,718.21,389.11,718.5,388.41Zm23.35,5.18a.82.82,0,0,0-1.56.41A1.21,1.21,0,0,0,741.85,393.59Zm-65.71-68.35c-12.33,4.57-27.1,23.53-23.73,39.53C655.73,349.71,664.56,332.64,676.14,325.24Zm47.46,35.09c-1.38-.25-1.76,1.19-2.25,2.39.36.08.24.41.72.5C722.22,361.66,724.13,361.76,723.6,360.33ZM682.15,187.51c-3.86,9.27,6,19.77,16.45,15.74-14.82-12.19,3.91-32.53,18.52-33.36C704.88,169.6,687.81,174.06,682.15,187.51Zm81.08,32.26a28.94,28.94,0,0,0-6.59-6.68C756.88,215.39,760.51,218.78,763.23,219.77ZM717.81,189.1c.53-1.94,1.8-5.43,3.25-7.08-9-1.27-19.15-.91-24.79,5.12,6.44-1.08,14.49-6.93,22.58-3.81-7.69,1.89-22,2.53-22.41,10.5,5.33-5.25,13.77-9.34,21.46-7.74-6.48,2.39-21,3.86-18.48,13C702.89,191.07,709.9,189.29,717.81,189.1Zm-79-18.5c.3-1.82-.56-3-1.31-4.25-6.13-.54-12.27-1.29-17.23-.74,1.6,2.63,1.62,6.14,2.53,9.23C627.37,172.14,633,171.31,638.76,170.6Zm82.39,27.92a44.35,44.35,0,0,0,6.21,4.19c8-13.14,20.73-17.9,37.66-15.21C754.28,172.35,713.69,173.92,721.15,198.52Zm20,4.07c1.7,2.12,5.27,3.31,7.65,5.06C747.3,205.54,743.71,203.43,741.14,202.59Zm-4.47-2.32c-.64-.48-2.55-2.4-3.24-.87C733.47,200.52,735.89,200.39,736.67,200.27Zm26.63-11c6,6,13.14,12.54,18.56,18.18C777.44,200.61,773.83,192.33,763.3,189.28ZM634.21,161.07c-1.53.08-2.37,1.44-3.42,2.45C632.34,163.56,634.18,162.37,634.21,161.07Zm90.33,18.29c-8.33-2.46-18.85-2-24.91,2.07A116.52,116.52,0,0,1,724.54,179.36Zm8.89-3.09c-9.26-2.05-20.63-4.34-26.9.2C714.38,174.45,726.05,179.35,733.43,176.27Zm13.33-.59c-7.34-3.1-19.58-5.41-26.69-3.3C730.09,172.48,738.59,176.78,746.76,175.68ZM666,149.56c-1.13.1-2.59-.33-3.36.49A4.13,4.13,0,0,0,666,149.56Zm37.14-8.15c-.77-.42-3.36-1-4.13,0C700.72,141.93,701.85,141.51,703.15,141.41Zm5.75.14c-1.88,0-4.3-1-5.61.19C705,142.3,707.9,143.29,708.9,141.55Z" transform="translate(-9.66 -12.33)"></path>
                            </g>
                            <g>
                                <path class="cls-1" d="M528,53.22c-7.24.1-14,3-21,4.06C514.2,57.78,521.75,55.08,528,53.22Z" transform="translate(-9.66 -12.33)"></path>
                                <path class="cls-1" d="M521.82,59.32a15.77,15.77,0,0,0-9.69,2.48C515.54,62,518.6,60.24,521.82,59.32Z" transform="translate(-9.66 -12.33)"></path>
                                <path class="cls-1" d="M687.32,108.93c-21.63-7.48-16.49-25.16-30.58-39.06-11.65-11.51-24-19.46-38.48-26.06,2.73-3,7.11-6,8-10.06-13.09,3.18-27.32.37-41.4-1.91-.52.39-1.18,0-1.6.63-29.64-5.09-58.1-3.81-84,11.09-13.61,4.17-28.25,7.59-43.33,3.6-10.55-2.81-27.67-14.33-32.44-23.31-1.32-2.46-1.51-7.63-1.63-11.52a7.79,7.79,0,0,1-2.26.29,24.34,24.34,0,0,1-.68,3.42c2.68,10.76,4.53,21.57,12.6,32.25,6.94,4.71,12.7,10.53,18.09,16.65a137.09,137.09,0,0,0,35.64,10.92,4.4,4.4,0,0,1,2.45-.79c11.41,5.49,23.4,12.62,24.15,23.09,6.44-4,9.1-11.89,7-17.7,9,2.77,17.32,12.53,10.08,17.92-10.85-5.49-2.68,10.05,5.34,13,7.74,1.35,20.13-2.25,19.78-11.41-.14-.68-.89-.71-1.38-.79,3.82-7.52-7-16-16.93-22.41,3.85-6.06,14.7-7.21,22.06-8.34,13.63-2.1,29.88-4.86,44.07,7,.17,3.67-4.53,4.41-7.44,4.48,3.1,6.93,15.59,13.65,21.64,11.52-1.88,3.14-5,4.53-8,5.92,1.89,4.12,9,5.74,13.44,9.26-7.92,2.11-19.91,9.95-27.86.4-.21-6.46,6.55-3.18,9.35-1.71-1.81-17.5-31.4-12.48-26.47,2.23,8.52,25.72,50.37,28.34,65.74,21.46,7.72-1.88,15.85-9,19.54-16.18C669,117,681.94,123.26,688.13,119,692.77,115.8,695.54,106.76,687.32,108.93ZM613.55,38.07c-11.34,3.85-24.12.14-37-4.25C588.81,35.47,602.07,37.64,613.55,38.07ZM475.71,71.76c-8.7-3-17.85-3.85-26.65-10.48,6.88,1.64,14.42,6.94,20.86,6.31-4.17-2-9.87-2.54-13.22-6.14,6.55,3.67,18.09,1.93,20.84,9C476.89,70.9,476.24,70.83,475.71,71.76Zm54.83,35.1c-1.36-1-2.71-2.71-2.48-4.07,4,1.26,8.74-1,9.77-4.84C544.59,105,539.83,113.32,530.54,106.86Zm58.79-40.62c2.3-.33,5.76.77,7.83,2.24C595,69.87,591.82,66.36,589.33,66.24Zm-49,.85c10.37-.15,21.16-3.07,31.12-2.5-17,1.67-33.25,6.85-49.92,9.84,3,3.35,8.17,3.24,11.92,4.85,16.93,4,26,26.09,9.9,28.83-.93-11.94-14.21-25.34-29-33.29-.8.33-1.79-.36-2.44.82,7,4.88,6.72,13.44,1,17.46-8.34-9.51-9.82-25-26.69-29.37-.61,4.21,10.82,6.42,11.22,12.13C490,77,481.29,66,473.36,64.88a80.11,80.11,0,0,1-37.5-18.08c15.62,9.84,30.3,14.57,44.44,16.4-10.87-3.86-26.8-6.53-39.33-14.91-3.62-2.41-10.17-6.48-10-9.29,9.7,6.59,19.37,13.08,28.07,14.57-9-4.85-24-10.72-30-20,43.62,36.61,80.09,9.31,118.68,11.23-5,.82-11.09.43-15.22,2.56,4.94.33,9.51-1.45,14.53-.63-17,1.86-35.77,4.17-50.83,10.44,25.53-6.59,51.52-10.51,78.66-8.16-15,1.57-31.6-.18-45.57,4.24,17.43-.42,34.39-3.53,52.41-.89-17.81,1.28-36,.67-53.17,5.17,20.42-.86,40.08-5.74,61.56-.86-24.24-1.89-48.61.61-70.66,7.55,24.85-3.34,48.78-11.51,75.87-2.78-21.43-4.48-42.53-2.38-61.45,3.4,21.34-1.93,43.35-9.84,66,1.74C578.9,60,558.7,62.7,540.34,67.09Zm17.12-21a14.34,14.34,0,0,1,7.41.07C562.46,46.48,560.09,47,557.46,46.05ZM592,96c1.2-.11,5,2.38,4.77,3.39-6.41-1-10.89,6.05-4.57,10.75C583.53,106.76,585.86,98.77,592,96Zm15.85,32.33c-10.94-3.31-30.9-14.33-28.64-24.14,2.68,11,19.3,20.53,29.88,19.75-11.41-.85-34.44-13.8-25.85-25-2.91,6.25,1.95,16.49,11.34,17.27-6.49-2.88-11.94-7.85-10.34-12.76,2.52,6.84,9.38,9.27,16.06,10.16,10.85-.86,28.28-3.21,33.47-14.61-6.27,5.59-13.74,4.77-22.06-.83,4.64-2.81,8.32-7,13-10.73C628,76.75,623.63,65.87,610.19,57c-3.08-2-6.27-.3-4,2.56,5.06,6.49,18.34,11.55,15.36,18.52,1,.58.67,1.16,1.16,1.72-.38,10.84-14.43,13.76-22.24,3.64,2.66.57,5.43,1.1,7.31-.61,7.64-6.92-9.53-22.45-16.74-27.58-36-25.91-72.76-6.46-104-4.85,17.21-6.45,33.74-16.47,52-17.11,15.56.18,32.09,5.7,48.5,10.33-12.82-5.77-26.6-8.62-39.33-11.08A151.31,151.31,0,0,1,632.49,64.7c4.69,9.27,5.23,21-4.86,28.55,5.49,0,11.91-5.43,11.76-10.87,3.19,5.51.25,12.46-.29,18.57,5.38-8.09,2.37-17.43.46-25.95,6.2,11.93,7.58,25.83-3.5,36.53,11-5.42,10.17-17.49,9.12-25.77,7.83,13-4.46,35.11-21.42,36.5,21.7,1.21,33-24.1,25.54-39.57,5.84,10.06,6.2,21.11-2.23,30.59-1.08,1.21-4.32,4.49-2.93,5.56,9-7.74,12.2-17.25,11.11-26.44,3.64,7.09.52,15-4.47,21.3,4.33-1.53,6.17-7.8,7.55-10.33.73,4.09-3.94,8.65-5.63,12.32,3.7-2.23,5.06-6.62,7.13-9.82C658.4,129,626.36,133.91,607.81,128.29ZM637.4,78.13c.3.22.47,0,.76.33-.26,3.38.09,9.19-4.82,11.09A22.24,22.24,0,0,0,637.4,78.13Zm4.15-4.59c3,3.21,5.85,7.26,5,10C645.72,80.21,642.46,76.89,641.55,73.54Zm40.08,44.77c-8.93-2.39-17.42-9-21.18-16.55-5.72-20.35-31.62-50.65-59.16-56.45-11.71-5.17-23.15-8.77-34.62-12.58a94,94,0,0,1,24.11,7.19c23,2,51.62,13.4,69.92,36.51,9.62,12.11,7,33.21,29,37.85C687.25,117,684.59,118.41,681.63,118.31Z" transform="translate(-9.66 -12.33)"></path>
                                <path class="cls-1" d="M648,86.51c-.36.42-.28.81.21,1.24C648.53,87.32,648.45,86.89,648,86.51Z" transform="translate(-9.66 -12.33)"></path>
                                <path class="cls-1" d="M565.72,32.27a5.16,5.16,0,0,0-3.68-.43C563.35,32.41,564.65,32.94,565.72,32.27Z" transform="translate(-9.66 -12.33)"></path>
                                <path class="cls-1" d="M600,69.87c-.67-.47-1.39-1.25-2-1.22C597.68,69.25,599.54,70.4,600,69.87Z" transform="translate(-9.66 -12.33)"></path>
                                <path class="cls-1" d="M452.75,59.78c-.32.42.43,1,.89,1C453.94,60.13,453.29,60.1,452.75,59.78Z" transform="translate(-9.66 -12.33)"></path>
                                <path class="cls-1" d="M449.26,57.64c-.63.43.19,1.1.73,1.07C450.28,58.36,449.78,58,449.26,57.64Z" transform="translate(-9.66 -12.33)"></path>
                            </g>
                            <g>
                                <path class="cls-1" d="M340.73,478.7c1.46,1.13-.77,1.95-.5,3.29,3.19,1.53,8.7-.57,11.73-.36C347.76,485.16,332.64,484.5,340.73,478.7Z" transform="translate(-9.66 -12.33)"></path>
                                <path class="cls-1" d="M401.25,456.92c5.81-4.66,10.31-14.29,3.68-20.86,4.09,2.47,5.19,7.48,6.11,11.84a2.18,2.18,0,0,1-1.25.16C409,451.69,404.33,454.92,401.25,456.92Z" transform="translate(-9.66 -12.33)"></path>
                                <path class="cls-1" d="M416,446.57c-2.94-5-3.62-12.76-7.85-16.19C413.54,433.55,415.44,440.31,416,446.57Z" transform="translate(-9.66 -12.33)"></path>
                                <path class="cls-1" d="M279.21,469.48c-13.94-.41-28.7-9.23-45.84-5.94-9.87,1.94-17.89,6.61-22.26,13.12-6.16-3.49-1.38-12.46,2-15.84-9.57-.47-33-.25-31.38,8.3.69,3.64,5.39,2.51,8.56,2.36-.56,2.46-4.21,2.61-6.11,4.09-11,0-19.49-5.42-18.85-15.16.48-7.74,9.11-12,16.57-16.2,9.57-5.43,19.31-6.76,31-8.09,3.79-.41,7.57-.88,11.41-1.08,2.44-.15,9-1.07,11-.05-5.48-2.66-12.62-6.26-20.54-7-13.48-1.35-30.45,5.72-46.33,4.24-9.33-.92-18.86-7.89-14-16.6,3.17-3.29,16.27-4.41,16.47,1.28-1.08,1-2.34.2-3.73,0-3.68,1-2.91,4.93,0,6.1,20.59-.57,28-13.69,48.55-14.61,5.45-.2,10.66,1.39,15.68,2.4,4-4.09,12.24-9.37,20.33-9.94,2-.14,8.48.88,8.3,2.58-.09,1.37-4.71,1.17-6.1,2.05-9,5.48-5.22,22.08,4.42,25.41-3.34-13.38,4.23-26.19,21-26.7-.1,1.95-4.35,3.74-2,6.25,7.67-17,53-14.19,53.69,5,.36,9.12-8.8,14.14-19.62,15.69,6.63,15.63,27.43,26.69,49.75,25.26-7.88-5.79-8.79-18.19-5.39-26.75a34.38,34.38,0,0,1,14-8.87c26.6-8,51.61,6.87,50.21,27.67-.22,3.54-2,7.24-3.23,10.61-1.84,5.14-7.95,10.1-13.14,13.48a105.91,105.91,0,0,1-17,8.36,137.91,137.91,0,0,1-42.37,10c-10.21.67-20.41-2.3-15.43-10.29-7.24-.61-22.07-1.38-23.25,4.21-.48,2.05,2.26,3.17.45,4.81-5.68-1.33-9.31-8-5.36-12.71-24.5-1.44-41,8.45-37.75,27.26h-.46c-3.94-4.25-10.39-6.81-11.29-12.9C249.48,479.27,266.82,471.93,279.21,469.48Zm21.58-24.34c10.1,15.52,44.25,21.67,71.52,16.76,15.23-2,34.84-23.33,17.4-33.36-2.36-1.39-5.45-1.7-8.08-3.13,21.87.36,23,23.52,7.82,30.8-.73,0-.92-.42-1.45,0-9.73,6.87-24.08,12.25-40.88,13.27-27.19,1.64-49.66-7.33-66-14.4,4.67,5.43,18.18,6.15,19.87,12.56-16.66,4-42.19,2.86-44.59,18.23,2.76-3,4.94-7.47,9.8-8.3-5.22,3.39-11.41,9.8-9.33,16.25,1.2-7.89,6.44-13.73,13.73-16.45-6,4.2-16,11.69-10.75,19.94-.65-9.69,6-16.09,13.71-19.53-5.18,4.25-12.53,8.87-12,16.2,2.44-6.61,6.39-11.79,13.72-15.28s15-3.69,24.24-5.17c2.58-.42,9.14-3,9.83-.36-2.79,2.46-6.68,4.76-4.92,9.58,5.29-5.84,16.59-3.63,27.43-5.73,22.73-4.31,53.58-6.46,69.83-17.89,9.37-6.57,14.16-18.19,3.94-26.91,5,3.59,7.77,9.63,7.82,16.39-7.11,12.78-21.94,19.38-40.89,23.29-11.9,2.4-25.05,4.2-36,7.72-.31,1.09-2,6,2,5.69,15.94-.92,34.08-9.21,47.28-11.78-11.12,5.17-25.91,7.53-37.95,12,18.51-4.5,39.51-8.77,52.89-17.73,3.11,5.48-23.41,11.18-27.75,12.4-10.73,3-21.49,5.74-32.26,8.45,15.44-.56,25.83-4.55,38.93-7.93,15.23-4,29.26-13.18,34.6-22.65,4.16-7.55,5.12-19.38-.53-26.6C407,422.84,384.37,416,368.65,423c-6.47,2.86-10.58,9.42-8.8,17.11,2,9.07,23.55,9.28,21.78-.35-1.08-5.9-14.07-7.58-14-.36-8.13-5.54,1.87-13.69,12.74-12.36,6.52,2.73,13.66,5.33,12.53,12.93-1.87,12.39-24.55,19.72-43.38,18.44-12.91-.87-30.13-11-36.27-18.1-2.51-2.86-3.12-6.34-5.42-9.21-3.1-5.9-2.51-17.43,6.64-18.62,4.46-.61,9.54,3.75,8.06,6.83-1.91-1.23-2.63-3.44-5.39-4.06-11.74,8.26,12.19,13.54,12,.37-.05-4.61-6.66-11.89-12.21-12.35-8-.72-14.45,6.25-14.94,11.07-1.48,12.76,8.78,25.92,14.67,33.72-13.54-8.15-23.85-37.47-6.12-45.71-21.41,4.71-9.75,34.64-.23,43.15,2.94,2.25,6.73,4.85,8.53,7.38-9.14-4.27-15.4-10.67-21.08-17.53,2.25,8.92,11.3,14.24,18.64,19.94C309.89,453.75,305,448.37,300.79,445.14Zm46,40.38c-3.79.16-8.85,1.08-11,.72C338.4,487.57,345.15,487.16,346.84,485.52Zm-107.3-24c-3.19-1.48-8.86-1.48-11.29-3,4-.1,9.63,2,13.25,1.5-3.66-2.52-10.56-2.63-14-5.34,16.4,3.69,30.08,10.46,48.76,12.36-4.25-2.67-10.38-3.9-14.71-6.46,9.57-1.19,19.62,10.34,32.34,5.74-14.77-2.1-23.74-19.28-39.94-19.59-10.25-.2-1.4,8.31,1.44,10-.24.56-1,.76-1.69.92-12.23-3.13-24.54-14.45-40.65-8.3-3.78,5.17,3.17,7.84,8.55,8.86-6.8,1.8-12.33,7.43-10.76,13.7C215.77,465,227.67,462.61,239.54,461.54Zm-57.12.36c-3.59,1.28-8,5.89-4.15,8.87A9,9,0,0,1,182.42,461.9Zm28.16-3.34c-3.09-3.43-1.38-8.25,1.72-10.86-7.55-1.33-16.85-.67-23.49.2,7.29-4.91,22.92.67,31.1-2.4-17.29-6.36-41.4.09-49,9.22,5.06-2,9-5.74,14.67-6.66-7.21,4-19.48,8.8-14.93,18.66,2.64-3.75,7.6-7.64,13.46-7.74-5.55,2-11.59,4.61-11.3,10.5a7.88,7.88,0,0,0,1.74.35C174.21,456.92,196.3,460.06,210.58,458.56Zm110,7.59c9.51.66,23.41,3.89,29.68-.72-28.13-3.28-56.38-8.77-55.36-34-1.07-1.08-.84-2.77-2.48-3.12-6.67-1.39-4,5.47-5.61,7.37-10.6-11.22.55-27.36,10.28-34.69-12.24.5-15.21,8-20.6,13.68-3.94-1.18-2.69-6.87-.93-9.08-8.86,2.47-14.55,7.28-16,15.33,2.33,7.53,6.22,15.17,13,19.93C271,436,266.71,430.32,268,425.2c2.24,4.51,3,11.37,7.09,15.11-1.82-6.7-7.26-13.57-6.12-20.64,3.21,5.32,4.56,12.14,7.81,17,.07-2.56-3.35-6.82-2-9.23C279.39,448.37,295.55,460.62,320.59,466.15ZM273.81,453c5.11,4.62,11.79,8,19.62,10.52A147.49,147.49,0,0,0,273.81,453Zm-52.9-9.21c7.85,2.86,17,4.76,24.27,8.14C240.46,446.77,229.69,445.23,220.91,443.81Zm164.15-7.75c3.78,10.15-8.29,16.82-21.08,13.28C375,455.85,393,445.8,385.06,436.06Zm-.23-2.4c5.06,3.37,4.16,12.49-1.49,15.52C391.06,447.28,391.58,436.88,384.83,433.66ZM374,432.57c12.48,1.7,10.51,15.69-1.72,16.41C386,451.39,388.92,430.84,374,432.57ZM245.9,447.13c-3.52-.46-8.13-1.95-10.76-1.84C237,446.83,244.88,449.7,245.9,447.13Zm10-14.76c-8.49-6.81-17-23.06-1.25-29.31-7.24-1.54-17.09,2.82-18.11,8.46-.36,2,2.21,5-.72,5.58-14.5-15.68-41-1-54.17,5.13-4.33,2-14.54,3.83-19.86,1.33-5.7-2.77-2-8.51,3.66-9.07-11.28-2.52-10.34,9.07-3.15,10.92,23.2,2.66,27-11.63,46.28-11.28-5.49,2.52-15,1.95-18.12,6.25,9.17-1.63,20-6.6,29.68-2.4-10-1.59-22.71.45-29.4,4.09,26.49-9.12,48.38,5.44,62.47,16.41,8.65,2.86,15.89,6.7,24.21,9.78C271.63,442.48,263,438.07,256,432.37Zm-8.08,13.48c-3.32-3.18-10.29-3.58-15.7-5.17A55.26,55.26,0,0,0,247.87,445.85Zm-28.93-6.09c4.43,2,10.39,2.91,15.95,4.05C231.21,441.24,225,440.58,218.94,439.76Zm161.7-9c5.1,2,9.59,4.46,10.32,9.78C392.81,434.79,386.34,431.41,380.64,430.74ZM239.74,430c-4.1-2.77-16.2-8.51-21.52-9.28-10.21-1.43-20.38,1.18-30.13,2.26-8.55,3-22.89,6.25-31.13,1.07,1.53,4.05,6.81,5.24,12,6.45,11.51,1.19,23.49-3.57,33.8-5.11,11.86-1.81,20,3.84,29.14,5.33-13.1-11.54-41.45-5.59-58.81-1.64,8.82-2.31,16.83-4.87,25.73-6.3,22.62-3.6,35.3,7.38,47.3,12.34C244,433.75,242.22,431.6,239.74,430Zm59.32-24.4c-8,5.53-3.54,21.63.73,27.51C297.62,425.25,296.06,413.63,299.06,405.62ZM287.55,421c1.1,1.32-.08,4.35,2.19,4.82.47-2.11.29-8.26-1.69-10.36-1.61,3.13-3.59,6.82-2.7,10.71.32,0,.33.21.72.21C287.11,424.63,285.68,422.13,287.55,421ZM294.4,408c-6.2,3.59-4.14,12.5-1,17.89h.73C292,420.53,293.32,413,294.4,408Z" transform="translate(-9.66 -12.33)"></path>
                            </g>
                            <g>
                                <path class="cls-1" d="M502.4,478.7c-1.5,1.13.75,1.95.47,3.29-3.21,1.53-8.69-.57-11.74-.36C495.38,485.16,510.48,484.5,502.4,478.7Z" transform="translate(-9.66 -12.33)"></path>
                                <path class="cls-1" d="M441.87,456.92c-5.83-4.66-10.28-14.29-3.69-20.86-4.09,2.47-5.19,7.48-6.11,11.84a2.07,2.07,0,0,0,1.21.16C434.15,451.69,438.82,454.92,441.87,456.92Z" transform="translate(-9.66 -12.33)"></path>
                                <path class="cls-1" d="M427.12,446.57c3-5,3.63-12.76,7.89-16.19C429.61,433.55,427.65,440.31,427.12,446.57Z" transform="translate(-9.66 -12.33)"></path>
                                <path class="cls-1" d="M591.8,491.22c-.88,6.09-7.34,8.65-11.24,12.9h-.51c3.27-18.81-13.23-28.7-37.73-27.26,3.94,4.71.34,11.38-5.39,12.71-1.75-1.64.94-2.76.48-4.81-1.2-5.59-16-4.82-23.25-4.21,5,8-5.22,11-15.44,10.29a138,138,0,0,1-42.39-10,103.25,103.25,0,0,1-16.92-8.36c-5.24-3.38-11.35-8.34-13.15-13.48-1.25-3.37-3-7.07-3.27-10.61-1.39-20.8,23.61-35.66,50.23-27.67a34.37,34.37,0,0,1,14,8.87c3.41,8.56,2.51,21-5.39,26.75,22.32,1.43,43.12-9.63,49.75-25.26-10.76-1.55-19.92-6.57-19.62-15.69.72-19.16,46-21.93,53.69-5,2.38-2.51-1.84-4.3-2-6.25,16.81.51,24.44,13.32,21.06,26.7,9.62-3.33,13.37-19.93,4.4-25.41-1.39-.88-6-.68-6.09-2.05-.16-1.7,6.29-2.72,8.32-2.58,8.12.57,16.31,5.85,20.33,9.94,5-1,10.22-2.6,15.71-2.4,20.49.92,27.91,14,48.49,14.61,2.91-1.17,3.69-5.13,0-6.1-1.38.2-2.63,1-3.66,0,.15-5.69,13.3-4.57,16.4-1.28,4.86,8.71-4.66,15.68-14,16.6-15.9,1.48-32.89-5.59-46.29-4.24-8,.75-15.12,4.35-20.58,7,2.05-1,8.56-.1,11.06.05,3.78.2,7.55.67,11.34,1.08,11.75,1.33,21.48,2.66,31.05,8.09,7.47,4.25,16.09,8.46,16.6,16.2.64,9.74-7.91,15.16-18.86,15.16-1.92-1.48-5.56-1.63-6.11-4.09,3.19.15,7.85,1.28,8.55-2.36,1.61-8.55-21.8-8.77-31.37-8.3,3.35,3.38,8.11,12.35,2,15.84-4.37-6.51-12.4-11.18-22.27-13.12-17.14-3.29-31.86,5.53-45.82,5.94C576.28,471.93,593.61,479.27,591.8,491.22Zm-65.16-35.93c7.36-5.7,16.4-11,18.62-19.94-5.63,6.86-11.9,13.26-21.07,17.53,1.81-2.53,5.6-5.13,8.57-7.38,9.56-8.51,21.15-38.44-.23-43.15,17.72,8.24,7.41,37.56-6.17,45.71,6-7.8,16.17-21,14.75-33.72-.55-4.82-7-11.79-15-11.07-5.6.46-12.19,7.74-12.26,12.35-.17,13.17,23.81,7.89,12-.37-2.74.62-3.45,2.83-5.39,4.06-1.43-3.08,3.61-7.44,8.08-6.83,9.16,1.19,9.72,12.72,6.6,18.62-2.22,2.87-2.89,6.35-5.37,9.21-6.15,7.09-23.39,17.23-36.3,18.1-18.83,1.28-41.44-6.05-43.36-18.44-1.14-7.6,6-10.2,12.51-12.93,10.88-1.33,20.9,6.82,12.74,12.36.12-7.22-12.87-5.54-14,.36-1.77,9.63,19.76,9.42,21.78.35,1.77-7.69-2.29-14.25-8.79-17.11-15.74-7-38.32-.16-45.08,8.46-5.67,7.22-4.67,19.05-.48,26.6,5.27,9.47,19.31,18.69,34.51,22.65,13.12,3.38,23.56,7.37,39,7.93-10.8-2.71-21.58-5.48-32.26-8.45-4.4-1.22-30.9-6.92-27.78-12.4,13.4,9,34.43,13.23,52.9,17.73-12.07-4.46-26.85-6.82-37.94-12,13.2,2.57,31.31,10.86,47.27,11.78,4,.27,2.27-4.6,2-5.69-11-3.52-24.1-5.32-36-7.72-18.91-3.91-33.75-10.51-40.9-23.29.05-6.76,2.81-12.8,7.84-16.39-10.22,8.72-5.46,20.34,3.92,26.91,16.25,11.43,47.1,13.58,69.83,17.89,10.88,2.1,22.15-.11,27.45,5.73,1.81-4.82-2.13-7.12-4.91-9.58.67-2.61,7.22-.06,9.82.36,9.22,1.48,17,1.74,24.22,5.17s11.29,8.67,13.74,15.28c.52-7.33-6.83-12-12-16.2,7.6,3.44,14.27,9.84,13.69,19.53,5.21-8.25-4.76-15.74-10.8-19.94,7.29,2.72,12.52,8.56,13.72,16.45,2.12-6.45-4.1-12.86-9.3-16.25,4.85.83,7,5.28,9.81,8.3-2.41-15.37-27.94-14.24-44.62-18.23,1.74-6.41,15.22-7.13,19.88-12.56-16.31,7.07-38.76,16-65.92,14.4-16.8-1-31.2-6.4-40.93-13.27-.53-.42-.66,0-1.45,0-15.17-7.28-14-30.44,7.83-30.8-2.66,1.43-5.71,1.74-8.09,3.13-17.43,10,2.18,31.36,17.39,33.36,27.32,4.91,61.45-1.24,71.55-16.76C538.07,448.37,533.24,453.75,526.64,455.29Zm-19.36,30.95c-2.16.36-7.19-.56-11-.72C498,487.16,504.69,487.57,507.28,486.24ZM632.22,471.9c1.57-6.27-4-11.9-10.74-13.7,5.38-1,12.31-3.69,8.55-8.86-16.11-6.15-28.41,5.17-40.66,8.3-.72-.16-1.44-.36-1.7-.92,2.84-1.64,11.72-10.15,1.44-10-16.2.31-25.1,17.49-39.91,19.59,12.67,4.6,22.72-6.93,32.33-5.74-4.32,2.56-10.48,3.79-14.71,6.46,18.66-1.9,32.34-8.67,48.75-12.36-3.42,2.71-10.3,2.82-14,5.34,3.65.51,9.23-1.6,13.22-1.5-2.45,1.5-8.08,1.5-11.25,3C615.42,462.61,627.38,465,632.22,471.9Zm32.63-1.13c3.79-3-.57-7.59-4.19-8.87A9,9,0,0,1,664.85,470.77Zm3.68-.94a7.16,7.16,0,0,0,1.71-.35c.32-5.89-5.75-8.45-11.28-10.5,5.84.1,10.83,4,13.48,7.74,4.51-9.86-7.72-14.67-14.93-18.66,5.65.92,9.62,4.71,14.7,6.66-7.62-9.13-31.73-15.58-49-9.22,8.21,3.07,23.8-2.51,31.11,2.4-6.63-.87-15.95-1.53-23.51-.2,3.12,2.61,4.85,7.43,1.71,10.86C646.77,460.06,668.92,456.92,668.53,469.83ZM568.31,427.4c1.4,2.41-2,6.67-2,9.23,3.25-4.82,4.61-11.64,7.82-17,1.16,7.07-4.29,13.94-6.11,20.64,4-3.74,4.86-10.6,7.11-15.11,1.23,5.12-3.07,10.81-4.65,15.68,6.76-4.76,10.66-12.4,13-19.93-1.39-8.05-7.05-12.86-15.87-15.33,1.69,2.21,3,7.9-1,9.08C561.22,409,558.26,401.52,546,401c9.71,7.33,20.85,23.47,10.29,34.69-1.61-1.9,1-8.76-5.63-7.37-1.61.35-1.41,2-2.43,3.12,1,25.2-27.27,30.69-55.41,34,6.27,4.61,20.19,1.38,29.66.72C547.55,460.62,563.7,448.37,568.31,427.4Zm-18.64,36.14c7.87-2.51,14.5-5.9,19.61-10.52A146.74,146.74,0,0,0,549.67,463.54ZM598,452c7.19-3.38,16.38-5.28,24.23-8.14C613.39,445.23,602.62,446.77,598,452Zm-118.85-2.61c-12.79,3.54-24.84-3.13-21.07-13.28C450.08,445.8,468.07,455.85,479.11,449.34Zm-19.36-.16c-5.63-3-6.52-12.15-1.44-15.52C451.51,436.88,452,447.28,459.75,449.18Zm11-.2c-12.22-.72-14.13-14.71-1.69-16.41C454.15,430.84,457.05,451.39,470.77,449ZM608,445.29c-2.6-.11-7.26,1.38-10.79,1.84C598.22,449.7,606.15,446.83,608,445.29Zm-42.36,3c8.32-3.08,15.63-6.92,24.22-9.78,14.06-11,36-25.53,62.48-16.41-6.68-3.64-19.43-5.68-29.37-4.09,9.68-4.2,20.46.77,29.62,2.4-3.1-4.3-12.62-3.73-18.11-6.25,19.29-.35,23.1,13.94,46.32,11.28,7.15-1.85,8.08-13.44-3.19-10.92,5.68.56,9.36,6.3,3.66,9.07-5.27,2.5-15.5.72-19.85-1.33-13.16-6.15-39.68-20.81-54.16-5.13-2.94-.61-.36-3.63-.72-5.58-1.06-5.64-10.89-10-18.13-8.46,15.84,6.25,7.24,22.5-1.25,29.31C580.1,438.07,571.46,442.48,565.62,448.26Zm45.28-7.58c-5.38,1.59-12.33,2-15.68,5.17A54.43,54.43,0,0,0,610.9,440.68Zm-2.69,3.13c5.55-1.14,11.51-2.06,16-4.05C618.16,440.58,611.9,441.24,608.21,443.81Zm-156.06-3.29c.72-5.32,5.22-7.78,10.29-9.78C456.74,431.41,450.31,434.79,452.15,440.52ZM597,435.14c11.95-5,24.67-15.94,47.27-12.34,8.89,1.43,16.92,4,25.72,6.3-17.33-4-45.69-9.9-58.79,1.64,9.09-1.49,17.28-7.14,29.13-5.33,10.31,1.54,22.36,6.3,33.84,5.11,5.2-1.21,10.47-2.4,12-6.45C677.9,429.25,663.56,426,655,423c-9.74-1.08-19.93-3.69-30.14-2.26-5.33.77-17.4,6.51-21.53,9.28C600.85,431.6,599.05,433.75,597,435.14Zm-53.68-2c4.29-5.88,8.71-22,.73-27.51C547,413.63,545.47,425.25,543.3,433.13Zm13.72-6.8c.42,0,.42-.21.72-.21.88-3.89-1.09-7.58-2.69-10.71-2,2.1-2.17,8.25-1.71,10.36,2.3-.47,1.12-3.5,2.23-4.82C557.44,422.13,556,424.63,557,426.33Zm-8.06-.41h.71c3.16-5.39,5.23-14.3-1-17.89C549.77,413,551.17,420.53,549,425.92Z" transform="translate(-9.66 -12.33)"></path>
                            </g>
                            <g>
                                <path class="cls-1" d="M178.59,359.79c-4.56-16.53-16.5-30.14-30.44-34.17C160.38,331.44,173.42,344.06,178.59,359.79Z" transform="translate(-9.66 -12.33)"></path>
                                <path class="cls-1" d="M173.21,358.5c.31-.07.56-.15.79-.22-2-11.91-10.94-20.92-19.54-25C161.16,338.83,171.21,345.87,173.21,358.5Z" transform="translate(-9.66 -12.33)"></path>
                                <path class="cls-1" d="M126.12,367.88c-1.62-5-7.6-9.17-8.69-16.69C116,357.54,121.86,364.61,126.12,367.88Z" transform="translate(-9.66 -12.33)"></path>
                                <path class="cls-1" d="M127.86,365.18c-2.75-4.09-6.42-8.36-7.13-13.74C118.1,355.46,123.75,363.47,127.86,365.18Z" transform="translate(-9.66 -12.33)"></path>
                                <path class="cls-1" d="M169.25,353.52c-.14-4.09-4.29-10.16-8.69-11.43A26,26,0,0,1,169.25,353.52Z" transform="translate(-9.66 -12.33)"></path>
                                <path class="cls-1" d="M124.68,355.3c-1.26,1.6,1.5,5.1,2.85,6.13C129.23,360,125.71,356.78,124.68,355.3Z" transform="translate(-9.66 -12.33)"></path>
                                <path class="cls-1" d="M156.91,327.36c.44-.07.38-.33.68-.48-3-2.25-6.17-4.25-10.4-4.36C149.64,325.46,154.34,324.5,156.91,327.36Z" transform="translate(-9.66 -12.33)"></path>
                                <path class="cls-1" d="M57.88,240.57a17,17,0,0,0,2.38-6.16c-2.12.56-2.06,3.88-3.21,5.53C57.1,240.59,57.71,240.18,57.88,240.57Z" transform="translate(-9.66 -12.33)"></path>
                                <path class="cls-1" d="M121.64,326.65c15.16-9.52,35.29-7.74,48.59-4,4.88,5,10.74,8.12,15,13.55,21,27.18,2.37,57-16.47,70.85-.84,1.07-1.9,2.08-2.71,3.18a128.73,128.73,0,0,1-21,9c-3.74-.31-7.56.95-11.26,1.37-26.84,2.86-59-10.29-78-24.45-20.21-15-39.95-49.92-42.76-80.74-.9-1.54-.34-2.4-.29-3.51-.24-.9-.9-1-1.17-1.86.17-.83.79-1.44.68-2.41-.26-1-1.22-.76-1.32-2.12-1.73-16.21-1.44-34.48-.11-51.14,4.13-10.32,5.54-22.12,10.34-32.57,10.23-22.28,27.18-41.47,47.13-59.18,41.85-37.15,130.29-45.66,166.28-15,10,9.69,17.44,28.1,3.4,34.3-16,7.08-25.18-13.25-40.89-9-.64-2.65,1.93-5.52,2.6-8.2-20.59-11.45-52.5-12.5-82.51.17.17,1.24-1.29,1.6-.77,3,19.14.2,42.45,4.63,44.08,27.8-2.27,3.23-5.65,8.58-10.8,10.59-3.09,1.18-11.89.75-12.87-1.76-.36-1.1,1-2.57.92-3.54-1-7.38-9.63-9.64-15.89-9.23,1,7-3.46,11.07-10.63,13.84-1.67-.1-1.92-2.61-3.53-2.83C69.94,217.4,64.62,250.09,57,280.5c-10.21,37.57,17.43,105.67,64.92,94.83C101.71,363,105.13,337.07,121.64,326.65Zm62.46,33.87c-.58-1.31-.63.6-1.63.41-3.74-16-13.63-23.91-22.52-32.2,6.6,2.56,12.08,10.43,17.58,16.21-4.69-12.31-15.55-17.3-24.57-23.39-24.51-1.17-46.68,12.76-39.19,35.33.79-1.45-.52-4.09.6-5.42,1.32,7.25,7.24,13.87,10.91,18.27-3,1-3.67-4.14-5.79-3.37a26.16,26.16,0,0,0,21.25,11.31c11.38.19,20.72-14.47,18.46-23.65-1.24-5.16-6.92-12.18-11.39-13.51-18.44-5.33-28.24,22.2-6,19.26,1-1.59,2.35-3,1.39-5.62-1,.28-3.52,2.29-5.17,1.17a4.12,4.12,0,0,1,0-5.26c3.82-.75,6,1.53,8,3.89.86,11.62-13.46,13.4-18.6,3.9-8.46-15.74,17.93-25.79,27.16-14.18.53.32,1.58-.31,2.05,0,1.87,4.51,5.89,4.61,8.1,7.73,16.19,22.95-.33,48-27.41,53.39C106.23,411,84,397.38,63.06,382.08c-15.69-11.51-22-38.6-28-57.94-3.25-10.52-4.84-22.91-3-31.2.37-.61-.23-.9-1-.57-.34-.83,1.55-.56,1.25-1.39-.19-1.09-.66.34-1.21-.23,2-37.75,10.71-72,32.41-99.59,26.44-24.3,90.36-48.08,127.14-34-14.28-8.41-37.25-6.5-56.13-3.06,9-4.3,20-4.05,30-4.74-13.73-3.25-30.66,1.89-46.05,4.68,36.78-14.22,71.23-5.88,96.15,9.37C187.29,140.32,135.9,140,94.07,158.7c32.9-18.6,82.69-19.48,110-6.23,6.57,3.16,11.62,8.24,18.51,10.16C195.89,139.79,152.46,135.9,106.93,150c5.31-3.63,14-5.21,21.4-6.88-46.44,5.16-72.72,39-87.87,65.76.22.64.48,1.23.26,1.61a127.24,127.24,0,0,0-15.89,45.89c-.75,4.05-.16,11.64-5.61,13.33-4.18-18.94,8.55-38.23,15.72-54.66,9.84-22.53,30.43-46.75,55.86-61.8,12.74-7.59,27.67-11.91,42.79-13.69,22.11-1.07,44.86-3.18,62.32,4.92,7.89,1.44,14.47,4.4,22.6,9.33,6,3.7,19.92,11.29,14.12,18.26a10.39,10.39,0,0,0-1.67-.67c-.67-1.94,1.56-2.45,1.59-4-1.93-2.16-4.71-4-8.18-2.79-10.5,3.64,1.87,16.47,8.66,15.85,16.18-1.3,11-17.16,4.09-25.84-3.23-4-11.57-9.78-15.77-12.56-16.89-11-54.67-12.26-79.83-8.54-20.66,3.11-42.77,11.82-57.58,20.18S57.64,176.55,47,187.86c-18.43,19.69-28.31,44.81-33,72-2.91,16.46-3.78,34.23.54,54.08C26.16,368,51.82,396,92.41,412.77a84.9,84.9,0,0,0,71-4c12.26-9.26,22.25-19.71,23.7-34.5C184.34,371,186.73,365.06,184.1,360.52Zm-18.7,17.73c-21.31,28.91-79.17,25.45-95.82.42a47.4,47.4,0,0,1-18-25.69c3.17,2.73,3.35,8.37,7.09,10.16.11-4.87-5.26-12-5.07-17.3,9.6,30.27,34.31,46.5,63.73,43.13-32.56-1.48-59.19-20.73-66.49-59.51,12.24,41.25,40.13,65.74,82.81,54.3-41.33,5.81-72-16.53-81.3-60.44,9.24,26.95,22.59,50.82,45.76,56-32.15-12.42-55.81-67.82-44.19-101,1.1-.22,1.35.55,1.87-.5-.29-1.61-.79-.36-1.75-.94,3.14-19.11,10.76-37.23,20-53.84-10.93,7.62-13.23,21.51-17.4,33.33C58.74,229.57,79,212,103.29,196.7c-10.83,1.5-19.76,14.19-29.42,19.75-3.44,3.86-6.86,8.81-10.42,11.89,7.09-13.3,22.92-23.94,36.86-34.42-7-2.95-15.87,8.37-20.77,13-9.39,8.82-20.68,17.34-24.59,27.52,4.74-17.54,24.76-29.07,38.6-42.6A156.14,156.14,0,0,0,52,229.78c6.2-15.62,24.47-26.84,37.53-39.57-14.81,7-24,20.59-35.44,30.77,6-11.47,18.6-21.26,29.2-31-8.06,3.44-15.7,10.52-22.6,17.38-17.79,17.53-21,45.94-26.3,70.11a4.28,4.28,0,0,0,.9,1.94c.21,9.88-4.06,20.7.26,31.92,1.5,21.4,11.1,45.82,22.44,62.24,15.65,12.88,35.49,29.24,58.28,30C137.05,404.29,162.12,395.75,165.4,378.25Zm-8,1.3c-8.8,9.25-28.69,15.64-43.56,17.49C128.51,398.38,152,391.12,157.38,379.55Zm-63.75,13c1.19,0,.58-1,1.76-1,9.39,4.58,25.4,4.91,37.64-.79-32.13,4.23-56.87-4.54-73.88-26.93C67,378.28,80.17,386.74,93.63,392.59Zm14.13,3.89a5.26,5.26,0,0,0-3.52-1C105,396.55,106.28,396.71,107.76,396.48Zm-4.29-.73a1.82,1.82,0,0,0-2.84-.66C101.24,395.92,102.32,395.83,103.47,395.75Zm32.25-9.24c.29.52,1.32-.29,2-.3C137.12,385.69,136.34,386.11,135.72,386.51Zm-9.38,2.5c0-.79-.68-.37-.86-.89-.9.1-.8.73-1.83.75A3.68,3.68,0,0,0,126.34,389Zm-3.58-.17c-.25-.72-1.26-.1-2,.05C121,389.59,122,389,122.76,388.84Zm-23.84,5.64a.82.82,0,0,0-1.55-.42A1.21,1.21,0,0,0,98.92,394.48Zm87.89-29.23c3.37-16-11.4-35-23.73-39.53C174.66,333.12,183.49,350.19,186.81,365.25Zm-69.66-1.56c.48-.08.35-.41.72-.49-.49-1.2-.87-2.63-2.25-2.39C115.09,362.24,117,362.14,117.15,363.69Zm4.95-193.32c14.61.83,33.34,21.16,18.52,33.36,10.4,4,20.31-6.46,16.45-15.75C151.41,174.54,134.34,170.08,122.1,170.37Zm-39.53,43.2A28.89,28.89,0,0,0,76,220.25C78.71,219.26,82.33,215.87,82.57,213.57Zm57.23-14c2.53-9.1-12-10.57-18.48-12.95,7.69-1.61,16.13,2.48,21.45,7.74-.45-8-14.71-8.62-22.4-10.51,8.09-3.12,16.14,2.73,22.58,3.8-5.64-6-15.76-6.38-24.8-5.11,1.45,1.65,2.73,5.14,3.25,7.08C129.32,189.76,136.33,191.55,139.8,199.53Zm76.67-24.21c.91-3.09.93-6.59,2.53-9.23-5-.54-11.1.21-17.23.74-.75,1.25-1.62,2.43-1.31,4.26C206.23,171.79,211.85,172.62,216.47,175.32ZM74.2,188c16.93-2.69,29.68,2.07,37.66,15.21a45.23,45.23,0,0,0,6.21-4.19C125.54,174.4,84.94,172.83,74.2,188Zm16.22,20.15c2.39-1.75,6-2.95,7.66-5.06C95.51,203.91,91.92,206,90.42,208.13Zm15.37-8.25c-.69-1.53-2.6.39-3.24.86C103.33,200.87,105.74,201,105.79,199.88ZM57.35,208c5.43-5.65,12.54-12.2,18.56-18.19C65.39,192.81,61.78,201.09,57.35,208ZM208.42,164c-1-1-1.88-2.36-3.41-2.45C205,162.85,206.88,164,208.42,164Zm-68.83,17.91c-6.06-4.07-16.58-4.54-24.91-2.07A115.88,115.88,0,0,1,139.59,181.91Zm-6.9-5c-6.27-4.52-17.64-2.24-26.9-.2C113.17,179.83,124.84,174.93,132.69,176.94Zm-13.54-4.09c-7.11-2.1-19.35.21-26.69,3.31C100.62,177.26,109.13,173,119.15,172.85Zm57.42-22.31c-.77-.83-2.23-.4-3.36-.5A4.17,4.17,0,0,0,176.57,150.54Zm-36.37-8.68c-.78-1-3.36-.38-4.13,0C137.37,142,138.5,142.42,140.2,141.86Zm-4.27.36c-1.31-1.14-3.73-.17-5.61-.19C131.32,143.77,134.24,142.78,135.93,142.22Z" transform="translate(-9.66 -12.33)"></path>
                            </g>
                            <g>
                                <path d="M368.78,157.39h-3.24c-3.58-22.9-15.27-28.74-24.2-28.74-10.88,0-18.19,7.63-18.19,14.61,0,8.93,8.61,13.48,21.28,19,20.13,8.77,28.74,15.1,28.74,32.48,0,15.26-8.93,31-34.43,31A74.9,74.9,0,0,1,309,220.07l-.49-29.72h3.08c1.3,8,5.36,32.16,28.26,32.16,13.31,0,22.08-9.26,22.08-18.52,0-11.52-11-16.72-22.57-21.59C322.34,175.25,311,168.43,311,152c0-14.94,10.88-26.79,30-26.79,12,0,21.1,3.89,27.76,6.82Z" transform="translate(-9.66 -12.33)"></path>
                                <path d="M429.35,128.16v3.25h-13V221h13v3.25H384.53V221h13V131.41h-13v-3.25Z" transform="translate(-9.66 -12.33)"></path>
                                <path d="M525.32,128.16v3.25H513.14L490.41,166l31.5,55h11.2v3.25H488.78V221h11.86l-21.27-37.67-24,37.67h11.86v3.25H438.93V221h11.69l26.47-41.4-27.44-48.23H438.12v-3.25h45.14v3.25h-12.5l17.54,31,20.13-31H496.9v-3.25Z" transform="translate(-9.66 -12.33)"></path>
                                <path d="M239,269.28h-2.24c-2.46-15.78-10.52-19.81-16.68-19.81-7.5,0-12.53,5.26-12.53,10.07,0,6.16,5.93,9.29,14.66,13.1,13.88,6,19.81,10.41,19.81,22.38,0,10.52-6.16,21.38-23.73,21.38a51.56,51.56,0,0,1-20.48-3.92L197.5,292h2.13c.9,5.49,3.69,22.16,19.48,22.16,9.17,0,15.22-6.38,15.22-12.76,0-7.94-7.62-11.52-15.56-14.88-11.75-4.93-19.59-9.63-19.59-20.93,0-10.3,7.5-18.47,20.71-18.47,8.28,0,14.55,2.69,19.14,4.7Z" transform="translate(-9.66 -12.33)"></path>
                                <path d="M311.89,249.14v21.48h-2.24c-.9-5.93-2.69-19.25-16.12-19.25h-6v61.78h9.17v2.24H265.33v-2.24h9.17V251.37h-5.37c-14.1,0-15.89,13-16.79,19.25h-2.23V249.14Z" transform="translate(-9.66 -12.33)"></path>
                                <path d="M318.6,282c0-21.82,14.66-34.92,33.46-34.92,20.6,0,33.8,15.11,33.8,34.7,0,22.94-16.67,34.58-32.9,34.58C327.89,316.4,318.6,297.93,318.6,282Zm52.71-.45c0-23.39-6.15-32.23-19.14-32.23-16.11,0-19,13.54-19,32.23,0,14.66,1.56,32.57,18.24,32.57C366.72,314.16,371.31,303.19,371.31,281.59Z" transform="translate(-9.66 -12.33)"></path>
                                <path d="M426.15,249.14c10.75,0,20.82,4.36,20.82,15.22,0,12.08-12,14.55-17.12,15.44V280c12.31,2.57,16.45,5.7,17.34,20.48.68,10.63,3.25,12.76,10.52,13.21V316h-11c-12.32,0-12.76-10.74-13-17.12-.22-6.72-1.45-12.43-5-15.11a16.65,16.65,0,0,0-8.17-2.35h-6.38v31.78H423v2.24H392v-2.24h9.17V251.37H392v-2.23Zm-12,2.23v27.76h6c9.63,0,12.76-6.49,12.76-14.44,0-12.64-7.5-13.32-14.21-13.32Z" transform="translate(-9.66 -12.33)"></path>
                                <path d="M519.49,249v18.36h-2.12c-2.8-13.54-11.31-16.12-17-16.12h-15v29.32h4.36c12.76,0,12.87-9.4,12.87-12.75h2.35v27.08h-2.23c-.45-9.4-6.39-12.09-12-12.09h-5.37V313h13.09c17,0,20.37-11.3,22.16-18.8h2.24v21.15H463.64v-2.24h8.73V251.26h-8.61V249Z" transform="translate(-9.66 -12.33)"></path>
                                <path d="M559.56,249.14v2.23h-9.07l16.57,27.09,15.78-27.09h-8.73v-2.23H594v2.23h-8.28l-17.57,30.34v31.44h9.28v2.24H545.9v-2.24h9.29v-30.1l-19.36-31.68h-8v-2.23Z" transform="translate(-9.66 -12.33)"></path>
                                <path d="M638.58,269.28h-2.23c-2.47-15.78-10.53-19.81-16.68-19.81-7.5,0-12.54,5.26-12.54,10.07,0,6.16,5.93,9.29,14.66,13.1,13.88,6,19.82,10.41,19.82,22.38,0,10.52-6.16,21.38-23.73,21.38a51.51,51.51,0,0,1-20.48-3.92L597.06,292h2.13c.89,5.49,3.69,22.16,19.47,22.16,9.18,0,15.22-6.38,15.22-12.76,0-7.94-7.61-11.52-15.55-14.88-11.76-4.93-19.59-9.63-19.59-20.93,0-10.3,7.5-18.47,20.71-18.47,8.28,0,14.54,2.69,19.13,4.7Z" transform="translate(-9.66 -12.33)"></path>
                            </g>
                            <g>
                                <path d="M308.14,369.24a18,18,0,0,1,17.59-17.51c7.07,0,11.78,4.49,11.78,11.26,0,9.2-8.54,17.15-17.81,17.15C310.87,380.14,308.14,374.55,308.14,369.24Zm16.57,6.85c3.38-3.68,5.66-15.38,5.66-17.81a4.91,4.91,0,0,0-4.64-5.08,5.85,5.85,0,0,0-3.9,1.84c-3.38,4-6.55,15.6-6.55,18.77,0,1.91,1,4.86,4.42,4.86C320.8,378.67,322.57,378.45,324.71,376.09Z" transform="translate(-9.66 -12.33)"></path>
                                <path d="M368.94,374.69a5.13,5.13,0,0,0-.22,1.4c0,.44.22,1,.74,1,1,0,4-2.58,6.62-6.41l1.4,1c-1.84,2.72-5.74,8.54-11.63,8.54-3,0-4.35-1.62-4.35-4.12a11.52,11.52,0,0,1,.45-2.73L366,359a7.69,7.69,0,0,0,.45-2.5,2.2,2.2,0,0,0-2-2.43c-3.9,0-10,7.95-10.53,9.65l-4.56,15.75H342l7.43-25.55h-5.37l.29-1.47h12.89l-1.62,5.45.14.15c1.84-2.29,5.52-6.33,11.34-6.33,2.21,0,6.26.73,6.26,5.89a12.48,12.48,0,0,1-.59,3.38Z" transform="translate(-9.66 -12.33)"></path>
                                <path d="M430.69,348.27h-1.18c-1.91-8.91-6.55-12.22-10.6-12.22-4.49,0-8.46,3.68-8.46,7.58,0,2.8,1.91,4.86,7.87,7.95,4.05,2.06,10.16,5.45,10.16,13.76,0,7.73-5.81,14.8-16.56,14.8-8.32,0-12.66-3.46-14.65-5.08l2.51-10.38h1.32c1.55,13,9.5,14,11.85,14,5.08,0,10.75-3.83,10.75-9.35,0-4.49-3.46-7.36-9.35-10.6a20.66,20.66,0,0,1-5-3.46,11.07,11.07,0,0,1-3.38-8.54c0-7.29,5.59-12.15,13.91-12.15,7.21,0,10.53,2.73,12.37,4.27Z" transform="translate(-9.66 -12.33)"></path>
                                <path d="M435,369.24a18,18,0,0,1,17.59-17.51c7.07,0,11.78,4.49,11.78,11.26,0,9.2-8.54,17.15-17.81,17.15C437.75,380.14,435,374.55,435,369.24Zm16.56,6.85c3.39-3.68,5.67-15.38,5.67-17.81a4.91,4.91,0,0,0-4.64-5.08,5.83,5.83,0,0,0-3.9,1.84c-3.39,4-6.55,15.6-6.55,18.77,0,1.91,1,4.86,4.42,4.86C447.69,378.67,449.46,378.45,451.59,376.09Z" transform="translate(-9.66 -12.33)"></path>
                                <path d="M487.36,335.61l-5.89,23.55.15.15c2-2.73,5.67-7.58,12.07-7.58,4.05,0,6.55,1.69,6.55,5.67a14.13,14.13,0,0,1-.73,4.26L495.9,374.1a4.79,4.79,0,0,0-.29,1.62c0,.59.14,1.33.88,1.33,1,0,3.53-1.92,6.4-6.26l1.55,1c-3.83,4.78-6.7,8.39-11.85,8.39-2.8,0-4.27-1.4-4.27-4.05a15.91,15.91,0,0,1,.66-4L492.51,360c.74-2.43.81-2.72.81-3.53a2.24,2.24,0,0,0-2.28-2.36c-4.19,0-10.52,8.76-11.11,11.26l-3.46,14.14h-7.36l10.52-42.4h-4.27l.37-1.47Z" transform="translate(-9.66 -12.33)"></path>
                                <path d="M507.08,369.24a18,18,0,0,1,17.6-17.51c7.06,0,11.78,4.49,11.78,11.26,0,9.2-8.54,17.15-17.82,17.15C509.81,380.14,507.08,374.55,507.08,369.24Zm16.57,6.85c3.38-3.68,5.66-15.38,5.66-17.81a4.9,4.9,0,0,0-4.63-5.08,5.83,5.83,0,0,0-3.9,1.84c-3.39,4-6.56,15.6-6.56,18.77,0,1.91,1,4.86,4.42,4.86C519.75,378.67,521.51,378.45,523.65,376.09Z" transform="translate(-9.66 -12.33)"></path>
                            </g>
                            <g>
                                <path class="cls-1" d="M311.27,53.66c7.24.1,14,3,21,4.06C325,58.22,317.47,55.51,311.27,53.66Z" transform="translate(-9.66 -12.33)"></path>
                                <path class="cls-1" d="M317.4,59.76a15.71,15.71,0,0,1,9.69,2.48C323.68,62.46,320.62,60.68,317.4,59.76Z" transform="translate(-9.66 -12.33)"></path>
                                <path class="cls-1" d="M151.09,119.42c6.19,4.27,19.12-2,26.33-6.24,3.69,7.16,11.82,14.29,19.54,16.18,15.36,6.88,57.21,4.25,65.74-21.46,4.93-14.71-24.66-19.74-26.47-2.24,2.8-1.46,9.55-4.74,9.34,1.71-7.94,9.56-19.93,1.71-27.85-.39,4.46-3.52,11.55-5.14,13.44-9.27-3-1.39-6.16-2.78-8-5.91,6,2.13,18.53-4.6,21.64-11.52-2.91-.07-7.61-.81-7.44-4.49,14.19-11.8,30.43-9.05,44.07-7,7.36,1.14,18.21,2.28,22.06,8.34-10,6.37-20.75,14.89-16.94,22.42-.48.08-1.24.11-1.37.78-.35,9.17,12,12.77,19.78,11.41,8-2.92,16.19-18.47,5.34-13-7.24-5.39,1.12-15.15,10.08-17.93-2.06,5.81.6,13.69,7,17.71.75-10.48,12.74-17.6,24.15-23.09a4.46,4.46,0,0,1,2.45.78,137.05,137.05,0,0,0,35.64-10.91c5.39-6.12,11.15-11.94,18.09-16.65,8.07-10.68,9.92-21.49,12.6-32.26a22.61,22.61,0,0,1-.68-3.41,7.79,7.79,0,0,1-2.26-.29c-.12,3.89-.32,9.06-1.63,11.51-4.78,9-21.88,20.51-32.45,23.32-15.07,4-29.71.57-43.32-3.61-25.86-14.9-54.32-16.18-84-11.08-.42-.68-1.09-.25-1.6-.64-14.08,2.28-28.31,5.09-41.4,1.92.84,4.1,5.22,7.1,8,10.05-14.51,6.61-26.83,14.55-38.48,26.06-14.09,13.9-8.95,31.58-30.59,39.06C143.68,107.2,146.44,116.24,151.09,119.42ZM262.67,34.26c-12.88,4.39-25.66,8.1-37,4.25C237.15,38.08,250.41,35.91,262.67,34.26Zm99,36.65c2.75-7.1,14.29-5.35,20.84-9-3.35,3.59-9.06,4.14-13.23,6.13,6.45.64,14-4.66,20.87-6.31-8.8,6.63-18,7.49-26.64,10.49C363,71.26,362.33,71.34,361.68,70.91ZM301.39,98.38c1,3.89,5.78,6.1,9.77,4.85.23,1.36-1.12,3.11-2.48,4.07C299.39,113.76,294.63,105.4,301.39,98.38ZM242.06,68.92a12.71,12.71,0,0,1,7.83-2.25C247.39,66.8,244.25,70.3,242.06,68.92ZM239.3,67C262,55.4,284,63.31,305.35,65.24c-18.93-5.78-40-7.87-61.45-3.39,27.09-8.73,51-.57,75.87,2.78-22-6.95-46.42-9.44-70.67-7.56,21.49-4.88,41.15,0,61.57.86-17.2-4.49-35.36-3.88-53.17-5.16,18-2.64,35,.46,52.41.89-14-4.43-30.53-2.68-45.58-4.24C291.48,47.07,317.47,51,343,57.57c-15.05-6.26-33.8-8.58-50.83-10.44,5-.82,9.6,1,14.54.64-4.13-2.13-10.26-1.74-15.22-2.56C330.06,43.28,366.54,70.59,410.16,34c-5.93,9.3-21,15.18-30,20,8.7-1.49,18.37-8,28.07-14.58.15,2.82-6.4,6.88-10,9.3-12.52,8.38-28.46,11.05-39.34,14.9,14.15-1.82,28.83-6.56,44.45-16.39a80.21,80.21,0,0,1-37.5,18.08c-7.94,1.14-16.63,12.14-24.15,11,.4-5.7,11.84-7.91,11.22-12.12C336.06,68.56,334.58,84,326.24,93.54c-5.69-4-6-12.58,1-17.47-.65-1.18-1.65-.49-2.44-.82-14.77,8-28,21.35-29,33.3-16.09-2.74-7-24.81,9.89-28.84,3.75-1.6,9-1.49,11.93-4.85-16.67-3-33-8.16-49.93-9.83,10-.58,20.76,2.34,31.13,2.49C280.52,63.14,260.32,60.47,239.3,67Zm35-20.43a14.38,14.38,0,0,1,7.42-.07C279.13,47.39,276.76,46.92,274.34,46.56Zm-27.29,64c6.33-4.7,1.85-11.72-4.56-10.75-.21-1,3.57-3.51,4.77-3.39C253.35,99.21,255.69,107.2,247.05,110.54Zm-67.66-4.23c2.07,3.2,3.43,7.58,7.13,9.82-1.69-3.67-6.37-8.23-5.63-12.33,1.38,2.54,3.22,8.81,7.55,10.34-5-6.31-8.12-14.22-4.47-21.3-1.09,9.18,2.09,18.7,11.11,26.44,1.38-1.07-1.86-4.35-2.93-5.56-8.43-9.49-8.08-20.53-2.23-30.59-7.46,15.47,3.84,40.78,25.54,39.57-17-1.4-29.25-23.45-21.42-36.5-1,8.27-1.85,20.35,9.12,25.76-11.08-10.69-9.7-24.59-3.51-36.52-1.9,8.52-4.91,17.85.47,26-.54-6.11-3.48-13.06-.3-18.58-.14,5.45,6.28,10.87,11.77,10.87C201.5,86.16,202,74.4,206.73,65.13A151.37,151.37,0,0,1,291,33c-12.74,2.46-26.51,5.31-39.34,11.08,16.41-4.63,32.94-10.15,48.49-10.34,18.28.65,34.8,10.67,52,17.11-31.26-1.6-68.05-21.06-104,4.85C241,60.78,223.8,76.32,231.44,83.24c1.88,1.71,4.65,1.18,7.31.6C230.94,94,216.89,91,216.5,80.21c.5-.57.15-1.14,1.17-1.72-3-7,10.3-12,15.36-18.52,2.27-2.86-.92-4.6-4-2.57-13.44,8.91-17.79,19.78-14.5,30.47,4.69,3.78,8.38,7.91,13,10.73-8.33,5.6-15.79,6.41-22.06.82,5.19,11.4,22.62,13.76,33.47,14.62,6.68-.89,13.54-3.32,16-10.16,1.61,4.91-3.84,9.88-10.34,12.76,9.4-.79,14.25-11,11.35-17.28,8.59,11.18-14.44,24.13-25.86,25,10.59.79,27.21-8.72,29.89-19.74,2.25,9.8-17.7,20.82-28.64,24.13C212.86,134.35,180.82,129.43,179.39,106.31ZM205.88,90c-4.9-1.89-4.56-7.71-4.82-11.09.29-.28.46-.11.75-.32A22.28,22.28,0,0,0,205.88,90Zm-13.19-6c-.88-2.74,1.93-6.8,5-10C196.76,77.33,193.5,80.64,192.69,84Zm-43.16,30.73c22-4.63,19.37-25.73,29-37.84,18.3-23.11,46.9-34.51,69.92-36.51a94.43,94.43,0,0,1,24.11-7.2c-11.48,3.81-22.91,7.42-34.62,12.59-27.54,5.8-53.44,36.1-59.16,56.45-3.76,7.52-12.25,14.15-21.18,16.54C154.63,118.85,152,117.46,149.53,114.71Z" transform="translate(-9.66 -12.33)"></path>
                                <path class="cls-1" d="M191.26,87c.36.42.28.81-.21,1.24C190.69,87.76,190.77,87.33,191.26,87Z" transform="translate(-9.66 -12.33)"></path>
                                <path class="cls-1" d="M273.49,32.7a5.24,5.24,0,0,1,3.69-.43C275.88,32.84,274.56,33.38,273.49,32.7Z" transform="translate(-9.66 -12.33)"></path>
                                <path class="cls-1" d="M239.21,70.3c.67-.47,1.38-1.24,2-1.22C241.54,69.69,239.68,70.84,239.21,70.3Z" transform="translate(-9.66 -12.33)"></path>
                                <path class="cls-1" d="M386.47,60.22c.32.42-.43,1-.89,1C385.28,60.57,385.93,60.54,386.47,60.22Z" transform="translate(-9.66 -12.33)"></path>
                                <path class="cls-1" d="M390,58.07c.63.43-.19,1.11-.73,1.07C388.94,58.79,389.44,58.43,390,58.07Z" transform="translate(-9.66 -12.33)"></path>
                            </g>
                        </svg>