<svg version="1.1" xmlns="http://www.w3.org/2000/svg" xmlns:xlink="http://www.w3.org/1999/xlink" x="0px" y="0px" viewBox="0 0 382.68 107.72" style="enable-background:new 0 0 382.68 107.72;" xml:space="preserve">
<style type="text/css">
	.st0{display:none;}
	.st1{display:inline;}
	.st2{fill:#FFFFFF;}
	.st3{fill:#1E1E1C;}
</style>
<g id="BLACK">
	<g>
		<g>
			<path class="st3" d="M133.82,70.18h1.09l3.82,9.81h-1.23l-1.02-2.65h-4.23l-1.02,2.65h-1.26L133.82,70.18z M132.68,76.22h3.36
				l-1.68-4.36L132.68,76.22z"></path>
			<path class="st3" d="M156.45,72.28c0,0-0.91-1.15-2.7-1.15c-2.13,0-3.59,1.86-3.59,3.95c0,2.09,1.46,3.95,3.59,3.95
				c1.78,0,2.83-1.3,2.83-1.3l0.8,0.81c0,0-1.33,1.61-3.63,1.61c-2.83,0-4.85-2.24-4.85-5.07c0-2.83,2.02-5.07,4.85-5.07
				c2.3,0,3.52,1.5,3.52,1.5L156.45,72.28z"></path>
			<path class="st3" d="M164.41,70.18h1.09l3.82,9.81h-1.23l-1.02-2.65h-4.23l-1.02,2.65h-1.26L164.41,70.18z M163.27,76.22h3.36
				l-1.68-4.36L163.27,76.22z"></path>
			<path class="st3" d="M174.56,70.18l3.38,5.48l3.36-5.48h1.13v9.81h-1.18v-7.68l-3.35,5.45l-3.35-5.43v7.66h-1.18v-9.81H174.56z"></path>
			<path class="st3" d="M188.7,70.18l3.38,5.48l3.36-5.48h1.13v9.81h-1.18v-7.68l-3.35,5.45l-3.35-5.43v7.66h-1.18v-9.81H188.7z"></path>
			<path class="st3" d="M215.96,74.61c0,2.19-0.62,3.17-0.62,3.17l1.71,1.54l-0.71,0.84l-1.68-1.48c-0.69,0.85-1.95,1.48-3.29,1.48
				c-1.93,0-3.12-1.13-3.12-2.31c0-1.08,0.39-1.71,2.1-3.04c-1.12-1.01-1.47-1.68-1.47-2.55c0-1.06,0.88-2.24,2.47-2.24
				s2.46,1.19,2.46,2.24c0,0.83-0.28,1.34-1.75,2.56l2.45,2.21c0,0,0.36-0.46,0.36-2.42H215.96z M213.87,77.95l-2.7-2.41l-0.04,0.04
				c-1.18,0.97-1.71,1.44-1.71,2.12c0,0.98,1.02,1.36,1.95,1.36C212.35,79.06,213.33,78.63,213.87,77.95z M211.27,74.1
				c1.23-1.08,1.36-1.21,1.36-1.85c0-0.6-0.53-1.2-1.29-1.2c-0.81,0-1.29,0.63-1.29,1.2C210.05,73.15,210.62,73.46,211.27,74.1z"></path>
			<path class="st3" d="M233.81,70.18h1.18v9.81h-1.18v-4.47h-4.92v4.47h-1.18v-9.81h1.18v4.22h4.92V70.18z"></path>
			<path class="st3" d="M249.15,75.08c0,2.83-2.02,5.07-4.85,5.07s-4.85-2.24-4.85-5.07c0-2.83,2.02-5.07,4.85-5.07
				S249.15,72.25,249.15,75.08z M247.89,75.08c0-2.09-1.44-3.95-3.59-3.95s-3.59,1.86-3.59,3.95c0,2.09,1.44,3.95,3.59,3.95
				S247.89,77.17,247.89,75.08z"></path>
			<path class="st3" d="M262.71,75.08c0,2.83-2.02,5.07-4.85,5.07s-4.85-2.24-4.85-5.07c0-2.83,2.02-5.07,4.85-5.07
				S262.71,72.25,262.71,75.08z M261.44,75.08c0-2.09-1.44-3.95-3.59-3.95s-3.59,1.86-3.59,3.95c0,2.09,1.44,3.95,3.59,3.95
				S261.44,77.17,261.44,75.08z"></path>
			<path class="st3" d="M267.18,70.18h2.54c2.05,0,3.35,1.08,3.35,2.96s-1.3,2.96-3.35,2.96h-1.36v3.89h-1.18V70.18z M269.65,74.97
				c1.33,0,2.24-0.59,2.24-1.83c0-1.25-0.91-1.83-2.24-1.83h-1.29v3.67H269.65z"></path>
			<path class="st3" d="M278.55,74.4h4.15v1.12h-4.15v3.35h4.57v1.12h-5.74v-9.81h5.66v1.12h-4.48V74.4z"></path>
			<path class="st3" d="M287.79,70.18h2.55c1.95,0,3.28,1.15,3.28,2.9c0,2.33-2.12,2.76-2.4,2.8l2.72,4.1h-1.42l-2.65-4.01h-0.91
				v4.01h-1.18V70.18z M292.44,73.08c0-1.08-0.71-1.78-2.03-1.78h-1.44v3.56h1.44C291.73,74.86,292.44,74.16,292.44,73.08z"></path>
			<path class="st3" d="M308.05,80.27l-4.09-10.09h1.29l2.83,7.19l2.84-7.19h1.22L308.05,80.27z"></path>
			<path class="st3" d="M317.31,74.4h4.15v1.12h-4.15v3.35h4.57v1.12h-5.74v-9.81h5.66v1.12h-4.48V74.4z"></path>
			<path class="st3" d="M327.77,70.18l5.25,7.84v-7.84h1.18v9.81h-1.22l-5.25-7.84v7.84h-1.18v-9.81H327.77z"></path>
			<path class="st3" d="M345.26,70.18h1.18v6.19c0,2.23-1.33,3.78-3.57,3.78s-3.57-1.55-3.57-3.78v-6.19h1.18c0,0,0,2.83,0,6.07
				c0,1.58,0.7,2.79,2.4,2.79c1.69,0,2.4-1.21,2.4-2.79C345.26,73.01,345.26,70.18,345.26,70.18z"></path>
			<path class="st3" d="M352.71,74.4h4.15v1.12h-4.15v3.35h4.57v1.12h-5.74v-9.81h5.66v1.12h-4.48V74.4z"></path>
		</g>
		<path class="st3" id="site-header-svg" d="M15.62,17.2v73.76h17.9h46.46h17.9V17.2H15.62z M35.02,89.46V65.98l3.97-1.48v21.87h35.53V64.5l3.97,1.48
			v23.49H35.02z M73.02,62.34l-15.53-5.79V33.04l15.53,5.79V62.34z M57.49,58.15l15.53,5.79v20.93H57.49V58.15z M55.99,56.54
			l-15.5,5.79v-23.5l15.5-5.79V56.54z M55.99,58.14v26.72h-15.5V63.93L55.99,58.14z M96.39,89.46h-16.4V64.93l-5.47-2.04V37.79
			l-17.78-6.63l-17.74,6.63v25.1l-5.47,2.04v24.53h-16.4V18.7h79.27V89.46z"></path>
		<g>
			<g>
				<path class="st3" d="M136.32,42.42c-2.85-0.99-6.05-2.54-6.05-6.14c0-2.74,2.43-5.47,6.33-5.47c4.03,0,6.3,3.07,6.3,3.07
					l-2.29,2.27c0,0-1.6-2.18-4.01-2.18c-1.66,0-2.96,1.02-2.96,2.32c0,1.69,1.52,2.21,4.17,3.21c2.96,1.11,5.42,2.43,5.42,5.94
					c0,3.51-3.1,5.39-6.74,5.39c-4.84,0-7.08-3.95-7.08-3.95l2.49-2.1c0,0,1.66,2.9,4.59,2.9c1.66,0,3.37-0.66,3.37-2.24
					C139.85,43.8,138.61,43.22,136.32,42.42z"></path>
			</g>
			<g>
				<path class="st3" d="M152.54,31.14h3.32v19.35h-3.32V31.14z"></path>
			</g>
			<g>
				<path class="st3" d="M172.11,43.19l-4.23,7.3h-3.73l6.25-10.01l-5.86-9.34h3.92l3.95,6.69l3.9-6.69h3.65l-5.86,9.34l6.3,10.01
					h-3.95L172.11,43.19z"></path>
			</g>
			<g>
				<path class="st3" d="M208.09,42.42c-2.85-0.99-6.05-2.54-6.05-6.14c0-2.74,2.43-5.47,6.33-5.47c4.03,0,6.3,3.07,6.3,3.07
					l-2.29,2.27c0,0-1.6-2.18-4.01-2.18c-1.66,0-2.96,1.02-2.96,2.32c0,1.69,1.52,2.21,4.17,3.21c2.96,1.11,5.42,2.43,5.42,5.94
					c0,3.51-3.1,5.39-6.74,5.39c-4.84,0-7.08-3.95-7.08-3.95l2.49-2.1c0,0,1.66,2.9,4.59,2.9c1.66,0,3.37-0.66,3.37-2.24
					C211.63,43.8,210.38,43.22,208.09,42.42z"></path>
			</g>
			<g>
				<path class="st3" d="M227.6,34.29h-5.34v-3.15h13.99v3.15h-5.33v16.2h-3.32V34.29z"></path>
			</g>
			<g>
				<path class="st3" d="M262.12,40.82c0,5.72-4.15,10.01-9.79,10.01c-5.64,0-9.78-4.28-9.78-10.01s4.15-10.01,9.78-10.01
					C257.98,30.81,262.12,35.09,262.12,40.82z M258.75,40.82c0-3.73-2.51-6.85-6.41-6.85s-6.41,3.12-6.41,6.85
					c0,3.73,2.51,6.86,6.41,6.86S258.75,44.55,258.75,40.82z"></path>
			</g>
			<g>
				<path class="st3" d="M270.63,31.14h6.36c3.84,0,6.41,2.49,6.41,6.03c0,2.9-1.55,5.11-4.31,5.8l4.84,7.52h-3.87l-4.59-7.3h-1.52
					v7.3h-3.32V31.14z M280.03,37.17c0-1.91-1.33-2.88-3.45-2.88h-2.63v5.75h2.63C278.7,40.04,280.03,39.07,280.03,37.17z"></path>
			</g>
			<g>
				<path class="st3" d="M295.59,38.99h7.74v3.15h-7.74v5.2h8.57v3.15h-11.89V31.14h11.72v3.15h-8.4V38.99z"></path>
			</g>
			<g>
				<path class="st3" d="M320.99,50.49h-3.32v-7.63l-6.61-11.72h3.65l4.73,8.65l4.73-8.65h3.43l-6.61,11.72V50.49z"></path>
			</g>
			<g>
				<path class="st3" d="M341.52,42.42c-2.85-0.99-6.05-2.54-6.05-6.14c0-2.74,2.43-5.47,6.33-5.47c4.03,0,6.3,3.07,6.3,3.07
					l-2.29,2.27c0,0-1.6-2.18-4.01-2.18c-1.66,0-2.96,1.02-2.96,2.32c0,1.69,1.52,2.21,4.17,3.21c2.96,1.11,5.42,2.43,5.42,5.94
					c0,3.51-3.1,5.39-6.74,5.39c-4.84,0-7.08-3.95-7.08-3.95l2.49-2.1c0,0,1.66,2.9,4.59,2.9c1.66,0,3.37-0.66,3.37-2.24
					C345.06,43.8,343.82,43.22,341.52,42.42z"></path>
			</g>
		</g>
	</g>
	<g>
		<g>
			<path class="st3" d="M894.63,322.97c-2.27-0.79-4.82-2.02-4.82-4.88c0-2.18,1.94-4.36,5.04-4.36c3.21,0,5.02,2.44,5.02,2.44
				l-1.83,1.8c0,0-1.28-1.74-3.19-1.74c-1.32,0-2.35,0.81-2.35,1.85c0,1.34,1.21,1.76,3.32,2.55c2.35,0.88,4.31,1.94,4.31,4.73
				c0,2.79-2.46,4.29-5.37,4.29c-3.85,0-5.63-3.15-5.63-3.15l1.98-1.67c0,0,1.32,2.31,3.65,2.31c1.32,0,2.68-0.53,2.68-1.78
				C897.44,324.07,896.45,323.61,894.63,322.97z"></path>
		</g>
		<g>
			<path class="st3" d="M907.54,313.99h2.64v15.4h-2.64V313.99z"></path>
		</g>
		<g>
			<path class="st3" d="M923.12,323.59l-3.37,5.81h-2.97l4.97-7.97l-4.66-7.44h3.12l3.15,5.32l3.1-5.32h2.9l-4.66,7.44l5.02,7.97
				h-3.15L923.12,323.59z"></path>
		</g>
		<g>
			<path class="st3" d="M951.76,322.97c-2.27-0.79-4.82-2.02-4.82-4.88c0-2.18,1.94-4.36,5.04-4.36c3.21,0,5.02,2.44,5.02,2.44
				l-1.83,1.8c0,0-1.28-1.74-3.19-1.74c-1.32,0-2.35,0.81-2.35,1.85c0,1.34,1.21,1.76,3.32,2.55c2.35,0.88,4.31,1.94,4.31,4.73
				c0,2.79-2.46,4.29-5.37,4.29c-3.85,0-5.63-3.15-5.63-3.15l1.98-1.67c0,0,1.32,2.31,3.65,2.31c1.32,0,2.68-0.53,2.68-1.78
				C954.58,324.07,953.59,323.61,951.76,322.97z"></path>
		</g>
		<g>
			<path class="st3" d="M967.29,316.5h-4.25v-2.51h11.13v2.51h-4.25v12.89h-2.64V316.5z"></path>
		</g>
		<g>
			<path class="st3" d="M994.77,321.69c0,4.55-3.3,7.97-7.79,7.97c-4.49,0-7.79-3.41-7.79-7.97s3.3-7.96,7.79-7.96
				C991.47,313.73,994.77,317.14,994.77,321.69z M992.09,321.69c0-2.97-2-5.46-5.1-5.46s-5.1,2.49-5.1,5.46c0,2.97,2,5.46,5.1,5.46
				S992.09,324.66,992.09,321.69z"></path>
		</g>
		<g>
			<path class="st3" d="M1001.55,313.99h5.06c3.06,0,5.1,1.98,5.1,4.8c0,2.31-1.23,4.07-3.43,4.62l3.85,5.98h-3.08l-3.65-5.81h-1.21
				v5.81h-2.64V313.99z M1009.03,318.79c0-1.52-1.06-2.29-2.75-2.29h-2.09v4.58h2.09C1007.97,321.08,1009.03,320.31,1009.03,318.79z
				"></path>
		</g>
		<g>
			<path class="st3" d="M1021.41,320.24h6.16v2.51h-6.16v4.14h6.82v2.51h-9.46v-15.4h9.33v2.51h-6.69V320.24z"></path>
		</g>
		<g>
			<path class="st3" d="M1041.63,329.4h-2.64v-6.07l-5.26-9.33h2.9l3.76,6.89l3.76-6.89h2.73l-5.26,9.33V329.4z"></path>
		</g>
		<g>
			<path class="st3" d="M1057.98,322.97c-2.27-0.79-4.82-2.02-4.82-4.88c0-2.18,1.94-4.36,5.04-4.36c3.21,0,5.02,2.44,5.02,2.44
				l-1.83,1.8c0,0-1.28-1.74-3.19-1.74c-1.32,0-2.35,0.81-2.35,1.85c0,1.34,1.21,1.76,3.32,2.55c2.35,0.88,4.31,1.94,4.31,4.73
				c0,2.79-2.46,4.29-5.37,4.29c-3.85,0-5.63-3.15-5.63-3.15l1.98-1.67c0,0,1.32,2.31,3.65,2.31c1.32,0,2.68-0.53,2.68-1.78
				C1060.79,324.07,1059.8,323.61,1057.98,322.97z"></path>
		</g>
	</g>
</g>
</svg>