<?xml version="1.0" encoding="UTF-8"?>
<svg id="SVGRoot" width="500" height="163.72" version="1.1" viewBox="0 0 500.00003 163.72031" xmlns="http://www.w3.org/2000/svg" xmlns:cc="http://creativecommons.org/ns#" xmlns:dc="http://purl.org/dc/elements/1.1/" xmlns:rdf="http://www.w3.org/1999/02/22-rdf-syntax-ns#"><metadata><rdf:RDF><cc:Work rdf:about=""><dc:format>image/svg+xml</dc:format><dc:type rdf:resource="http://purl.org/dc/dcmitype/StillImage"/><dc:title/></cc:Work></rdf:RDF></metadata><g transform="translate(-296.92 -197.39)" fill="#af8d43"><path d="m494.94 251.8c5.7678 40.325-29.102 83.816-79.309 98.083-51.307 14.591-99.175-6.864-106.91-47.93-7.7388-41.051 27.586-86.154 78.893-100.75 6.4668-1.8373 12.872-3.0978 19.152-3.8236-8.2048 0.59588-16.654 2.0512-25.195 4.4194-54.358 15.141-91.742 62.013-83.503 104.69 8.2506 42.678 58.999 65 113.37 49.87 54.305-15.118 91.662-61.918 83.507-104.57"/><path d="m572.51 301.78c-5.5806 0-10.256 0.87089-13.885 2.5745l-0.23301 0.11077v33.724h8.7395v-29.756c1.4553-0.53858 2.7578-0.83652 5.0573-0.83652 4.874 0 5.8938 2.9488 5.8938 5.4278v25.164h8.7434v-25.298c0-4.1406-1.8678-11.112-14.316-11.112"/><path d="m621.94 302.44h-9.0909c0-8e-3 -9.5417 13.579-10.634 15.122v-31.077h-8.6631v51.704h8.6631v-17.07c1.1154 1.6883 11.211 17.07 11.211 17.07h9.9122s-13.472-18.858-13.808-19.324c0.35523-0.46218 12.41-16.425 12.41-16.425"/><path d="m658.02 317.63h6.4286v13.995c-0.70665 0.33613-1.9404 0.69901-4.0795 0.69901-6.4057 0-10.378-6.4057-10.378-16.719 0-11.169 3.9954-16.834 11.876-16.834 3.9305 0 6.2643 0.88618 7.5363 1.6234l0.3667 0.22536 2.8266-5.7907-0.32467-0.18717c-2.8304-1.673-6.6692-2.521-11.379-2.521-12.212 0-20.099 9.0642-20.099 23.098 0 14.786 7.4408 23.625 19.897 23.625 5.4775 0 8.9993-0.75248 12.166-2.5898l0.20245-0.11841v-24.37h-15.038z"/><path d="m679.83 304.35-0.23683 0.11077v33.724h8.7434v-29.63c1.7456-0.89381 4.4576-0.97021 6.8755-0.14896l0.40871 0.13369 1.8067-6.6769-0.51184-0.0153c-7.9603-0.23683-12.903 0.49274-17.086 2.5019"/><path d="m713.14 332.65c-4.2284 0-6.2873-4.0489-6.2873-12.376 0-8.6593 2.0015-12.685 6.2873-12.685 4.3468 0 6.2949 3.9076 6.2949 12.685 0 8.5524-1.9481 12.376-6.2949 12.376m0-30.875c-9.3621 0-14.958 6.9443-14.958 18.568 0 11.578 5.5959 18.499 14.958 18.499 9.366 0 14.97-6.9213 14.97-18.499 0-11.623-5.6035-18.568-14.97-18.568"/><path d="m752.37 302.44v29.175c-1.3025 0.69519-2.7999 1.0428-4.8549 1.0428-3.5027 0-5.5119-2.0092-5.5119-5.5042v-24.714h-8.7357v24.259c0 8.1016 4.7097 12.212 13.984 12.212 6.8717 0 11.219-1.5432 13.644-2.8419l0.21773-0.10695v-33.522z"/><path d="m779.36 333.1c-1.2567 0-2.2842-0.17953-3.1054-0.47746v-24.687c1.0733-0.40107 2.2193-0.61115 3.686-0.61115 5.7449 0 8.3041 3.9572 8.3041 12.823 0 5.9129-1.547 12.953-8.8847 12.953m0.77922-31.326c-5 0-9.1521 0.87853-12.349 2.5821l-0.21008 0.11077v47.666h8.6746v-14.106c1.2147 0.36288 2.9412 0.62262 4.8587 0.62262 9.6028 0 15.806-7.3644 15.806-18.759 0-11.345-6.272-18.117-16.78-18.117"/><path d="m499.87 315.21v-16.883c0.74484-0.32086 1.906-0.66463 3.6898-0.66463 5.6341 0 8.0367 2.628 8.0367 8.8045 0 5.8862-3.1322 8.9954-9.0795 8.9954-1.0695 0-2.0894-0.11077-2.6471-0.2521m8.8541 2.9908c7.0321-0.70665 11.742-5.4928 11.742-12.128 0-8.9954-5.997-13.953-16.906-13.953-4.6792 0-9.1979 0.93965-12.41 2.5668l-0.21773 0.11841v43.377h8.9382v-19.423c1.1154 1.78 12.166 19.423 12.166 19.423h10.157s-12.934-19.198-13.468-19.981"/><path d="m543.71 332.76c-1.1536 0.52712-2.7388 0.85561-4.3316 0.85561-4.6792 0-6.9481-1.9862-6.9481-6.0734 0-5.8098 3.9725-7.4905 11.28-8.4225v13.64m-5.1261-30.986c-5.7754 0-10.118 1.696-12.196 2.7005l-0.33614 0.17189 2.12 5.2903 0.38961-0.19863c1.3064-0.62643 4.7594-2.0856 8.6058-2.0856 4.5837 0 6.5432 1.6005 6.5432 5.3667v1.5164c-9.7327 0.98167-19.565 3.3766-19.565 13.254 0 7.1276 5.2254 11.05 14.706 11.05 5.1795 0 9.7479-0.92438 12.865-2.5783l0.21008-0.11841v-21.898c0-8.1475-4.6142-12.471-13.342-12.471"/><path d="m372.05 260.92 0.53858 1.7953 8.243 1.1001zm-15.267 77.33c-1.6769-0.0153-9.2094 0.0726-10.302-0.22537-1.0924-0.2903-1.3751-1.5241-1.4324-2.5439-0.0382-0.64172-0.0993-1.1612 2.0206-5.2521 2.1199-4.0795 2.4064-12.681 3.136-16.478 0.72957-3.793 4.3163-7.3644 4.683-7.8801 0.36287-0.51184 1.5584-8.1551 2.6242-11.658 0.8327-2.7617 2.754-6.4974 2.9374-7.0779 0.21008-0.77159-0.82506-3.4072-0.74103-6.1994 0.0726-2.2613 1.0924-4.7746 1.3178-5.5424 0.22536-0.77923 0.53094-1.5088-1.4553-3.5027-2.0665-2.055-9.5684-11.157-10.164-12.028-0.5806-0.88236-2.1849-3.7624-0.0688-6.6731 2.8457-3.8999 2.4828-8.2009 2.33-9.8816-0.14133-1.6807-1.3827-2.628-1.971-4.7403-0.58442-2.1123-0.37052-4.7403 0-5.9091 0.61115-1.8908 2.9947-3.5714 6.356-3.793 3.3652-0.21008 5.3438 0.66081 6.272 2.3491 0 0 1.3713 2.9718 1.3331 3.8503 0 0.51949-0.21773 0.87472-0.21773 0.87472s1.5279 3.6402 1.3178 3.7968c-0.22155 0.1566-1.1001 0.36287-1.1001 0.36287s0.0764 1.2376 0.0764 1.4591c0 0.22537-0.14515 0.87854-0.0764 1.5279 0.0764 0.66082 0.37051 1.2414-0.14897 1.3904-0.50803 0.14133-3.453 0.3285-3.453 0.3285s-0.48511 3.0252 0.16424 3.4607c0.66082 0.44309 3.1093-0.0267 4.6104 0.36287 1.8869 0.50421 4.5722 2.5974 4.5722 2.5974s3.052 0.76395 5.6799 2.1925c1.738 0.95493 4.11 3.6096 5.9702 3.961 2.8954 0.55004 10.97 6.6005 12.651 7.1429 1.4553 0.47747 3.5714 0.81742 5.9091 1.4286 1.039 0.28266 1.2338 0.73721 1.2338 0.73721l1.6158 2.8037s0.25974 1.0046-0.43545 1.3178c-0.51184 0.28266-0.97021-0.0497-0.97021-0.0497s-0.19481 0.48129-0.67609 0.5997c-0.62644 0.14133-0.99695-0.26738-0.99695-0.26738s-0.10695 0.43927-0.60734 0.59587c-0.58441 0.13369-0.92055-0.25974-0.92055-0.25974s-0.19481 0.46219-0.59588 0.5424c-0.58823 0.0955-1.0199-0.33613-1.0199-0.33613s-0.24446 0.67227-0.80978 0.80596c-0.61116 0.0879-1.0352-0.233-1.0352-0.233s-0.20244 0.49274-0.76012 0.55386c-0.50421 0.0726-0.86708-0.35142-0.86708-0.35142s-0.31704 0.43927-0.65699 0.45455c-0.3476 0.0153-0.66464-0.30558-0.66464-0.30558s-0.58441 0.45455-1.0008 0.0306c-0.91292-0.75249-1.1536-1.9595-1.7189-2.3759s-6.1688-0.84034-7.4103-0.8709c-1.7151-0.0305-6.7876 0.19481-6.7876 0.19481s3.4568 8.5485 4.0374 10.306c0.57677 1.7494 1.906 6.78 3.0023 10.134 1.0924 3.3499 2.8419 13.782 3.2124 14.95 0.36669 1.1688-0.0726 1.971 0.50802 3.2086 0.58442 1.2338 2.6394 6.4935 3.1474 8.7433 0.51185 2.2689 4.5302 11.383 5.6952 13.491 1.1727 2.1199 9.7823 5.9588 10.81 6.4706 1.4859 0.93965 0.35523 1.3636-0.59588 1.3636-0.18717 0-5.2025 0.0153-9.8587 0-3.686-0.0153-7.1314-0.0458-7.8495-0.233-0.82124-0.3094-1.2682-1.5699-1.1345-2.5898 0.13369-1.3598 1.1803-3.2353 0.78305-5.3476-0.6188-2.6585-7.6853-11.505-8.9382-14.645-1.8067-3.3575-0.82888-7.33-1.6348-9.0031-0.79832-1.6807-6.207-11.669-6.207-11.669s-5.1261 11.364-5.9626 12.674c-0.90145 1.4133-0.64553 0.96639-1.864 4.1673-1.23 3.2659-6.6845 15.691-7.3759 16.994-0.0229 0.0306-0.74102 1.696-0.44691 2.8151 0.55004 2.4981 8.7739 4.9084 9.6142 5.7296 0.49274 0.5042 0.61879 1.1536-0.32468 1.1536-0.63407 0-2.5172 8e-3 -4.1864 8e-3 -0.83652 0-1.6272 0-2.1772-8e-3"/><path d="m445.69 203.2c-22.017 0-39.863 17.808-39.863 39.771 0 7.33 2.0015 14.183 5.4622 20.076l31.031-9.1597v-0.0306c0-3.5982 2.9297-6.5241 6.5317-6.5241 3.6096 0 6.5356 2.9259 6.5356 6.5241 0 3.5944-2.9259 6.5126-6.5356 6.5126-2.2804 0-4.2857-1.1765-5.4546-2.945l-29.996 8.8541c7.2422 9.9695 19.007 16.459 32.288 16.459 22.017 0 39.863-17.808 39.863-39.767 0-21.963-17.846-39.771-39.863-39.771"/></g></svg>
