<?xml version="1.0" encoding="UTF-8"?>
<svg xmlns="http://www.w3.org/2000/svg" id="LOGO" viewBox="0 0 324.15891 116.14042">
  <defs>
    <style>
      .cls-1 {
        fill: #101f44;
      }

      .cls-2 {
        fill: #205d9b;
      }
    </style>
  </defs>
  <g>
    <polygon class="cls-2" points="20.34717 95.79324 27.19942 75.44607 102.15598 75.44607 20.34717 95.79324"></polygon>
    <path class="cls-1" d="m55.02856,20.34717c7.06232,0,12.58623,1.8882,16.92104,6.71253l-7.06184,6.71253c-2.72702-2.79689-5.94356-4.54488-10.41858-4.54488-10.48844,0-16.01235,8.81031-16.01235,17.06077,0,8.60072,4.61522,13.49539,12.4465,13.49539,2.37723,0,4.68461-.34979,6.99198-1.39868l1.25896-7.06184h-8.461l1.46854-8.11121h18.10966l-3.77544,21.25634c-4.96453,2.5873-11.46747,3.9855-17.3407,3.9855-12.37616,0-21.25634-7.76142-21.25634-21.25634,0-14.12416,10.76789-26.85011,27.12956-26.85011Zm37.33855,13.0054c9.22949,0,16.57126,5.38418,16.57126,14.96346,0,11.04782-8.25046,19.71793-20.83669,19.71793-9.36969,0-15.94202-5.59377-15.94202-15.66256,0-10.34824,8.3208-19.01883,20.20745-19.01883Zm-3.00647,26.71039c5.87322,0,9.85873-4.96453,9.85873-10.97748,0-4.47502-2.65716-7.76142-7.48149-7.76142-5.80384,0-9.8592,4.75447-9.8592,11.11768,0,4.54488,2.72702,7.62122,7.48197,7.62122Zm14.82326,7.20204l29.15748-45.72921h10.34872l8.73997,45.72921h-10.97748l-1.46854-9.0199h-19.08869l-5.17412,9.0199h-11.53734Zm20.83669-16.64159h13.91457l-2.86675-18.52931-11.04782,18.52931Zm36.98876-29.08762h9.99893l-2.93661,16.99138c2.4471-2.5873,6.43308-4.96453,10.9081-4.96453,6.08281,0,10.27838,3.2864,10.27838,10.06879,0,1.11875-.20959,2.4471-.34979,3.42613l-3.42613,20.20745h-9.99893l3.07681-18.24986c.13973-.97855.34931-1.95758.34931-3.00647,0-2.65716-1.39821-4.19557-4.68461-4.19557-5.10426,0-7.48149,3.91612-8.11121,7.62169l-3.07634,17.83021h-9.99893l7.97101-45.72921Zm30.41644,31.11554c0-10.76789,8.25046-19.29875,19.438-19.29875,8.74045,0,14.75387,4.82481,14.75387,13.98443,0,1.95806-.34979,4.33529-.90917,6.43308h-24.26281c.55938,4.61474,3.63571,7.41163,8.11073,7.41163,4.19557,0,7.20204-1.81786,9.29983-3.9855l5.0344,4.68461c-3.91564,4.33529-8.81031,6.29335-15.24291,6.29335-9.43955,0-16.22194-5.38418-16.22194-15.52284Zm25.38157-5.0344c.06986-.55938.06986-1.18862.06986-1.60827,0-3.56585-2.4471-5.87322-6.71253-5.87322-3.9855,0-7.69108,2.65669-9.15963,7.48149h15.80229Zm9.22996,11.32727c0-10.83776,13.42506-12.37616,23.14406-12.44603.06986-.76897.06986-1.60827.06986-1.95806,0-3.00647-2.93661-3.63571-5.66364-3.63571-2.93661,0-5.7335.90869-9.22996,2.86675l-4.12523-5.59377c3.84578-2.86675,8.95004-4.82481,14.8936-4.82481,6.50246,0,13.56478,2.65716,13.56478,11.32775,0,1.11875-.13973,2.16765-.34979,3.35626l-2.23751,12.79534c-.34931,2.16765-.62924,4.26543-.62924,6.43308h-8.88017c0-.8393.1402-2.5873.34979-3.84578-2.86675,2.86675-5.94356,4.54488-10.55831,4.54488-5.52391,0-10.34824-2.58682-10.34824-9.0199Zm9.08976-1.39821c0,2.72702,2.09778,3.91564,4.82433,3.91564,4.40516,0,7.48197-2.93709,8.3208-7.06232l.41965-2.09778c-8.1806,0-13.56478,1.25896-13.56478,5.24446Zm43.84102-24.05322c4.89515,0,8.25046,2.09731,10.83776,5.52391l3.00743-17.4809h9.99845l-7.90162,45.72921h-9.36921l.76897-4.47502c-3.1462,3.49599-7.55183,5.17412-12.09624,5.17412-8.25093,0-13.28533-5.94309-13.28533-14.68354,0-11.11768,7.62122-19.78779,18.0398-19.78779Zm-.90869,26.57018c6.43308,0,9.92907-5.31385,9.92907-10.76789,0-4.89467-2.72702-7.76142-7.48244-7.76142-5.66316,0-9.719,4.75447-9.719,10.9081,0,4.61474,2.72702,7.62122,7.27238,7.62122Z"></path>
  </g>
  <g>
    <polygon class="cls-2" points="185.23249 75.67105 182.83369 75.67105 179.67255 95.56772 192.17469 95.56772 192.51356 93.45157 182.43806 93.45157 185.23249 75.67105"></polygon>
    <path class="cls-2" d="m209.17866,76.50375c-1.25183-.72467-2.771-1.08698-4.55811-1.08698-1.52405,0-2.90247.27283-4.13464.81854-1.23212.54565-2.29077,1.31726-3.17474,2.31476-.88458.9975-1.57593,2.17725-2.07416,3.54144-.49872,1.36426-.79504,2.87469-.88947,4.53027-.09436,1.91864.16974,3.56982.79071,4.95264.62042,1.38275,1.55627,2.43701,2.80811,3.16058,1.25067.72467,2.76056,1.08698,4.52911,1.08698,1.54266,0,2.92542-.27283,4.14886-.81854,1.22284-.54565,2.27655-1.31726,3.16113-2.31476.88397-.9964,1.58026-2.17725,2.08832-3.5415.508-1.3642.79938-2.87354.87469-4.52911.11298-1.93829-.14075-3.59387-.76178-4.9679-.62097-1.37292-1.55737-2.42175-2.80804-3.14642Zm1.05804,8.00079c-.09436,1.82477-.45123,3.42468-1.07227,4.79767-.62097,1.37402-1.48639,2.44135-2.59631,3.20312-1.11047.76178-2.44629,1.14374-4.00751,1.14374-1.90063,0-3.35864-.57953-4.37476-1.73633-1.01605-1.15686-1.44873-2.89215-1.29816-5.20691.07477-1.82477.4278-3.41925,1.05865-4.78345.6297-1.3642,1.50006-2.42719,2.61053-3.18896,1.10992-.76178,2.43591-1.14264,3.97906-1.14264,1.91919,0,3.38654.57404,4.40259,1.72107,1.01605,1.14813,1.44879,2.87903,1.29816,5.19269Z"></path>
    <polygon class="cls-2" points="229.47205 91.98013 219.91712 75.67105 217.99848 75.67105 214.83735 95.56772 217.06703 95.56772 219.64759 79.28567 229.2024 95.56772 231.14997 95.56772 234.31056 75.67105 232.05305 75.67105 229.47205 91.98013"></polygon>
    <path class="cls-2" d="m244.92188,75.67105h-6.15204l-3.16113,19.89667h7.14026c1.82477,0,3.42413-.26849,4.79767-.80432,1.37347-.53589,2.53027-1.29327,3.47162-2.27222.94019-.97791,1.66486-2.13037,2.17285-3.45636.50806-1.32709.79944-2.78955.87476-4.38947.16919-2.87793-.53149-5.09338-2.10254-6.64642-1.57098-1.55194-3.91852-2.32788-7.04144-2.32788Zm6.6322,8.86188c-.05621,1.31726-.27283,2.51666-.6488,3.59821-.37653,1.08264-.9173,2.02234-1.62286,2.82227-.70557.79999-1.59009,1.42096-2.65308,1.86298s-2.31915.66248-3.7674.66248h-4.5155l2.4834-15.71893h4.00745c2.35193,0,4.09644.5686,5.23529,1.70691,1.13831,1.13831,1.63214,2.8277,1.48151,5.0661Z"></path>
    <path class="cls-2" d="m271.74647,76.50375c-1.25177-.72467-2.77094-1.08698-4.55804-1.08698-1.52411,0-2.90247.27283-4.13464.81854-1.23212.54565-2.29077,1.31726-3.17474,2.31476-.88458.9975-1.57593,2.17725-2.07416,3.54144-.49878,1.36426-.79504,2.87469-.88947,4.53027-.09442,1.91864.16974,3.56982.79071,4.95264.62042,1.38275,1.55627,2.43701,2.80804,3.16058,1.25073.72467,2.76062,1.08698,4.52917,1.08698,1.54266,0,2.92542-.27283,4.1488-.81854,1.2229-.54565,2.27661-1.31726,3.16113-2.31476.88403-.9964,1.58032-2.17725,2.08832-3.5415.50806-1.3642.79944-2.87354.87476-4.52911.11298-1.93829-.14081-3.59387-.76178-4.9679-.62097-1.37292-1.55737-2.42175-2.80811-3.14642Zm1.05811,8.00079c-.09442,1.82477-.45129,3.42468-1.07227,4.79767-.62097,1.37402-1.48645,2.44135-2.59637,3.20312-1.11041.76178-2.44629,1.14374-4.00745,1.14374-1.90063,0-3.3587-.57953-4.37476-1.73633-1.01605-1.15686-1.44879-2.89215-1.29816-5.20691.07477-1.82477.4278-3.41925,1.05859-4.78345.62976-1.3642,1.50012-2.42719,2.61053-3.18896,1.10992-.76178,2.43597-1.14264,3.97913-1.14264,1.91919,0,3.38654.57404,4.40259,1.72107,1.01605,1.14813,1.44879,2.87903,1.29816,5.19269Z"></path>
    <polygon class="cls-2" points="294.62037 75.67105 292.03938 91.98013 282.48444 75.67105 280.5658 75.67105 277.40467 95.56772 279.63435 95.56772 282.21491 79.28567 291.76972 95.56772 293.71729 95.56772 296.87788 75.67105 294.62037 75.67105"></polygon>
  </g>
</svg>
