<?xml version="1.0" encoding="UTF-8"?>
<svg width="639px" height="90px" viewBox="0 0 639 90" version="1.1" xmlns="http://www.w3.org/2000/svg" xmlns:xlink="http://www.w3.org/1999/xlink">
    <!-- Generator: Sketch 51.2 (57519) - http://www.bohemiancoding.com/sketch -->
    <title>Logo</title>
    <desc>Created with Sketch.</desc>
    <defs></defs>
    <g id="Page-1" stroke="none" stroke-width="1" fill="none" fill-rule="evenodd">
        <g id="Logo" transform="translate(0.000000, -1.000000)" fill="#004273" fill-rule="nonzero">
            <polyline id="Shape" points="355.27 2.14 371.59 2.18 371.25 90.13 354.95 90.05 355.27 2.14"></polyline>
            <polyline id="Shape" points="609.56 19.41 609.61 3.06 568.78 2.94 568.51 74.52 568.45 90.85 609.27 90.99 609.33 74.66 584.84 74.57 584.92 55.07 609.42 55.18 609.47 38.84 584.98 38.77 585.04 19.32 609.56 19.41"></polyline>
            <polyline id="Shape" points="143.59 1.38 184.45 1.53 184.39 17.34 159.89 17.24 159.82 37.5 184.31 37.63 184.25 53.41 159.76 53.3 159.62 89.37 143.27 89.3 143.59 1.38"></polyline>
            <polyline id="Shape" points="250.68 1.75 291.48 1.93 291.46 17.73 266.96 17.61 266.86 37.89 291.36 38.02 291.32 53.77 266.81 53.71 266.7 89.77 250.36 89.74 250.68 1.75"></polyline>
            <path d="M45.12,1 C27.3166463,0.915106788 11.2166571,11.5672966 4.3325752,27.9860671 C-2.55150667,44.4048376 1.13717334,63.3540445 13.6774112,75.9916489 C26.217649,88.6292532 45.1377602,92.4643797 61.6092824,85.7074896 C78.0808046,78.9505994 88.8571962,62.9334778 88.91,45.13 C88.9819814,20.8605432 69.3892876,1.11572526 45.12,1 Z M44.86,72.61 C33.6758187,72.5694624 23.6175054,65.7952163 19.3758547,55.4464988 C15.1342039,45.0977814 17.544673,33.212929 25.4831157,25.334561 C33.4215584,17.4561931 45.3243783,15.1360732 55.6405767,19.4562125 C65.9567752,23.7763518 72.6544209,33.8858335 72.61,45.07 C72.5835301,52.4023379 69.644673,59.4236925 64.4402383,64.5887423 C59.2358036,69.7537921 52.1923274,72.6392288 44.86,72.61 Z" id="Shape"></path>
            <path d="M494.55,58.86 C488.813912,70.3547558 475.916438,76.3846826 463.417884,73.4151279 C450.91933,70.4455732 442.112391,59.2588546 442.159562,46.4124586 C442.206734,33.5660627 451.095589,22.4443225 463.615614,19.5666352 C476.135639,16.688948 488.988483,22.8134293 494.64,34.35 L512.1,34.42 C506.090342,13.3477901 485.491285,-0.0908946939 463.783784,2.89882895 C442.076284,5.88855259 425.877009,24.3953862 425.787498,46.3076205 C425.697987,68.2198548 441.745524,86.8584156 463.427875,90.0253853 C485.110226,93.1923551 505.818386,79.9224089 512,58.9 L494.53,58.9" id="Shape"></path>
            <path d="M631.74,6 L633.47,6 C634.05876,5.9220827 634.655779,6.06067639 635.15,6.39 C635.547394,6.71913761 635.769134,7.2143572 635.75,7.73 C635.781241,8.41447198 635.338573,9.03089795 634.68,9.22 L635.89,11.43 L634.73,11.43 L633.65,9.43 L632.75,9.43 L632.75,11.43 L631.75,11.43 L631.74,6 Z M632.74,6.88 L632.74,8.6 L633.09,8.6 C633.44,8.6 633.57,8.6 633.76,8.6 C634.008886,8.64833526 634.266289,8.58167088 634.460423,8.41859839 C634.654557,8.2555259 634.76465,8.01349357 634.76,7.76 C634.775451,7.45259503 634.606353,7.16552054 634.33,7.03 C633.985957,6.91419534 633.620409,6.87661564 633.26,6.92 L632.74,6.88 Z" id="Shape"></path>
            <path d="M633.57,3.74 C630.815115,3.74013775 628.579368,5.96863012 628.570277,8.72349975 C628.561186,11.4783694 630.782176,13.7215693 633.537,13.7398894 C636.291823,13.7582096 638.542451,11.5447469 638.57,8.79 C638.583348,7.4552756 638.062462,6.1706232 637.12333,5.22209935 C636.184197,4.2735755 634.904791,3.73993326 633.57,3.74 Z M633.57,12.96 C631.877535,12.9640441 630.349657,11.9471051 629.700109,10.3842414 C629.050561,8.82137777 629.407548,7.02106275 630.604306,5.82430559 C631.801063,4.62754843 633.601378,4.27056138 635.164241,4.92010938 C636.727105,5.56965738 637.744044,7.09753462 637.74,8.79 C637.747985,9.90206264 637.312493,10.9714643 636.529889,11.7615762 C635.747284,12.551688 634.682088,12.9973682 633.57,13 L633.57,12.96 Z" id="Shape"></path>
        </g>
    </g>
</svg>