<?xml version="1.0" encoding="utf-8"?>
<!-- Generator: Adobe Illustrator 20.1.0, SVG Export Plug-In . SVG Version: 6.00 Build 0)  -->
<!DOCTYPE svg PUBLIC "-//W3C//DTD SVG 1.1//EN" "http://www.w3.org/Graphics/SVG/1.1/DTD/svg11.dtd">
<svg version="1.1" id="Ebene_1" xmlns="http://www.w3.org/2000/svg" xmlns:xlink="http://www.w3.org/1999/xlink" x="0px" y="0px"
	 viewBox="0 0 688.4 353.9" style="enable-background:new 0 0 688.4 353.9;" xml:space="preserve">
<style type="text/css">
	.st0{fill:#EA7600;}
	.st1{fill:#506D85;}
</style>
<path class="st0" d="M331.5,106.4c0-15.7-12.7-28.3-28.4-28.3c-15.9,0-28.5,12.7-28.5,28.3c0,15.9,12.7,28.5,28.5,28.5
	C318.8,134.9,331.5,122.3,331.5,106.4"/>
<g>
	<path class="st1" d="M602.4,154.2c-40.2-17.9-72.2-39.4-72.2-78.4c0-31,23.6-54,61.2-54c35.3,0,63.1,18.1,75.3,32.2V12.6
		c-5.8-1.1-13-3.7-19.9-5.8c-11-3.7-29-6.9-43.8-6.9c-69.2,0-108.8,44.8-108.8,96.9c0,63.2,71.2,87.9,88.7,96.5
		c33.7,16.2,67.9,34.7,67.9,79.5c0,41.1-25.3,59.4-65.3,59.4c-40.4,0-74.6-20.3-90.4-36.3V334c0,0.2,0.1,0.4,0.1,0.5
		c6.4,2.6,16.9,7.3,30.1,11.4c13.1,4.3,31,8,50.1,8c66.9,0,112.9-40.7,112.9-101.7C688.4,187,637.2,169.5,602.4,154.2"/>
	<path class="st1" d="M86.5,172.6L244,7.6l-13.7,0l0,0h-45.6c0,1.1-3.4,22.7-12.4,33.8C146.9,72.9,56.2,162.8,46.7,172.2
		c-0.1-52.7-0.1-99.9-0.1-99.9c0.1-15.9,0.3-26.9,0.3-29.5c0-18.9,12.4-35.2,12.4-35.2H0.2c0,0,10.2,16.4,10.2,34.9
		c0,2.2,0.1,268.8,0.1,272.5c0,18.9-10.5,35-10.5,35h59.2c0,0-12.3-16.3-12.3-34.8c0-1.2-0.1-75.4-0.2-141.5
		c9.2,9.7,21.9,23.8,36.2,39.9l84.6,90.8c3.9,4.4,7.3,8.4,10,11.7c9,11,12.4,32.7,12.4,33.8h19.9h25.7h14.6l-63.3-68
		C156.7,251.7,117.6,208.9,86.5,172.6"/>
	<path class="st1" d="M468.6,107.3c0-29.8-8.5-57.9-30-76.4c-21.4-18.4-45.5-23.6-86.2-23.6h-33h-4.1h-48.8l-16.4,19.6h65.2V27
		c27.4,0,56.8,2.7,68.8,8.1c12.1,5.4,21.2,10.4,27.5,21.6c6.3,11.3,9.4,27.5,9.4,48.5c0,30.1-6.9,51.7-20.8,64.8
		c-13.9,13.1-36.5,16.2-67.9,16.2h-12.8h-4.1H284v42.3h0c0,39,0.1,84.3,0.1,86.4c0,18.9-10.3,35-10.3,35h58.4
		c0,0-12.1-16.3-12.1-34.8c0-1.7-0.1-71.7-0.1-107.5h27.8c39.8,0,65.2-5.5,92.3-27.1C459.8,165.1,468.6,137.1,468.6,107.3"/>
</g>
</svg>
