<?xml version="1.0" encoding="utf-8"?>
<!DOCTYPE svg PUBLIC "-//W3C//DTD SVG 1.1//EN" "http://www.w3.org/Graphics/SVG/1.1/DTD/svg11.dtd">
<svg version="1.1" id="Layer_1" xmlns="http://www.w3.org/2000/svg" xmlns:xlink="http://www.w3.org/1999/xlink" x="0px" y="0px"
	 viewBox="0 0 150 15" enable-background="new 0 0 150 15" xml:space="preserve" width="150px" height="15px">
<g>
	<rect x="101.7" y="0" fill="#4b4b4d" width="2" height="15"/>
	<path fill="#4b4b4d" d="M15.7,0L9.5,12.4c-0.1,0.2-0.4,0.3-0.7,0.3c-0.2,0-0.6-0.1-0.7-0.3L2.1,0L0,0l7.3,15h3.2l7.3-15H15.7z"/>
	<path fill="#4b4b4d" d="M95.9,0l-6.2,12.4c-0.1,0.2-0.4,0.3-0.7,0.3c-0.2,0-0.6-0.1-0.7-0.3L82.3,0l-2,0l7.3,15h3.2L98,0H95.9z"/>
	<path fill="#4b4b4d" d="M76.3,0h-2v12.5c0,0.3-0.2,0.5-0.5,0.5h-9.9c-0.3,0-0.5-0.2-0.5-0.4V0h-2.1v12.6h0c0,0.1,0,0.2,0,0.3
		c0,1.1,0.9,1.9,1.9,2v0h11v0c1.1,0,2-0.9,2-2v-0.1V0z"/>
	<path fill="#4b4b4d" d="M125.1,0H123v12.5c0,0.3-0.2,0.5-0.5,0.5h-9.9c-0.3,0-0.5-0.2-0.5-0.4V0h-2v12.6h0c0,0.1,0,0.2,0,0.3
		c0,1.1,0.9,1.9,1.9,2v0h11v0c1.1,0,2-0.9,2-2c0,0,0-0.1,0-0.1h0V0z"/>
	<path fill="#4b4b4d" d="M24.2,2h11.8V0H21.7v6.5h0v2h0V15h14.3v-2H24.2c-0.3,0-0.5-0.2-0.5-0.5V9c0-0.3,0.2-0.4,0.5-0.5h7.2v-2
		h-7.2c-0.2,0-0.5-0.2-0.5-0.5V2.5C23.7,2.3,23.9,2.1,24.2,2"/>
	<path fill="#4b4b4d" d="M55.5,2c0-1.1-0.9-2-2-2v0h-11v0c-1.1,0.1-1.9,0.9-1.9,2v4.4h0c0,0,0,0.1,0,0.1c0,1.1,0.9,1.9,1.9,2v0H53
		c0.3,0,0.5,0.2,0.5,0.5v3.5c0,0.3-0.2,0.5-0.5,0.5h-9.9c-0.3,0-0.5-0.2-0.5-0.5V12c0-0.6-0.5-1-1-1c-0.6,0-1,0.5-1,1v0.9h0
		c0,0,0,0.1,0,0.1c0,1.1,0.9,1.9,1.9,2v0h11v0c1.1,0,2-0.9,2-2c0,0,0-0.1,0-0.1h0V8.5c0-1.1-0.9-1.9-2-2v0H43.1
		c-0.3,0-0.5-0.2-0.5-0.5V2.5c0-0.3,0.2-0.5,0.5-0.5H53c0.2,0,0.4,0.2,0.4,0.5V3h0c0,0.6,0.5,1,1,1c0.6,0,1-0.5,1-1V2L55.5,2
		C55.5,2.1,55.5,2,55.5,2"/>
	<path fill="#4b4b4d" d="M145.8,2c0-1.1-0.9-2-2-2v0h-11v0c-1.1,0.1-1.9,0.9-1.9,2v4.4h0c0,0,0,0.1,0,0.1c0,1.1,0.9,1.9,1.9,2v0
		h10.5c0.3,0,0.5,0.2,0.5,0.5v3.5c0,0.3-0.2,0.5-0.5,0.5h-9.9c-0.3,0-0.5-0.2-0.5-0.5V12c0-0.6-0.5-1-1-1c-0.6,0-1,0.5-1,1v0.9h0
		c0,0,0,0.1,0,0.1c0,1.1,0.9,1.9,1.9,2v0h11v0c1.1,0,2-0.9,2-2c0,0,0-0.1,0-0.1h0V8.5c0-1.1-0.9-1.9-2-2v0h-10.4
		c-0.3,0-0.5-0.2-0.5-0.5V2.5c0-0.3,0.2-0.5,0.5-0.5h9.9c0.3,0,0.4,0.2,0.5,0.5V3c0,0.6,0.5,1,1,1c0.6,0,1-0.5,1-1V2L145.8,2
		C145.8,2.1,145.8,2,145.8,2"/>
</g>
</svg>
