<?xml version="1.0" encoding="UTF-8" standalone="no"?>
<!-- Created with Inkscape (http://www.inkscape.org/) -->

<svg
   xmlns:dc="http://purl.org/dc/elements/1.1/"
   xmlns:cc="http://creativecommons.org/ns#"
   xmlns:rdf="http://www.w3.org/1999/02/22-rdf-syntax-ns#"
   xmlns:svg="http://www.w3.org/2000/svg"
   xmlns="http://www.w3.org/2000/svg"
   xmlns:sodipodi="http://sodipodi.sourceforge.net/DTD/sodipodi-0.dtd"
   xmlns:inkscape="http://www.inkscape.org/namespaces/inkscape"
   width="233.23009"
   height="44.795841"
   viewBox="0 0 61.708792 11.852233"
   version="1.1"
   id="svg6710"
   inkscape:version="0.92.0 r15299"
   sodipodi:docname="ms amlin.svg">
  <defs
     id="defs6704">
    <clipPath
       id="clipPath5875"
       clipPathUnits="userSpaceOnUse">
      <path
         inkscape:connector-curvature="0"
         id="path5873"
         d="m 981.129,770.315 h 173.423 v 54.089 H 981.129 Z" />
    </clipPath>
    <clipPath
       id="clipPath5859"
       clipPathUnits="userSpaceOnUse">
      <path
         inkscape:connector-curvature="0"
         id="path5857"
         d="m 981.129,781.312 h 173.423 v 32.097 H 981.129 Z" />
    </clipPath>
    <clipPath
       id="clipPath5847"
       clipPathUnits="userSpaceOnUse">
      <path
         inkscape:connector-curvature="0"
         id="path5845"
         d="m 981.129,781.312 h 173.423 v 32.097 H 981.129 Z" />
    </clipPath>
    <clipPath
       id="clipPath5835"
       clipPathUnits="userSpaceOnUse">
      <path
         inkscape:connector-curvature="0"
         id="path5833"
         d="m 981.129,781.312 h 173.423 v 32.097 H 981.129 Z" />
    </clipPath>
  </defs>
  <sodipodi:namedview
     id="base"
     pagecolor="#ffffff"
     bordercolor="#666666"
     borderopacity="1.0"
     inkscape:pageopacity="0.0"
     inkscape:pageshadow="2"
     inkscape:zoom="2.2569445"
     inkscape:cx="177.61163"
     inkscape:cy="-17.689042"
     inkscape:document-units="mm"
     inkscape:current-layer="layer1"
     showgrid="false"
     fit-margin-top="0"
     fit-margin-left="0"
     fit-margin-right="0"
     fit-margin-bottom="0"
     units="px"
     inkscape:window-width="1280"
     inkscape:window-height="744"
     inkscape:window-x="-4"
     inkscape:window-y="-4"
     inkscape:window-maximized="1" />
  <metadata
     id="metadata6707">
    <rdf:RDF>
      <cc:Work
         rdf:about="">
        <dc:format>image/svg+xml</dc:format>
        <dc:type
           rdf:resource="http://purl.org/dc/dcmitype/StillImage" />
        <dc:title></dc:title>
      </cc:Work>
    </rdf:RDF>
  </metadata>
  <g
     inkscape:label="Layer 1"
     inkscape:groupmode="layer"
     id="layer1"
     transform="translate(-48.029217,-160.02955)">
    <path
       inkscape:connector-curvature="0"
       id="path5839"
       style="fill:#24195c;fill-opacity:1;fill-rule:nonzero;stroke:none;stroke-width:0.35277778"
       d="m 64.965435,165.58103 c 0.455789,-0.55986 0.985308,-1.14018 1.662289,-1.78964 0.676275,-0.64911 1.279172,-1.15641 1.861961,-1.59456 0.644878,-0.48366 1.46685,-0.50094 2.100792,-0.002 0.582436,0.43851 1.186391,0.94545 1.863372,1.59597 0.676627,0.64911 1.206147,1.22873 1.661583,1.78823 0.536575,0.65864 0.534458,1.35643 -0.0021,2.01507 -0.455789,0.55986 -0.985308,1.13947 -1.661936,1.78893 -0.676275,0.64982 -1.277408,1.1557 -1.86055,1.59244 -0.646641,0.48613 -1.452033,0.48542 -2.098675,0 -0.583141,-0.43744 -1.186038,-0.94474 -1.861961,-1.59385 -0.67698,-0.64981 -1.20403,-1.22731 -1.660525,-1.78752 -0.503414,-0.61772 -0.520347,-1.40371 -0.0042,-2.0126" />
    <path
       inkscape:connector-curvature="0"
       id="path5851"
       style="fill:#db0d15;fill-opacity:1;fill-rule:nonzero;stroke:none;stroke-width:0.35277778"
       d="m 64.492008,166.71945 c 0.06033,0.31432 0.207081,0.57644 0.450497,0.87489 0.456847,0.5595 1.010709,1.13771 1.688042,1.78717 0.675569,0.64946 1.278466,1.15676 1.861608,1.59456 0.272697,0.20531 0.579261,0.32596 0.881239,0.35489 -0.619831,-0.14993 -1.529292,-1.10455 -1.046692,-2.82963 0.458964,-1.63936 1.196975,-2.83845 1.568098,-3.57364 l 0.01094,-0.0208 c 0.749652,-1.41323 -0.309386,-1.89618 -1.141589,-1.1871 0.590197,-0.81245 1.939925,-2.13783 2.409472,-2.62361 0.467431,-0.48789 0.133703,-0.98531 -0.797631,-0.73519 -1.916641,0.57997 -4.300361,2.38125 -5.411258,4.49968 -0.371122,0.70768 -0.529519,1.32398 -0.472722,1.85879" />
    <path
       inkscape:connector-curvature="0"
       id="path5863"
       style="fill:#24195c;fill-opacity:1;fill-rule:nonzero;stroke:none;stroke-width:0.35277778"
       d="m 80.128847,165.55454 -0.359128,1.56104 h -1.600905 l 0.262114,-1.13594 c 0.116769,-0.49848 0.2667,-1.01459 0.652286,-1.32327 0.227541,-0.17145 0.413102,-0.20602 0.534458,-0.20602 0.464256,0 0.548569,0.41169 0.557742,0.56726 0.01764,0.22296 -0.03669,0.46849 -0.04657,0.53693 m -0.08714,-2.56469 c -1.444978,0.007 -3.399014,0.32561 -3.787775,2.22602 l -1.443567,6.24311 h 2.355498 l 0.617713,-2.67617 h 1.603375 l -0.621241,2.67617 h 2.288469 l 1.447447,-6.27027 c 0.353484,-1.99884 -1.643944,-2.20239 -2.459919,-2.19886 m 22.822946,-2.69558 h -2.37066 l -0.38452,1.66723 h 2.3703 z m -3.008124,2.76472 -1.939573,8.39999 h 2.369597 l 1.93958,-8.39999 z m -13.1064,0 h -2.327275 l -1.939572,8.39999 h 2.327275 c 0,0 1.206853,-5.20912 1.300691,-5.63492 0.09066,-0.42651 0.297745,-0.85901 0.670631,-1.13347 0.195439,-0.11995 0.349603,-0.15381 0.435328,-0.15381 0.34043,0 0.612069,0.27375 0.636058,0.58314 0.0078,0.1016 -0.03034,0.30903 -0.0829,0.49812 l -1.347964,5.84094 h 2.338211 c 0,0 1.260123,-5.45994 1.348317,-5.84094 0.08361,-0.38135 0.312561,-0.70485 0.625475,-0.91122 0.04798,-0.0332 0.210256,-0.13618 0.402167,-0.13618 0.325261,0 0.572558,0.2914 0.597253,0.58385 0.0099,0.11994 -0.01623,0.2226 -0.06844,0.48013 l -1.344084,5.82436 h 2.374195 l 1.403702,-6.08189 c 0.351367,-1.52364 -0.944033,-2.38724 -1.762477,-2.38724 -0.857956,0 -1.506009,0.51505 -2.119136,1.03081 -0.328084,-0.44626 -0.575381,-0.75565 -1.121481,-0.94368 -0.279753,-0.0871 -0.519642,-0.0871 -0.609247,-0.0871 -0.725664,0 -1.32715,0.39405 -1.911703,0.82479 z m 22.714644,1.32186 c -0.0642,-0.78952 -0.60289,-1.391 -1.53317,-1.391 -0.56197,0 -1.49084,0.18732 -2.07363,0.7567 l 0.15911,-0.68756 h -2.37067 l -1.93957,8.39999 h 2.37066 l 1.26577,-5.47934 c 0.11677,-0.49848 0.248,-1.01459 0.63606,-1.32327 0.22789,-0.17145 0.4131,-0.20602 0.53411,-0.20602 0.43285,0 0.54927,0.41169 0.56232,0.56726 0.0152,0.22296 -0.0466,0.46355 -0.06,0.53129 l -1.36419,5.91008 h 2.30611 l 1.44744,-6.27027 c 0.066,-0.28751 0.0801,-0.53234 0.0596,-0.80786 m -12.770191,-4.08658 -2.577748,11.16471 h 2.380898 l 2.577394,-11.16471 z" />
    <path
       inkscape:connector-curvature="0"
       id="path5867"
       style="fill:#24195c;fill-opacity:1;fill-rule:nonzero;stroke:none;stroke-width:0.35277778"
       d="m 54.822659,162.86026 -2.118431,6.00922 -2.055283,-6.00922 h -2.355144 v 8.54322 h 1.397 v -6.5345 l 2.043641,5.963 h 1.431573 l 2.083858,-5.87622 v 6.44772 h 1.639358 v -8.54322 z" />
    <path
       inkscape:connector-curvature="0"
       id="path5879"
       style="fill:#24195c;fill-opacity:1;fill-rule:nonzero;stroke:none;stroke-width:0.35277778"
       d="m 58.546115,171.32863 v -1.46614 c 0.919692,0.38488 1.706739,0.57714 2.361142,0.57714 0.457552,0 0.818444,-0.10195 1.082322,-0.30586 0.263525,-0.2039 0.395464,-0.48083 0.395464,-0.83114 0,-0.27729 -0.0829,-0.51118 -0.248356,-0.70132 -0.165453,-0.19086 -0.479072,-0.41664 -0.940858,-0.6784 l -0.5715,-0.3175 c -0.765881,-0.43109 -1.306689,-0.84384 -1.622072,-1.23825 -0.315736,-0.3944 -0.473428,-0.85513 -0.473428,-1.38253 0,-0.70415 0.258939,-1.27 0.776464,-1.69722 0.517525,-0.42721 1.201561,-0.64064 2.052108,-0.64064 0.681214,0 1.448858,0.0981 2.303286,0.29422 v 1.36807 c -0.87383,-0.32703 -1.564569,-0.49036 -2.072569,-0.49036 -0.392289,0 -0.706967,0.0875 -0.943681,0.26246 -0.236714,0.17533 -0.354894,0.40499 -0.354894,0.68968 0,0.23495 0.08255,0.44098 0.248003,0.61772 0.165452,0.17709 0.477308,0.39476 0.935213,0.65228 l 0.611717,0.34079 c 0.823736,0.46178 1.391356,0.88688 1.703211,1.27564 0.311503,0.38876 0.467431,0.86219 0.467431,1.42029 0,0.79269 -0.294217,1.41428 -0.883356,1.86443 -0.588786,0.45014 -1.400528,0.67521 -2.43593,0.67521 -0.685095,0 -1.481667,-0.0963 -2.389717,-0.28857" />
  </g>
</svg>
