<svg xmlns="http://www.w3.org/2000/svg" height="800" width="1200" viewBox="-11.25141 -5.0472 97.51222 30.2832"><path class="logo-char" d="M7.7523 6.006c-1.3758 0-2.487.4498-3.2808 1.2965V0H0v19.8438h4.4715v-7.3555c0-.7673.1852-1.3758.5556-1.7991.344-.4234.8202-.635 1.4287-.635 1.1907 0 1.7463.6879 1.7463 2.143v7.673h4.4714v-8.6254c0-1.6933-.4762-2.9898-1.4287-3.8894-.979-.8996-2.1431-1.3494-3.4925-1.3494m6.7733.7938h4.3127v13.044h-4.3127zm4.6038-4.1804c0 1.3494-1.0848 2.4606-2.4607 2.4606-1.3493 0-2.4606-1.0848-2.4606-2.4606 0-1.3494 1.0848-2.4606 2.4606-2.4606 1.3759 0 2.4607 1.1112 2.4607 2.4606m14.3404 4.1804h-5.1065l-3.175 4.2333V.6085h-4.3127v19.2353h4.3127V15.24l3.1221 4.6038h5.4504l-5.3446-6.7998 5.0536-6.2442m18.706.8996c-.926-.8467-2.0373-1.2965-3.3073-1.2965-.8202 0-1.5875.1852-2.2225.5556-.5556.291-.979.7144-1.2964 1.2171-.344-.5027-.7938-.926-1.3494-1.217-.6615-.3705-1.3758-.5557-2.1431-.5557-1.323 0-2.4077.4498-3.2015 1.3759V6.7733h-4.0481v13.0705h4.3127v-7.1703c0-.7672.1588-1.3493.4498-1.7197.291-.3705.688-.5557 1.1906-.5557 1.27 0 1.4023 1.1113 1.4023 1.9315v7.5142h4.3127v-7.3025c0-.688.1588-1.2436.4498-1.614.291-.3704.6615-.5556 1.1906-.5556 1.2436 0 1.3759 1.1112 1.3759 1.9314v7.5407h4.3127v-8.3609c-.0265-1.6404-.5027-2.9104-1.4288-3.7835m12.3296 11.2183v.979h4.2333V6.6675h-4.4979v.8202c-.7937-.7144-1.905-1.0583-3.175-1.0583-1.7462 0-3.175.6614-4.3127 1.9314-1.1112 1.27-1.6669 2.937-1.6669 4.9477 0 2.0373.5821 3.7042 1.6934 4.9742 1.1112 1.27 2.54 1.905 4.3127 1.905 1.3494.0265 2.6194-.4233 3.4131-1.27zm-4.3127-3.228c-.5027-.6084-.7408-1.4022-.7408-2.3812 0-.9525.2381-1.7197.7408-2.3018.4763-.5821 1.0848-.8732 1.8256-.8732.7673 0 1.3759.291 1.8521.8732.5027.582.7408 1.3493.7408 2.3018 0 .979-.238 1.7728-.7408 2.3813-.4762.582-1.0848.8731-1.852.8731-.7409 0-1.323-.2646-1.8257-.8731zm14.8167 2.0373c0 1.3495-1.0848 2.4607-2.4607 2.4607-1.3493 0-2.4606-1.0848-2.4606-2.4606 0-1.3494 1.0848-2.4606 2.4606-2.4606 1.3494.0265 2.4607 1.1112 2.4607 2.4606" fill="#ff5c57"/></svg>