<svg xmlns="http://www.w3.org/2000/svg" aria-labelledby="site-logo-title" class="e-site-logo__image" id="site-logo" viewBox="0 0 320 52">
			<path d="M2.7,25.7c0-7,5.2-11.8,10.2-14.1l0.4,0.6c-1.8,2-3.2,4-3.2,8.1c0,4.8,1.3,8.1,3.3,10.3
			c0.7-0.8,1.1-1.9,1.1-2.9v-6.8l8.8-6.3l0.5,0.7c-0.8,1.1-1.3,2.4-1.3,3.8v4.2c0,3.3-5.2,6.7-8.6,8c2.1,1.9,5,2.7,8.1,2.7
			c1.2,0,2.3-0.1,3.5-0.2V13.9c-2.6-0.2-5.1-0.7-7.6-1.5c-2.7-0.8-6.4-1.8-8.7-1.8c-3.5,0-7.6,1.2-7.7,6.2c0,0.5,0.1,1,0.1,1.5
			l-0.8,0.3C0.3,17.2,0,15.6,0,14C-0.1,7.7,4.5,2.2,11.9,2.2c3.1,0,6.7,1,9.3,1.7c2.8,0.8,5.5,1.5,8.1,1.5c1.3,0,2.1-0.7,2.1-2
			c0-1.3-0.7-1.9-1.8-2.2l0.2-0.9C33,1,36.5,2.9,36.5,6.9c0,4.7-3.5,7.1-9.3,7.1h-0.5v19.5c1.6-0.3,3.2-0.9,4.5-1.9
			c1.4-0.9,2.5-2.2,3.4-3.6l0.8,0.4c-2,6.7-7.3,13.3-16.2,13.3C10.1,41.7,2.7,36.6,2.7,25.7 M41.7,48.2c10.9-0.8,19-5.3,19-12.6V19.5
			c0-0.5,0.1-1,0.3-1.5c0.2-0.5,0.5-0.9,0.9-1.2v-1.3c-0.4,0.3-1,0.4-1.5,0.4c-0.3,0-0.6-0.1-0.9-0.2c-0.5-0.3-3.7-3.2-4.2-3.7h-0.7
			l-7,6.6V6.8c0-2.8,1.4-4,2.3-4.2V1.8c-0.6-0.1-1.2-0.2-1.8-0.2c-0.9,0-1.7,0.2-2.5,0.6c-0.8,0.4-1.4,1-1.9,1.7h-0.2
			c-0.5-1.2-2.3-2.3-4.1-2.3c-0.8,0-1.7,0.1-2.5,0.4v0.7c1.2,0.3,3.1,1.4,3.1,3.6v29.1l-1.4,1.4l5.4,4.6h0.6l5.4-4.9l-2.4-2.2V20.1
			l2.8-2.6l2.5,2.5v19c0,6-5.7,7.6-11.4,8.1V48.2z M65.3,30.4c0,3-0.3,5.4-0.7,6.5c2.8,1.5,6.9,3.3,10.1,4.6h0.8l9.5-9.4l-0.7-0.7
			l-4.8,4.7c-2.3-0.9-4.5-1.9-6.6-3.1v-4.5l11.6-7.8v-0.8c-2.6-2.3-5.5-5.6-7.6-7.8h-0.7c-3.5,2.4-7.2,4.6-11,6.6V30.4z M72.8,17.9
			c1.5,1.7,3.3,3.8,5.1,5.8l-5.1,3.5V17.9z M101.7,25.6c0,10.9,7.4,16,16.4,16c8.9,0,14.2-6.6,16.2-13.3l-0.8-0.4
			c-0.9,1.4-2,2.6-3.4,3.6c-1.4,0.9-2.9,1.6-4.5,1.9V13.9h0.5c5.8,0,9.3-2.4,9.3-7.1c0-4-3.5-5.9-6.7-6.5l-0.2,0.9
			c0.5,0.1,1,0.3,1.3,0.7c0.3,0.4,0.5,0.9,0.5,1.4c0,1.3-0.8,2-2.1,2c-2.6,0-5.4-0.7-8.1-1.5c-2.5-0.7-6.2-1.7-9.3-1.7
			C103.5,2.1,99,7.6,99,13.9c0,1.6,0.3,3.2,0.9,4.7l0.8-0.3c-0.1-0.6-0.1-1.1-0.1-1.5c0.1-5,4.3-6.2,7.7-6.2c2.4,0,6,1,8.7,1.8
			c2.5,0.8,5,1.3,7.6,1.5v19.8c-1.1,0.2-2.3,0.2-3.5,0.2c-3.1,0-6-0.8-8.1-2.7c3.3-1.4,8.6-4.7,8.6-8v-4.2c0-1.4,0.5-2.7,1.3-3.8
			l-0.5-0.7l-8.8,6.3v6.8c0,1.1-0.4,2.1-1.1,2.9c-2-2.2-3.3-5.5-3.3-10.3c0-4.1,1.4-6.1,3.2-8.1l-0.4-0.6
			C107,13.8,101.7,18.6,101.7,25.6 M137.7,30.3c0,3-0.3,5.4-0.7,6.5c2.8,1.5,6.9,3.3,10,4.6h0.8l9.5-9.4l-0.7-0.7l-4.8,4.7
			c-2.3-0.9-4.5-1.9-6.6-3.1v-4.5l11.6-7.8v-0.8c-2.6-2.3-5.5-5.6-7.6-7.8h-0.6c-3.5,2.4-7.2,4.6-11,6.6V30.3z M145.3,17.9
			c1.5,1.7,3.3,3.8,5,5.8l-5,3.5V17.9z M163.8,1.5h-0.6l-7,7.1l0.7,0.7l1.9-1.9l1.5,1.6v26.4c0,3.7,3.2,5.8,5.6,6.1h0.4l6.2-6.3
			l-0.6-0.7l-1.8,1.8c-1.1-0.2-2.2-1.3-2.2-2.4V5.3L163.8,1.5z M175.2,30.3c0,3-0.3,5.4-0.7,6.5c2.8,1.5,6.9,3.3,10.1,4.6h0.8l9.5-9.4
			l-0.7-0.7l-4.8,4.7c-2.3-0.9-4.5-1.9-6.6-3.1v-4.5l11.6-7.8v-0.8c-2.6-2.3-5.5-5.6-7.6-7.8h-0.7c-3.5,2.4-7.2,4.6-11,6.6V30.3z
			M182.8,17.9c1.5,1.7,3.3,3.8,5.1,5.8l-5.1,3.5V17.9z M204.1,41.4h0.6l5.4-5.3c0.1,3.5,1.9,8.1,4.1,10.4c-3.1-1.8-6.6-2.9-9.4-2.9
			c-4.5,0-8.1,3.9-9.7,7.8l0.6,0.5c1.8-1.4,4.1-2.1,6.3-2c2.9,0,5.7,0.7,8.3,2h0.6c2.1-2.6,7-7.8,9-9.9v-0.8c-1.4-1.4-2.1-3.5-2.1-7
			v-15c0.1-0.9,0.5-1.8,1.2-2.4v-1.3c-0.6,0.3-1.2,0.5-1.9,0.5c-0.3,0-0.7-0.1-1-0.2c-0.7-0.3-6.4-2.9-8.6-3.8h-0.8l-9.6,6.7v18.1
			L204.1,41.4z M208.2,36.5l-3.4-2.2V17.7l5.3,2.4v14.6L208.2,36.5z M234.5,18.1c0.9,0.9,2.6,2.4,3.8,3.5h0.1l4.6-5.5V16
			c-1.5-1.2-3-2.5-4.3-3.9h-0.6l-5.3,6.3v-2.2l-4.2-4.1H228l-7,7l0.7,0.7l1.9-1.9l1.5,1.6v15.8c0,3.7,3.2,5.8,5.6,6.1h0.4l6.1-6.3
			l-0.6-0.7l-1.8,1.8c-1.1-0.2-2.2-1.3-2.2-2.4V20L234.5,18.1z M250.1,23.8c-1.7,1.2-5.1,3.7-6.7,4.7V37l6.7,4.4h0.5l5.6-5.5
			c0.3,1.3,1,2.5,2,3.5c1,1,2.1,1.6,3.5,2h0.5l6.1-6.3l-0.6-0.7l-1.8,1.8c-0.6-0.1-1.2-0.4-1.6-0.9c-0.4-0.5-0.6-1.1-0.6-1.7v-14
			c0-0.5,0.1-1,0.3-1.4c0.2-0.4,0.6-0.8,1-1v-1.3c-0.5,0.3-1.1,0.4-1.7,0.4c-0.4,0-0.8-0.1-1.2-0.3c-0.3-0.2-8.2-3.9-8.2-3.9h-0.7
			c-2.8,2.5-5.9,4.7-9.2,6.5v0.8c2.2,2.8,7.5,5.8,12.1,7v8.4l-2,1.9l-3.1-1.8V24.1L250.1,23.8z M256,25.2c-4.3-1.1-9.1-3.8-10.9-6.2
			c0.7-0.4,2.7-1.7,3.3-2.1l7.5,4V25.2 M279.9,16.2l-4.2-4.1h-0.6l-7,7l0.7,0.7l1.9-1.9l1.5,1.6v14.7c-0.1,0.8-0.3,1.6-0.8,2.2
			c-0.4,0.7-1,1.2-1.7,1.6v1c0.8,0.1,1.8,0.3,2.4,0.4v5.6l-1.5,1.6l5.9,4.6h0.4l5.3-4.9l-2.4-2.3v-3l4.6,1h0.2
			c2.6-3.1,5.1-4.7,8.1-5.4V19.5c0-0.5,0.1-1,0.3-1.5c0.2-0.5,0.5-0.9,0.9-1.2v-1.3c-0.5,0.3-1,0.4-1.5,0.4c-0.3,0-0.6-0.1-0.9-0.2
			c-0.5-0.3-3.7-3.2-4.2-3.7h-0.7l-7,6.6V16.2z M285.3,35.2c-1-0.2-3.5-0.6-5.3-1V20.1l2.9-2.6l2.5,2.5V35.2 M299.8,48.2
			c10.9-0.8,19-5.3,19-12.6V19.5c0-0.5,0.1-1,0.3-1.5c0.2-0.5,0.5-0.9,0.9-1.2v-1.3c-0.4,0.3-1,0.4-1.5,0.4c-0.3,0-0.6-0.1-0.9-0.2
			c-0.5-0.3-3.7-3.2-4.2-3.7h-0.7l-7,6.6V6.8c0-2.8,1.4-4,2.3-4.2V1.7c-0.6-0.1-1.2-0.2-1.8-0.2c-0.9,0-1.7,0.2-2.5,0.6
			c-0.8,0.4-1.4,1-1.9,1.7h-0.2c-0.5-1.2-2.3-2.3-4.1-2.3c-0.8,0-1.7,0.1-2.5,0.4v0.7c1.2,0.3,3.1,1.4,3.1,3.6v29.1l-1.4,1.4l5.4,4.6
			h0.6l5.4-4.9l-2.4-2.2V20.1l2.8-2.6l2.5,2.5v19c0,6-5.7,7.6-11.4,8.1V48.2z"></path>
		</svg>