<?xml version="1.0" encoding="UTF-8" standalone="no"?>
<!-- Created with Inkscape (http://www.inkscape.org/) -->

<svg
   xmlns:dc="http://purl.org/dc/elements/1.1/"
   xmlns:cc="http://creativecommons.org/ns#"
   xmlns:rdf="http://www.w3.org/1999/02/22-rdf-syntax-ns#"
   xmlns:svg="http://www.w3.org/2000/svg"
   xmlns="http://www.w3.org/2000/svg"
   xmlns:sodipodi="http://sodipodi.sourceforge.net/DTD/sodipodi-0.dtd"
   xmlns:inkscape="http://www.inkscape.org/namespaces/inkscape"
   width="173.0498mm"
   height="31.88957mm"
   viewBox="0 0 173.0498 31.88957"
   version="1.1"
   id="svg8"
   inkscape:version="0.92.0 r15299"
   sodipodi:docname="shaftersbury.svg">
  <defs
     id="defs2" />
  <sodipodi:namedview
     id="base"
     pagecolor="#ffffff"
     bordercolor="#666666"
     borderopacity="1.0"
     inkscape:pageopacity="0.0"
     inkscape:pageshadow="2"
     inkscape:zoom="1.3794334"
     inkscape:cx="325.1335"
     inkscape:cy="58.373999"
     inkscape:document-units="mm"
     inkscape:current-layer="layer1"
     showgrid="false"
     fit-margin-top="0"
     fit-margin-left="0"
     fit-margin-right="0"
     fit-margin-bottom="0"
     units="mm"
     inkscape:window-width="1280"
     inkscape:window-height="744"
     inkscape:window-x="-4"
     inkscape:window-y="-4"
     inkscape:window-maximized="1" />
  <metadata
     id="metadata5">
    <rdf:RDF>
      <cc:Work
         rdf:about="">
        <dc:format>image/svg+xml</dc:format>
        <dc:type
           rdf:resource="http://purl.org/dc/dcmitype/StillImage" />
        <dc:title></dc:title>
      </cc:Work>
    </rdf:RDF>
  </metadata>
  <g
     inkscape:label="Layer 1"
     inkscape:groupmode="layer"
     id="layer1"
     transform="translate(45.203476,-324.40046)">
    <g
       id="g99"
       transform="translate(0.49999934,-0.49999941)">
      <path
         id="path10"
         d="m -6.3626432,340.62484 c 1.1369146,0 2.0595167,-0.92233 2.0595167,-2.05925 0,-1.13691 -0.9223375,-2.05819 -2.0595167,-2.05819 -1.1369145,0 -2.059252,0.92128 -2.059252,2.05819 0,1.13718 0.9220729,2.05925 2.059252,2.05925"
         inkscape:connector-curvature="0"
         style="fill:#826e50;stroke-width:0.26458332" />
      <path
         id="path12"
         d="m 19.850421,328.98768 c 0.115358,-0.25691 0.180181,-0.54055 0.180181,-0.84032 0,-1.13691 -0.921279,-2.05819 -2.058193,-2.05819 -1.138238,0 -2.059517,0.92128 -2.059517,2.05819 0,1.13797 0.921279,2.05925 2.059517,2.05925 0.14896,0 0.294481,-0.0161 0.43471,-0.0474 0.696913,-0.11562 1.230842,-0.53948 1.443302,-1.17157"
         inkscape:connector-curvature="0"
         style="fill:#7ecdc3;stroke-width:0.26458332" />
      <path
         id="path14"
         d="m 115.92089,352.17153 c -1.13691,0 -2.05925,0.92233 -2.05925,2.05925 0,1.13718 0.92234,2.05925 2.05925,2.05925 1.13718,0 2.05925,-0.92207 2.05925,-2.05925 0,-1.13692 -0.92233,-2.05925 -2.05925,-2.05925"
         inkscape:connector-curvature="0"
         style="fill:#0054a4;stroke-width:0.26458332" />
      <path
         id="path16"
         d="m -30.521482,329.17844 c -1.557867,-1.55787 -3.582723,-2.99905 -5.140325,-3.34962 v -0.42836 c 1.557866,0 3.894402,0.31167 5.140325,0.62335 z m -7.205134,20.95262 c 2.025915,-0.4281 4.206082,-1.5965 4.206082,-4.71197 0,-2.3368 -1.245923,-3.27183 -4.244711,-4.8297 l -2.06375,-1.05172 c -2.882371,-1.55786 -5.219171,-3.34962 -5.219171,-6.85456 0,-4.40134 4.011877,-7.08739 7.78854,-7.28265 v 0.42836 c -1.829594,0.19526 -3.621352,1.59649 -3.621352,3.77772 0,2.53179 1.013089,3.27183 4.440237,5.14138 l 1.751807,0.89535 c 2.921264,1.5576 5.453062,2.92126 5.453062,7.0485 0,4.75192 -4.089665,7.67212 -8.491008,7.86739 v -0.4281 z m -1.596495,0.42836 c -2.336536,-0.0389 -4.440238,-0.38947 -5.880365,-0.85646 v -3.4663 c 1.752071,1.90844 3.737769,3.19299 5.880365,3.8944 z"
         inkscape:connector-curvature="0"
         style="fill:#8f9193;stroke-width:0.26458332" />
      <path
         id="path18"
         d="m -16.317062,339.15244 c 0,-1.79943 -0.935302,-2.69902 -2.771246,-2.69902 -0.827352,0 -1.61925,0.25242 -2.446602,0.75618 v -0.28813 c 1.044311,-1.43907 3.059377,-2.73447 5.253567,-2.73447 3.059377,0 4.462727,1.76266 4.462727,4.60508 v 11.47921 h -4.498446 z m -10.471414,-13.17069 4.5339,-0.46832 v 24.75759 h -4.5339 z"
         inkscape:connector-curvature="0"
         style="fill:#8f9193;stroke-width:0.26458332" />
      <path
         id="path20"
         d="m 20.238829,345.62917 v -9.64406 h -2.26642 v -1.54702 h 2.26642 v -3.88673 l 4.498446,-1.58247 v 5.4692 h 4.64185 v 1.54702 h -4.64185 v 9.17602 c 0,1.97934 0.57494,3.20384 2.591065,3.20384 1.007533,0 2.123016,-0.28814 2.554552,-0.57733 v 0.4326 c -0.648494,1.11548 -2.519098,2.33892 -5.110163,2.33892 -2.986881,0 -4.5339,-1.58354 -4.5339,-4.92999"
         inkscape:connector-curvature="0"
         style="fill:#8f9193;stroke-width:0.26458332" />
      <path
         id="path22"
         d="m 36.16066,340.37587 4.605073,-0.39608 c 0,-3.20278 -0.719666,-5.21785 -1.870604,-5.4692 v -0.32385 c 4.138083,0.28707 5.865019,3.30967 5.865019,6.54923 h -8.599752 v -0.3601 z m -5.79411,1.79917 c 0,-4.46167 3.634317,-7.70096 7.484533,-7.98804 v 0.32385 c -2.05052,0.53949 -2.878137,2.59107 -2.878137,6.22538 0,4.42516 2.123017,6.47674 5.289021,6.47674 2.015066,0 3.526366,-0.64717 4.642114,-1.5113 v 0.46831 c -0.682889,1.72694 -2.697956,4.38944 -6.692635,4.38944 -5.07365,-2.6e-4 -7.844896,-3.77799 -7.844896,-8.38438"
         inkscape:connector-curvature="0"
         style="fill:#8f9193;stroke-width:0.26458332" />
      <path
         id="path24"
         d="m 57.730552,337.49747 c -1.258888,-1.44013 -2.446602,-2.44766 -3.993621,-2.98715 v -0.36036 c 1.547019,0.10795 3.022865,0.32465 3.993621,0.61172 z m -6.045465,13.06142 c -1.40335,-0.10768 -3.201723,-0.28681 -4.353718,-0.61172 v -3.13055 c 1.475581,1.54808 2.950368,2.8792 4.353718,3.41842 z m 1.08003,-0.32358 c 1.295399,-0.25109 2.663295,-1.04299 2.663295,-2.73447 0,-1.40362 -0.864129,-2.01507 -2.44766,-2.73474 l -2.303198,-1.04404 c -1.762654,-0.79084 -3.454135,-2.08651 -3.454135,-4.56962 0,-2.59107 2.338652,-4.71408 5.613664,-5.00221 v 0.36036 c -1.151996,0.1434 -2.267479,0.82735 -2.267479,2.15847 0,1.29566 0.683948,1.97961 1.979877,2.55561 l 2.914915,1.33112 c 2.015066,0.97075 3.273954,2.37543 3.273954,4.53416 0,3.27502 -2.266421,5.21785 -5.972969,5.46921 v -0.32385 z"
         inkscape:connector-curvature="0"
         style="fill:#8f9193;stroke-width:0.26458332" />
      <path
         id="path26"
         d="m 69.454239,350.23583 c 2.483379,-0.18018 4.210579,-2.55428 4.210579,-7.7724 0,-4.35504 -1.115483,-6.47779 -3.742531,-6.47779 -1.18745,0 -2.159529,0.32359 -2.91465,0.93636 v -0.36036 c 0.971815,-1.18772 2.771246,-2.41115 5.073386,-2.41115 4.174595,0 6.297877,2.80697 6.297877,7.70043 0,5.07445 -2.987146,8.38491 -8.924661,8.70876 z m -0.935302,0.32359 c -2.591329,-0.10795 -5.325798,-0.46831 -6.873081,-0.9353 v -23.60639 l 4.534165,-0.50377 v 23.78631 c 0.575204,0.43153 1.654968,0.82761 2.338916,0.9353 z"
         inkscape:connector-curvature="0"
         style="fill:#8f9193;stroke-width:0.26458332" />
      <path
         id="path28"
         d="m 91.521547,334.61801 4.534165,-0.53949 v 15.90517 l -4.534165,0.46725 z m -10.43596,11.15536 v -11.15536 l 4.498446,-0.53949 v 11.4435 c 0,1.79837 0.899583,2.69795 2.734733,2.69795 0.827352,0 1.654704,-0.25135 2.483379,-0.79163 v 0.28787 c -0.864394,1.44012 -2.843741,2.80696 -5.002212,2.80696 -3.310731,2.7e-4 -4.714346,-1.90711 -4.714346,-4.7498"
         inkscape:connector-curvature="0"
         style="fill:#8f9193;stroke-width:0.26458332" />
      <path
         id="path30"
         d="m 104.41178,338.72064 c 0.39608,-2.44766 1.94416,-4.57068 4.39076,-4.57068 0.46699,0 0.86307,0.0722 1.11549,0.18018 v 3.6711 c -0.39609,-0.14447 -0.97208,-0.25242 -1.69175,-0.25242 -1.43907,0 -2.8067,0.36037 -3.8145,1.33112 z m -5.361514,-4.10237 4.534164,-0.46831 v 16.12212 h -4.534164 z"
         inkscape:connector-curvature="0"
         style="fill:#8f9193;stroke-width:0.26458332" />
      <path
         id="path32"
         d="m -4.647614,345.84534 c 0,-1.69042 0.4683125,-2.37437 1.0075333,-2.84242 0.6839479,-0.39582 1.7994312,-0.82735 2.80696456,-1.152 v -0.32385 c -1.79943126,0.39609 -4.35398326,0.97208 -5.18239366,1.26021 -1.4390688,0.576 -3.0226,1.40362 -3.0226,3.85022 0,2.19525 1.4758458,3.92218 4.3182645,3.92218 2.4108833,0 3.5263667,-1.43906 3.99467916,-2.30319 v -0.28787 c -0.43153546,0.32359 -1.00753336,0.82735 -2.05052086,0.82735 -1.4038791,-2.6e-4 -1.871927,-1.11469 -1.871927,-2.95063"
         inkscape:connector-curvature="0"
         style="fill:#8f9193;stroke-width:0.26458332" />
      <path
         id="path34"
         d="m -0.94133072,334.15049 c -1.97934788,0 -4.13808328,0.71967 -5.10989788,1.43907 v 0.32491 c 0.5759979,-0.25241 1.4401271,-0.36036 2.3386521,-0.36036 2.4833791,0 3.74332493,0.89958 3.74332493,3.67003 v 11.04741 H 4.5646484 v -11.7303 c 0,-3.13081 -2.1952479,-4.39076 -5.50597912,-4.39076"
         inkscape:connector-curvature="0"
         style="fill:#8f9193;stroke-width:0.26458332" />
      <path
         id="path36"
         d="m 13.150377,329.50838 c 0,-2.44661 1.691482,-3.45414 3.275013,-3.63432 v -0.32359 c -3.922448,0.28787 -7.8091771,1.54702 -7.8091771,5.97297 v 2.91492 H 6.4931963 v 1.54702 h 2.1230166 v 14.28591 h 4.5341641 v -14.28591 h 3.34645 v -1.54702 h -3.34645 z"
         inkscape:connector-curvature="0"
         style="fill:#8f9193;stroke-width:0.26458332" />
      <path
         id="path38"
         d="m 116.26644,334.43836 h -4.74954 l 5.0128,11.12096 c 1.2999,2.99773 1.98279,5.4745 1.65497,6.42382 l 0.25347,0.18892 2.69372,-6.08092 -0.013,-0.002 0.18547,-0.42281 z"
         inkscape:connector-curvature="0"
         style="fill:#8f9193;stroke-width:0.26458332" />
      <path
         id="path40"
         d="m 123.11624,334.43836 c 0.20902,1.87589 -0.22014,6.14045 -0.60749,7.80706 l 0.20691,0.18124 c 1.19221,-2.65245 2.90724,-6.18887 4.13067,-7.98804 h -3.73009 z"
         inkscape:connector-curvature="0"
         style="fill:#8f9193;stroke-width:0.26458332" />
    </g>
  </g>
</svg>
